M48
; DRILL file {KiCad 5.1.10-5.1.10} date Fri Sep 24 10:51:34 2021
; FORMAT={3:3/ absolute / metric / suppress trailing zeros}
; #@! TF.CreationDate,2021-09-24T10:51:34+10:00
; #@! TF.GenerationSoftware,Kicad,Pcbnew,5.1.10-5.1.10
; #@! TF.FileFunction,Plated,1,2,PTH
FMAT,2
METRIC,LZ
T1C0.400
T2C0.750
T3C0.800
T4C0.900
T5C1.000
T6C1.016
T7C3.500
%
G90
G05
T1
X112209Y-104911
X112209Y-106155
X112231Y-086182
X115817Y-081414
T2
X10414Y-07112
X10541Y-07239
X10668Y-07112
X11176Y-09652
X11303Y-04826
X11303Y-09779
X1143Y-04699
X1143Y-04953
X1143Y-09652
X12573Y-07366
X127Y-07493
X12827Y-07366
X13208Y-09398
X13335Y-09525
X13462Y-09398
X14478Y-07112
X14605Y-07239
X14732Y-07112
X1524Y-04826
X15367Y-04699
X15367Y-04953
X15494Y-09652
X15621Y-09779
X15748Y-09652
X16256Y-07874
X16383Y-08001
X1651Y-07874
T3
X09398Y-12192
X09398Y-127
X09652Y-04826
X1016Y-0635
X10414Y-10414
X10668Y-04826
X10668Y-12192
X10668Y-127
X11176Y-12192
X11176Y-127
X1143Y-0635
X11684Y-10414
X11938Y-04826
X11938Y-08128
X12446Y-12192
X12446Y-127
X127Y-08636
X12954Y-04826
X12954Y-12192
X13204Y-12192
X13208Y-08128
X13462Y-127
X13716Y-04826
X1397Y-08636
X13978Y-12192
X14224Y-0635
X14478Y-12192
X14732Y-04826
X14732Y-10414
X14732Y-127
X1524Y-12192
X1524Y-127
X15494Y-0635
X16002Y-04826
X16002Y-10414
X1651Y-12192
X1651Y-127
X17018Y-04826
X17018Y-07366
X17018Y-08636
T4
X093345Y-110694
X09398Y-056515
X09398Y-059055
X09398Y-064262
X09398Y-066802
X09398Y-071755
X09398Y-074295
X094615Y-108494
X09652Y-05461
X09652Y-11303
X097727Y-103105
X098997Y-100905
X09906Y-05461
X09906Y-11303
X102108Y-095516
X103378Y-093316
X10414Y-079375
X10414Y-081915
X104267Y-05461
X104267Y-11303
X10649Y-087927
X106807Y-05461
X106807Y-11303
X107759Y-085727
X110807Y-081913
X11176Y-05461
X11176Y-11303
X112078Y-079713
X1143Y-05461
X1143Y-085725
X1143Y-088265
X1143Y-11303
X115189Y-074324
X116459Y-072124
X11938Y-05461
X11938Y-11303
X119571Y-066735
X120841Y-064535
X12192Y-05461
X12192Y-11303
X123952Y-059146
X12446Y-093345
X12446Y-095885
X12446Y-100838
X12446Y-103378
X12446Y-108585
X12446Y-111125
X125222Y-056946
X133794Y-110581
X135102Y-108404
X135255Y-056515
X135255Y-059055
X135255Y-064262
X135255Y-066802
X135255Y-071755
X135255Y-074295
X13716Y-11303
X137795Y-05461
X138307Y-10307
X139615Y-100892
X1397Y-11303
X140335Y-05461
X142821Y-095558
X144129Y-093381
X144907Y-11303
X145415Y-079375
X145415Y-081915
X145542Y-05461
X147334Y-088047
X147447Y-11303
X148082Y-05461
X148642Y-08587
X151713Y-08177
X1524Y-11303
X153021Y-079593
X153035Y-05461
X15494Y-11303
X155575Y-05461
X15621Y-085725
X15621Y-088265
X156226Y-074259
X157534Y-072082
X16002Y-11303
X160655Y-05461
X16074Y-066748
X162048Y-06457
X16256Y-11303
X163195Y-05461
X165253Y-059236
X16637Y-093345
X16637Y-095885
X16637Y-100838
X16637Y-103378
X16637Y-108585
X16637Y-111125
X166561Y-057059
X1778Y-070866
X1778Y-073406
X1778Y-075946
X1778Y-078486
X1778Y-088773
X1778Y-091313
X1778Y-09398
X1778Y-09652
T5
X08636Y-05334
X08636Y-05588
X08636Y-05842
X08636Y-06096
X08636Y-0635
X08636Y-06604
X08636Y-1016
X08636Y-10414
X08636Y-10668
X08636Y-10922
X08636Y-11176
X08636Y-1143
X08636Y-11684
X08636Y-11938
X08636Y-12192
X08636Y-12446
X08636Y-127
X08636Y-12954
X11938Y-13462
X12192Y-13462
X12446Y-13462
X127Y-13462
X12954Y-13462
X13208Y-13462
X13462Y-13462
X13716Y-13462
X1397Y-13462
X14224Y-13462
X14478Y-13462
X14732Y-13462
X17272Y-05334
X17272Y-05588
X17272Y-05842
X17272Y-06096
X17272Y-0635
X17272Y-06604
X17272Y-1016
X17272Y-10414
X17272Y-10668
X17272Y-10922
X17272Y-11176
X17272Y-1143
X17272Y-11684
X17272Y-11938
X17272Y-12192
X17272Y-12446
X17272Y-127
X17272Y-12954
T6
X13208Y-04572
X13208Y-04826
X13208Y-0508
X13462Y-04572
X13462Y-04826
X13462Y-0508
T7
X0889Y-04572
X0889Y-13462
X1778Y-04572
X1778Y-13462
T0
M30
