G04 #@! TF.GenerationSoftware,KiCad,Pcbnew,5.1.10-5.1.10*
G04 #@! TF.CreationDate,2021-09-24T10:51:31+10:00*
G04 #@! TF.ProjectId,6segment,36736567-6d65-46e7-942e-6b696361645f,rev?*
G04 #@! TF.SameCoordinates,Original*
G04 #@! TF.FileFunction,Legend,Bot*
G04 #@! TF.FilePolarity,Positive*
%FSLAX46Y46*%
G04 Gerber Fmt 4.6, Leading zero omitted, Abs format (unit mm)*
G04 Created by KiCad (PCBNEW 5.1.10-5.1.10) date 2021-09-24 10:51:31*
%MOMM*%
%LPD*%
G01*
G04 APERTURE LIST*
%ADD10C,0.150000*%
%ADD11C,0.120000*%
%ADD12C,0.010000*%
G04 APERTURE END LIST*
D10*
X89352380Y-94240952D02*
X89400000Y-94193333D01*
X89447619Y-94098095D01*
X89447619Y-93860000D01*
X89400000Y-93764761D01*
X89352380Y-93717142D01*
X89257142Y-93669523D01*
X89161904Y-93669523D01*
X89019047Y-93717142D01*
X88447619Y-94288571D01*
X88447619Y-93669523D01*
X88447619Y-92574285D02*
X89114285Y-92050476D01*
X89114285Y-92574285D02*
X88447619Y-92050476D01*
X89447619Y-90479047D02*
X89447619Y-90669523D01*
X89400000Y-90764761D01*
X89352380Y-90812380D01*
X89209523Y-90907619D01*
X89019047Y-90955238D01*
X88638095Y-90955238D01*
X88542857Y-90907619D01*
X88495238Y-90860000D01*
X88447619Y-90764761D01*
X88447619Y-90574285D01*
X88495238Y-90479047D01*
X88542857Y-90431428D01*
X88638095Y-90383809D01*
X88876190Y-90383809D01*
X88971428Y-90431428D01*
X89019047Y-90479047D01*
X89066666Y-90574285D01*
X89066666Y-90764761D01*
X89019047Y-90860000D01*
X88971428Y-90907619D01*
X88876190Y-90955238D01*
X88495238Y-89240952D02*
X88447619Y-89145714D01*
X88447619Y-88955238D01*
X88495238Y-88860000D01*
X88590476Y-88812380D01*
X88638095Y-88812380D01*
X88733333Y-88860000D01*
X88780952Y-88955238D01*
X88780952Y-89098095D01*
X88828571Y-89193333D01*
X88923809Y-89240952D01*
X88971428Y-89240952D01*
X89066666Y-89193333D01*
X89114285Y-89098095D01*
X89114285Y-88955238D01*
X89066666Y-88860000D01*
X88495238Y-88002857D02*
X88447619Y-88098095D01*
X88447619Y-88288571D01*
X88495238Y-88383809D01*
X88590476Y-88431428D01*
X88971428Y-88431428D01*
X89066666Y-88383809D01*
X89114285Y-88288571D01*
X89114285Y-88098095D01*
X89066666Y-88002857D01*
X88971428Y-87955238D01*
X88876190Y-87955238D01*
X88780952Y-88431428D01*
X89114285Y-87098095D02*
X88304761Y-87098095D01*
X88209523Y-87145714D01*
X88161904Y-87193333D01*
X88114285Y-87288571D01*
X88114285Y-87431428D01*
X88161904Y-87526666D01*
X88495238Y-87098095D02*
X88447619Y-87193333D01*
X88447619Y-87383809D01*
X88495238Y-87479047D01*
X88542857Y-87526666D01*
X88638095Y-87574285D01*
X88923809Y-87574285D01*
X89019047Y-87526666D01*
X89066666Y-87479047D01*
X89114285Y-87383809D01*
X89114285Y-87193333D01*
X89066666Y-87098095D01*
X88447619Y-86621904D02*
X89114285Y-86621904D01*
X89019047Y-86621904D02*
X89066666Y-86574285D01*
X89114285Y-86479047D01*
X89114285Y-86336190D01*
X89066666Y-86240952D01*
X88971428Y-86193333D01*
X88447619Y-86193333D01*
X88971428Y-86193333D02*
X89066666Y-86145714D01*
X89114285Y-86050476D01*
X89114285Y-85907619D01*
X89066666Y-85812380D01*
X88971428Y-85764761D01*
X88447619Y-85764761D01*
X88495238Y-84907619D02*
X88447619Y-85002857D01*
X88447619Y-85193333D01*
X88495238Y-85288571D01*
X88590476Y-85336190D01*
X88971428Y-85336190D01*
X89066666Y-85288571D01*
X89114285Y-85193333D01*
X89114285Y-85002857D01*
X89066666Y-84907619D01*
X88971428Y-84860000D01*
X88876190Y-84860000D01*
X88780952Y-85336190D01*
X89114285Y-84431428D02*
X88447619Y-84431428D01*
X89019047Y-84431428D02*
X89066666Y-84383809D01*
X89114285Y-84288571D01*
X89114285Y-84145714D01*
X89066666Y-84050476D01*
X88971428Y-84002857D01*
X88447619Y-84002857D01*
X89114285Y-83669523D02*
X89114285Y-83288571D01*
X89447619Y-83526666D02*
X88590476Y-83526666D01*
X88495238Y-83479047D01*
X88447619Y-83383809D01*
X88447619Y-83288571D01*
X88447619Y-81764761D02*
X89447619Y-81764761D01*
X88495238Y-81764761D02*
X88447619Y-81860000D01*
X88447619Y-82050476D01*
X88495238Y-82145714D01*
X88542857Y-82193333D01*
X88638095Y-82240952D01*
X88923809Y-82240952D01*
X89019047Y-82193333D01*
X89066666Y-82145714D01*
X89114285Y-82050476D01*
X89114285Y-81860000D01*
X89066666Y-81764761D01*
X88447619Y-81288571D02*
X89114285Y-81288571D01*
X89447619Y-81288571D02*
X89400000Y-81336190D01*
X89352380Y-81288571D01*
X89400000Y-81240952D01*
X89447619Y-81288571D01*
X89352380Y-81288571D01*
X89114285Y-80383809D02*
X88304761Y-80383809D01*
X88209523Y-80431428D01*
X88161904Y-80479047D01*
X88114285Y-80574285D01*
X88114285Y-80717142D01*
X88161904Y-80812380D01*
X88495238Y-80383809D02*
X88447619Y-80479047D01*
X88447619Y-80669523D01*
X88495238Y-80764761D01*
X88542857Y-80812380D01*
X88638095Y-80860000D01*
X88923809Y-80860000D01*
X89019047Y-80812380D01*
X89066666Y-80764761D01*
X89114285Y-80669523D01*
X89114285Y-80479047D01*
X89066666Y-80383809D01*
X88447619Y-79907619D02*
X89114285Y-79907619D01*
X89447619Y-79907619D02*
X89400000Y-79955238D01*
X89352380Y-79907619D01*
X89400000Y-79860000D01*
X89447619Y-79907619D01*
X89352380Y-79907619D01*
X89114285Y-79574285D02*
X89114285Y-79193333D01*
X89447619Y-79431428D02*
X88590476Y-79431428D01*
X88495238Y-79383809D01*
X88447619Y-79288571D01*
X88447619Y-79193333D01*
X88495238Y-78907619D02*
X88447619Y-78812380D01*
X88447619Y-78621904D01*
X88495238Y-78526666D01*
X88590476Y-78479047D01*
X88638095Y-78479047D01*
X88733333Y-78526666D01*
X88780952Y-78621904D01*
X88780952Y-78764761D01*
X88828571Y-78860000D01*
X88923809Y-78907619D01*
X88971428Y-78907619D01*
X89066666Y-78860000D01*
X89114285Y-78764761D01*
X89114285Y-78621904D01*
X89066666Y-78526666D01*
D11*
G04 #@! TO.C,R24*
X168370000Y-46890000D02*
X168370000Y-49630000D01*
X168370000Y-49630000D02*
X161830000Y-49630000D01*
X161830000Y-49630000D02*
X161830000Y-46890000D01*
X161830000Y-46890000D02*
X168370000Y-46890000D01*
X169140000Y-48260000D02*
X168370000Y-48260000D01*
X161060000Y-48260000D02*
X161830000Y-48260000D01*
G04 #@! TO.C,R23*
X98330000Y-49630000D02*
X98330000Y-46890000D01*
X98330000Y-46890000D02*
X104870000Y-46890000D01*
X104870000Y-46890000D02*
X104870000Y-49630000D01*
X104870000Y-49630000D02*
X98330000Y-49630000D01*
X97560000Y-48260000D02*
X98330000Y-48260000D01*
X105640000Y-48260000D02*
X104870000Y-48260000D01*
G04 #@! TO.C,R22*
X145510000Y-46890000D02*
X145510000Y-49630000D01*
X145510000Y-49630000D02*
X138970000Y-49630000D01*
X138970000Y-49630000D02*
X138970000Y-46890000D01*
X138970000Y-46890000D02*
X145510000Y-46890000D01*
X146280000Y-48260000D02*
X145510000Y-48260000D01*
X138200000Y-48260000D02*
X138970000Y-48260000D01*
G04 #@! TO.C,R21*
X121190000Y-49630000D02*
X121190000Y-46890000D01*
X121190000Y-46890000D02*
X127730000Y-46890000D01*
X127730000Y-46890000D02*
X127730000Y-49630000D01*
X127730000Y-49630000D02*
X121190000Y-49630000D01*
X120420000Y-48260000D02*
X121190000Y-48260000D01*
X128500000Y-48260000D02*
X127730000Y-48260000D01*
D12*
G04 #@! TO.C,REF\u002A\u002A*
G36*
X94245467Y-80131177D02*
G01*
X94223224Y-80099798D01*
X94195515Y-80072089D01*
X93886080Y-80072089D01*
X93794201Y-80072162D01*
X93722160Y-80072505D01*
X93667220Y-80073308D01*
X93626640Y-80074759D01*
X93597683Y-80077048D01*
X93577609Y-80080364D01*
X93563679Y-80084895D01*
X93553155Y-80090831D01*
X93546900Y-80095486D01*
X93522327Y-80126217D01*
X93519659Y-80161504D01*
X93534729Y-80193755D01*
X93543626Y-80204412D01*
X93555443Y-80211536D01*
X93574474Y-80215833D01*
X93605008Y-80218009D01*
X93651338Y-80218772D01*
X93687129Y-80218845D01*
X93821955Y-80218845D01*
X93821955Y-80715556D01*
X93699300Y-80715556D01*
X93643213Y-80716069D01*
X93604667Y-80718124D01*
X93578639Y-80722492D01*
X93560103Y-80729944D01*
X93546900Y-80738953D01*
X93522396Y-80769856D01*
X93519494Y-80804804D01*
X93536911Y-80838262D01*
X93546041Y-80847396D01*
X93558145Y-80853848D01*
X93576999Y-80858103D01*
X93606380Y-80860648D01*
X93650063Y-80861971D01*
X93711825Y-80862557D01*
X93726000Y-80862625D01*
X93842369Y-80863109D01*
X93938273Y-80863359D01*
X94015823Y-80863277D01*
X94077131Y-80862769D01*
X94124310Y-80861738D01*
X94159470Y-80860087D01*
X94184724Y-80857721D01*
X94202183Y-80854543D01*
X94213959Y-80850456D01*
X94222165Y-80845366D01*
X94228355Y-80839734D01*
X94248156Y-80807872D01*
X94245467Y-80774643D01*
X94223224Y-80743265D01*
X94208874Y-80730567D01*
X94193022Y-80722474D01*
X94170446Y-80717958D01*
X94135922Y-80715994D01*
X94084224Y-80715556D01*
X93968711Y-80715556D01*
X93968711Y-80218845D01*
X94087244Y-80218845D01*
X94141852Y-80218338D01*
X94178725Y-80216302D01*
X94202693Y-80211965D01*
X94218585Y-80204553D01*
X94228355Y-80196267D01*
X94248156Y-80164406D01*
X94245467Y-80131177D01*
G37*
X94245467Y-80131177D02*
X94223224Y-80099798D01*
X94195515Y-80072089D01*
X93886080Y-80072089D01*
X93794201Y-80072162D01*
X93722160Y-80072505D01*
X93667220Y-80073308D01*
X93626640Y-80074759D01*
X93597683Y-80077048D01*
X93577609Y-80080364D01*
X93563679Y-80084895D01*
X93553155Y-80090831D01*
X93546900Y-80095486D01*
X93522327Y-80126217D01*
X93519659Y-80161504D01*
X93534729Y-80193755D01*
X93543626Y-80204412D01*
X93555443Y-80211536D01*
X93574474Y-80215833D01*
X93605008Y-80218009D01*
X93651338Y-80218772D01*
X93687129Y-80218845D01*
X93821955Y-80218845D01*
X93821955Y-80715556D01*
X93699300Y-80715556D01*
X93643213Y-80716069D01*
X93604667Y-80718124D01*
X93578639Y-80722492D01*
X93560103Y-80729944D01*
X93546900Y-80738953D01*
X93522396Y-80769856D01*
X93519494Y-80804804D01*
X93536911Y-80838262D01*
X93546041Y-80847396D01*
X93558145Y-80853848D01*
X93576999Y-80858103D01*
X93606380Y-80860648D01*
X93650063Y-80861971D01*
X93711825Y-80862557D01*
X93726000Y-80862625D01*
X93842369Y-80863109D01*
X93938273Y-80863359D01*
X94015823Y-80863277D01*
X94077131Y-80862769D01*
X94124310Y-80861738D01*
X94159470Y-80860087D01*
X94184724Y-80857721D01*
X94202183Y-80854543D01*
X94213959Y-80850456D01*
X94222165Y-80845366D01*
X94228355Y-80839734D01*
X94248156Y-80807872D01*
X94245467Y-80774643D01*
X94223224Y-80743265D01*
X94208874Y-80730567D01*
X94193022Y-80722474D01*
X94170446Y-80717958D01*
X94135922Y-80715994D01*
X94084224Y-80715556D01*
X93968711Y-80715556D01*
X93968711Y-80218845D01*
X94087244Y-80218845D01*
X94141852Y-80218338D01*
X94178725Y-80216302D01*
X94202693Y-80211965D01*
X94218585Y-80204553D01*
X94228355Y-80196267D01*
X94248156Y-80164406D01*
X94245467Y-80131177D01*
G36*
X94250837Y-81396935D02*
G01*
X94250458Y-81318228D01*
X94249667Y-81257137D01*
X94248330Y-81211183D01*
X94246317Y-81177886D01*
X94243494Y-81154764D01*
X94239731Y-81139338D01*
X94234895Y-81129129D01*
X94231178Y-81124187D01*
X94198642Y-81098543D01*
X94164862Y-81095441D01*
X94134174Y-81111289D01*
X94121911Y-81121652D01*
X94113550Y-81132804D01*
X94108343Y-81148965D01*
X94105543Y-81174358D01*
X94104404Y-81213202D01*
X94104179Y-81269720D01*
X94104178Y-81280820D01*
X94104178Y-81426756D01*
X93833244Y-81426756D01*
X93747846Y-81426852D01*
X93682136Y-81427289D01*
X93633226Y-81428288D01*
X93598227Y-81430072D01*
X93574251Y-81432863D01*
X93558407Y-81436883D01*
X93547809Y-81442355D01*
X93539733Y-81449334D01*
X93519888Y-81482266D01*
X93521452Y-81516646D01*
X93544094Y-81547824D01*
X93546900Y-81550114D01*
X93557508Y-81557571D01*
X93569919Y-81563253D01*
X93587150Y-81567399D01*
X93612216Y-81570250D01*
X93648133Y-81572046D01*
X93697917Y-81573028D01*
X93764583Y-81573436D01*
X93840411Y-81573511D01*
X94104178Y-81573511D01*
X94104178Y-81712873D01*
X94104582Y-81772678D01*
X94106160Y-81814082D01*
X94109453Y-81841252D01*
X94115008Y-81858354D01*
X94123369Y-81869557D01*
X94124822Y-81870917D01*
X94158061Y-81887275D01*
X94195638Y-81885828D01*
X94228355Y-81867022D01*
X94234702Y-81859750D01*
X94239734Y-81850373D01*
X94243604Y-81836391D01*
X94246463Y-81815304D01*
X94248465Y-81784611D01*
X94249761Y-81741811D01*
X94250502Y-81684405D01*
X94250842Y-81609890D01*
X94250932Y-81515767D01*
X94250933Y-81495740D01*
X94250837Y-81396935D01*
G37*
X94250837Y-81396935D02*
X94250458Y-81318228D01*
X94249667Y-81257137D01*
X94248330Y-81211183D01*
X94246317Y-81177886D01*
X94243494Y-81154764D01*
X94239731Y-81139338D01*
X94234895Y-81129129D01*
X94231178Y-81124187D01*
X94198642Y-81098543D01*
X94164862Y-81095441D01*
X94134174Y-81111289D01*
X94121911Y-81121652D01*
X94113550Y-81132804D01*
X94108343Y-81148965D01*
X94105543Y-81174358D01*
X94104404Y-81213202D01*
X94104179Y-81269720D01*
X94104178Y-81280820D01*
X94104178Y-81426756D01*
X93833244Y-81426756D01*
X93747846Y-81426852D01*
X93682136Y-81427289D01*
X93633226Y-81428288D01*
X93598227Y-81430072D01*
X93574251Y-81432863D01*
X93558407Y-81436883D01*
X93547809Y-81442355D01*
X93539733Y-81449334D01*
X93519888Y-81482266D01*
X93521452Y-81516646D01*
X93544094Y-81547824D01*
X93546900Y-81550114D01*
X93557508Y-81557571D01*
X93569919Y-81563253D01*
X93587150Y-81567399D01*
X93612216Y-81570250D01*
X93648133Y-81572046D01*
X93697917Y-81573028D01*
X93764583Y-81573436D01*
X93840411Y-81573511D01*
X94104178Y-81573511D01*
X94104178Y-81712873D01*
X94104582Y-81772678D01*
X94106160Y-81814082D01*
X94109453Y-81841252D01*
X94115008Y-81858354D01*
X94123369Y-81869557D01*
X94124822Y-81870917D01*
X94158061Y-81887275D01*
X94195638Y-81885828D01*
X94228355Y-81867022D01*
X94234702Y-81859750D01*
X94239734Y-81850373D01*
X94243604Y-81836391D01*
X94246463Y-81815304D01*
X94248465Y-81784611D01*
X94249761Y-81741811D01*
X94250502Y-81684405D01*
X94250842Y-81609890D01*
X94250932Y-81515767D01*
X94250933Y-81495740D01*
X94250837Y-81396935D01*
G36*
X94244123Y-82171386D02*
G01*
X94229353Y-82147673D01*
X94207773Y-82121022D01*
X93886227Y-82121022D01*
X93792170Y-82121107D01*
X93718068Y-82121471D01*
X93661296Y-82122276D01*
X93619232Y-82123687D01*
X93589252Y-82125867D01*
X93568733Y-82128979D01*
X93555051Y-82133186D01*
X93545584Y-82138652D01*
X93540918Y-82142528D01*
X93520425Y-82173966D01*
X93521261Y-82209767D01*
X93538736Y-82241127D01*
X93560316Y-82267778D01*
X94207773Y-82267778D01*
X94229353Y-82241127D01*
X94245051Y-82215406D01*
X94250933Y-82194400D01*
X94244123Y-82171386D01*
G37*
X94244123Y-82171386D02*
X94229353Y-82147673D01*
X94207773Y-82121022D01*
X93886227Y-82121022D01*
X93792170Y-82121107D01*
X93718068Y-82121471D01*
X93661296Y-82122276D01*
X93619232Y-82123687D01*
X93589252Y-82125867D01*
X93568733Y-82128979D01*
X93555051Y-82133186D01*
X93545584Y-82138652D01*
X93540918Y-82142528D01*
X93520425Y-82173966D01*
X93521261Y-82209767D01*
X93538736Y-82241127D01*
X93560316Y-82267778D01*
X94207773Y-82267778D01*
X94229353Y-82241127D01*
X94245051Y-82215406D01*
X94250933Y-82194400D01*
X94244123Y-82171386D01*
G36*
X94248966Y-82615335D02*
G01*
X94241965Y-82595745D01*
X94241623Y-82594990D01*
X94221322Y-82568387D01*
X94200439Y-82553730D01*
X94190648Y-82550862D01*
X94177639Y-82551004D01*
X94159105Y-82555039D01*
X94132743Y-82563854D01*
X94096248Y-82578331D01*
X94047313Y-82599355D01*
X93983635Y-82627812D01*
X93902907Y-82664585D01*
X93858784Y-82684825D01*
X93780015Y-82721375D01*
X93707577Y-82755685D01*
X93644120Y-82786448D01*
X93592292Y-82812352D01*
X93554741Y-82832090D01*
X93534116Y-82844350D01*
X93531267Y-82846776D01*
X93518698Y-82877817D01*
X93520381Y-82912879D01*
X93535668Y-82941000D01*
X93536911Y-82942146D01*
X93553846Y-82953332D01*
X93586830Y-82972096D01*
X93631620Y-82996125D01*
X93683968Y-83023103D01*
X93703258Y-83032799D01*
X93849850Y-83105986D01*
X93690607Y-83185760D01*
X93635585Y-83214233D01*
X93587868Y-83240650D01*
X93551107Y-83262852D01*
X93528956Y-83278681D01*
X93524259Y-83284046D01*
X93517898Y-83325743D01*
X93531267Y-83360151D01*
X93545554Y-83370272D01*
X93577308Y-83387786D01*
X93623403Y-83411265D01*
X93680715Y-83439280D01*
X93746120Y-83470401D01*
X93816493Y-83503201D01*
X93888709Y-83536250D01*
X93959645Y-83568119D01*
X94026175Y-83597381D01*
X94085174Y-83622605D01*
X94133519Y-83642364D01*
X94168085Y-83655228D01*
X94185747Y-83659769D01*
X94186387Y-83659723D01*
X94208612Y-83648674D01*
X94231247Y-83626590D01*
X94232232Y-83625290D01*
X94247575Y-83598147D01*
X94247426Y-83573042D01*
X94244534Y-83563632D01*
X94238282Y-83552166D01*
X94225986Y-83539990D01*
X94205092Y-83525643D01*
X94173051Y-83507664D01*
X94127312Y-83484593D01*
X94065323Y-83454970D01*
X94008102Y-83428255D01*
X93941774Y-83397520D01*
X93882126Y-83369979D01*
X93832275Y-83347062D01*
X93795336Y-83330202D01*
X93774427Y-83320827D01*
X93771155Y-83319460D01*
X93776503Y-83313311D01*
X93798891Y-83299178D01*
X93835054Y-83278943D01*
X93881723Y-83254485D01*
X93900978Y-83244752D01*
X93965996Y-83211783D01*
X94013346Y-83186357D01*
X94045781Y-83166388D01*
X94066054Y-83149790D01*
X94076918Y-83134476D01*
X94081125Y-83118360D01*
X94081600Y-83107857D01*
X94079958Y-83089330D01*
X94073169Y-83073096D01*
X94058434Y-83056965D01*
X94032956Y-83038749D01*
X93993939Y-83016261D01*
X93938586Y-82987311D01*
X93907097Y-82971338D01*
X93856913Y-82945430D01*
X93815296Y-82922833D01*
X93785758Y-82905542D01*
X93771811Y-82895550D01*
X93771230Y-82894191D01*
X93782207Y-82887739D01*
X93810710Y-82873292D01*
X93853756Y-82852297D01*
X93908362Y-82826203D01*
X93971546Y-82796454D01*
X94002929Y-82781820D01*
X94083922Y-82743750D01*
X94146244Y-82713095D01*
X94191929Y-82688263D01*
X94223011Y-82667663D01*
X94241522Y-82649702D01*
X94249496Y-82632790D01*
X94248966Y-82615335D01*
G37*
X94248966Y-82615335D02*
X94241965Y-82595745D01*
X94241623Y-82594990D01*
X94221322Y-82568387D01*
X94200439Y-82553730D01*
X94190648Y-82550862D01*
X94177639Y-82551004D01*
X94159105Y-82555039D01*
X94132743Y-82563854D01*
X94096248Y-82578331D01*
X94047313Y-82599355D01*
X93983635Y-82627812D01*
X93902907Y-82664585D01*
X93858784Y-82684825D01*
X93780015Y-82721375D01*
X93707577Y-82755685D01*
X93644120Y-82786448D01*
X93592292Y-82812352D01*
X93554741Y-82832090D01*
X93534116Y-82844350D01*
X93531267Y-82846776D01*
X93518698Y-82877817D01*
X93520381Y-82912879D01*
X93535668Y-82941000D01*
X93536911Y-82942146D01*
X93553846Y-82953332D01*
X93586830Y-82972096D01*
X93631620Y-82996125D01*
X93683968Y-83023103D01*
X93703258Y-83032799D01*
X93849850Y-83105986D01*
X93690607Y-83185760D01*
X93635585Y-83214233D01*
X93587868Y-83240650D01*
X93551107Y-83262852D01*
X93528956Y-83278681D01*
X93524259Y-83284046D01*
X93517898Y-83325743D01*
X93531267Y-83360151D01*
X93545554Y-83370272D01*
X93577308Y-83387786D01*
X93623403Y-83411265D01*
X93680715Y-83439280D01*
X93746120Y-83470401D01*
X93816493Y-83503201D01*
X93888709Y-83536250D01*
X93959645Y-83568119D01*
X94026175Y-83597381D01*
X94085174Y-83622605D01*
X94133519Y-83642364D01*
X94168085Y-83655228D01*
X94185747Y-83659769D01*
X94186387Y-83659723D01*
X94208612Y-83648674D01*
X94231247Y-83626590D01*
X94232232Y-83625290D01*
X94247575Y-83598147D01*
X94247426Y-83573042D01*
X94244534Y-83563632D01*
X94238282Y-83552166D01*
X94225986Y-83539990D01*
X94205092Y-83525643D01*
X94173051Y-83507664D01*
X94127312Y-83484593D01*
X94065323Y-83454970D01*
X94008102Y-83428255D01*
X93941774Y-83397520D01*
X93882126Y-83369979D01*
X93832275Y-83347062D01*
X93795336Y-83330202D01*
X93774427Y-83320827D01*
X93771155Y-83319460D01*
X93776503Y-83313311D01*
X93798891Y-83299178D01*
X93835054Y-83278943D01*
X93881723Y-83254485D01*
X93900978Y-83244752D01*
X93965996Y-83211783D01*
X94013346Y-83186357D01*
X94045781Y-83166388D01*
X94066054Y-83149790D01*
X94076918Y-83134476D01*
X94081125Y-83118360D01*
X94081600Y-83107857D01*
X94079958Y-83089330D01*
X94073169Y-83073096D01*
X94058434Y-83056965D01*
X94032956Y-83038749D01*
X93993939Y-83016261D01*
X93938586Y-82987311D01*
X93907097Y-82971338D01*
X93856913Y-82945430D01*
X93815296Y-82922833D01*
X93785758Y-82905542D01*
X93771811Y-82895550D01*
X93771230Y-82894191D01*
X93782207Y-82887739D01*
X93810710Y-82873292D01*
X93853756Y-82852297D01*
X93908362Y-82826203D01*
X93971546Y-82796454D01*
X94002929Y-82781820D01*
X94083922Y-82743750D01*
X94146244Y-82713095D01*
X94191929Y-82688263D01*
X94223011Y-82667663D01*
X94241522Y-82649702D01*
X94249496Y-82632790D01*
X94248966Y-82615335D01*
G36*
X94250725Y-85341691D02*
G01*
X94246364Y-85212712D01*
X94233139Y-85103009D01*
X94210259Y-85010774D01*
X94176930Y-84934198D01*
X94132362Y-84871473D01*
X94075764Y-84820788D01*
X94006342Y-84780337D01*
X94004649Y-84779541D01*
X93942517Y-84755399D01*
X93887491Y-84746797D01*
X93832113Y-84753769D01*
X93768927Y-84776346D01*
X93759311Y-84780628D01*
X93703034Y-84809828D01*
X93659549Y-84842644D01*
X93622583Y-84884998D01*
X93585865Y-84942810D01*
X93583948Y-84946169D01*
X93559773Y-84996496D01*
X93541718Y-85053379D01*
X93529161Y-85120473D01*
X93521478Y-85201435D01*
X93518047Y-85299918D01*
X93517749Y-85334714D01*
X93517155Y-85500406D01*
X93546900Y-85523803D01*
X93556681Y-85530743D01*
X93568103Y-85536158D01*
X93583905Y-85540235D01*
X93606825Y-85543163D01*
X93639604Y-85545133D01*
X93663911Y-85545775D01*
X93663911Y-85389156D01*
X93663911Y-85295274D01*
X93665517Y-85240336D01*
X93669745Y-85183940D01*
X93675708Y-85137655D01*
X93676210Y-85134861D01*
X93698264Y-85052652D01*
X93731400Y-84988886D01*
X93777153Y-84941548D01*
X93837061Y-84908618D01*
X93852939Y-84902892D01*
X93877667Y-84897279D01*
X93902098Y-84899709D01*
X93934600Y-84911533D01*
X93950566Y-84918660D01*
X93992994Y-84942000D01*
X94022760Y-84970120D01*
X94043489Y-85001060D01*
X94070463Y-85063034D01*
X94090002Y-85142349D01*
X94101254Y-85234747D01*
X94103730Y-85301667D01*
X94104178Y-85389156D01*
X93663911Y-85389156D01*
X93663911Y-85545775D01*
X93684979Y-85546332D01*
X93745689Y-85546950D01*
X93824474Y-85547175D01*
X93886080Y-85547200D01*
X94195515Y-85547200D01*
X94223224Y-85519491D01*
X94234456Y-85507194D01*
X94242147Y-85493897D01*
X94246960Y-85475328D01*
X94249554Y-85447214D01*
X94250590Y-85405283D01*
X94250730Y-85345263D01*
X94250725Y-85341691D01*
G37*
X94250725Y-85341691D02*
X94246364Y-85212712D01*
X94233139Y-85103009D01*
X94210259Y-85010774D01*
X94176930Y-84934198D01*
X94132362Y-84871473D01*
X94075764Y-84820788D01*
X94006342Y-84780337D01*
X94004649Y-84779541D01*
X93942517Y-84755399D01*
X93887491Y-84746797D01*
X93832113Y-84753769D01*
X93768927Y-84776346D01*
X93759311Y-84780628D01*
X93703034Y-84809828D01*
X93659549Y-84842644D01*
X93622583Y-84884998D01*
X93585865Y-84942810D01*
X93583948Y-84946169D01*
X93559773Y-84996496D01*
X93541718Y-85053379D01*
X93529161Y-85120473D01*
X93521478Y-85201435D01*
X93518047Y-85299918D01*
X93517749Y-85334714D01*
X93517155Y-85500406D01*
X93546900Y-85523803D01*
X93556681Y-85530743D01*
X93568103Y-85536158D01*
X93583905Y-85540235D01*
X93606825Y-85543163D01*
X93639604Y-85545133D01*
X93663911Y-85545775D01*
X93663911Y-85389156D01*
X93663911Y-85295274D01*
X93665517Y-85240336D01*
X93669745Y-85183940D01*
X93675708Y-85137655D01*
X93676210Y-85134861D01*
X93698264Y-85052652D01*
X93731400Y-84988886D01*
X93777153Y-84941548D01*
X93837061Y-84908618D01*
X93852939Y-84902892D01*
X93877667Y-84897279D01*
X93902098Y-84899709D01*
X93934600Y-84911533D01*
X93950566Y-84918660D01*
X93992994Y-84942000D01*
X94022760Y-84970120D01*
X94043489Y-85001060D01*
X94070463Y-85063034D01*
X94090002Y-85142349D01*
X94101254Y-85234747D01*
X94103730Y-85301667D01*
X94104178Y-85389156D01*
X93663911Y-85389156D01*
X93663911Y-85545775D01*
X93684979Y-85546332D01*
X93745689Y-85546950D01*
X93824474Y-85547175D01*
X93886080Y-85547200D01*
X94195515Y-85547200D01*
X94223224Y-85519491D01*
X94234456Y-85507194D01*
X94242147Y-85493897D01*
X94246960Y-85475328D01*
X94249554Y-85447214D01*
X94250590Y-85405283D01*
X94250730Y-85345263D01*
X94250725Y-85341691D01*
G36*
X94250740Y-86129657D02*
G01*
X94249826Y-86053299D01*
X94247689Y-85994783D01*
X94243825Y-85951745D01*
X94237733Y-85921817D01*
X94228910Y-85902632D01*
X94216854Y-85891824D01*
X94201061Y-85887027D01*
X94181030Y-85885873D01*
X94178665Y-85885867D01*
X94156008Y-85886869D01*
X94138497Y-85891604D01*
X94125426Y-85902667D01*
X94116087Y-85922652D01*
X94109773Y-85954154D01*
X94105778Y-85999768D01*
X94103394Y-86062087D01*
X94101914Y-86143707D01*
X94101586Y-86168723D01*
X94098533Y-86410800D01*
X94033622Y-86414186D01*
X93968711Y-86417571D01*
X93968711Y-86249424D01*
X93968469Y-86183734D01*
X93967444Y-86136828D01*
X93965189Y-86104917D01*
X93961258Y-86084209D01*
X93955202Y-86070916D01*
X93946576Y-86061245D01*
X93946507Y-86061183D01*
X93912888Y-86043644D01*
X93876552Y-86044278D01*
X93845577Y-86062686D01*
X93842393Y-86066329D01*
X93834188Y-86079259D01*
X93828479Y-86096976D01*
X93824838Y-86123430D01*
X93822833Y-86162568D01*
X93822036Y-86218338D01*
X93821955Y-86254006D01*
X93821955Y-86416445D01*
X93663911Y-86416445D01*
X93663911Y-86169839D01*
X93663769Y-86088420D01*
X93663186Y-86026590D01*
X93661932Y-85981363D01*
X93659773Y-85949752D01*
X93656477Y-85928769D01*
X93651811Y-85915427D01*
X93645543Y-85906739D01*
X93643267Y-85904550D01*
X93611720Y-85888386D01*
X93575832Y-85887203D01*
X93544715Y-85900464D01*
X93534729Y-85910957D01*
X93529231Y-85921871D01*
X93524978Y-85938783D01*
X93521820Y-85964367D01*
X93519608Y-86001299D01*
X93518194Y-86052254D01*
X93517428Y-86119906D01*
X93517162Y-86206931D01*
X93517155Y-86226606D01*
X93517213Y-86315089D01*
X93517533Y-86383773D01*
X93518333Y-86435436D01*
X93519833Y-86472855D01*
X93522251Y-86498810D01*
X93525806Y-86516078D01*
X93530718Y-86527438D01*
X93537205Y-86535668D01*
X93541862Y-86540183D01*
X93550111Y-86546979D01*
X93560331Y-86552288D01*
X93575200Y-86556294D01*
X93597398Y-86559179D01*
X93629607Y-86561126D01*
X93674504Y-86562319D01*
X93734772Y-86562939D01*
X93813089Y-86563171D01*
X93879006Y-86563200D01*
X93971372Y-86563129D01*
X94043883Y-86562792D01*
X94099263Y-86562002D01*
X94140235Y-86560574D01*
X94169522Y-86558321D01*
X94189847Y-86555057D01*
X94203934Y-86550596D01*
X94214505Y-86544752D01*
X94221189Y-86539803D01*
X94250933Y-86516406D01*
X94250933Y-86226226D01*
X94250740Y-86129657D01*
G37*
X94250740Y-86129657D02*
X94249826Y-86053299D01*
X94247689Y-85994783D01*
X94243825Y-85951745D01*
X94237733Y-85921817D01*
X94228910Y-85902632D01*
X94216854Y-85891824D01*
X94201061Y-85887027D01*
X94181030Y-85885873D01*
X94178665Y-85885867D01*
X94156008Y-85886869D01*
X94138497Y-85891604D01*
X94125426Y-85902667D01*
X94116087Y-85922652D01*
X94109773Y-85954154D01*
X94105778Y-85999768D01*
X94103394Y-86062087D01*
X94101914Y-86143707D01*
X94101586Y-86168723D01*
X94098533Y-86410800D01*
X94033622Y-86414186D01*
X93968711Y-86417571D01*
X93968711Y-86249424D01*
X93968469Y-86183734D01*
X93967444Y-86136828D01*
X93965189Y-86104917D01*
X93961258Y-86084209D01*
X93955202Y-86070916D01*
X93946576Y-86061245D01*
X93946507Y-86061183D01*
X93912888Y-86043644D01*
X93876552Y-86044278D01*
X93845577Y-86062686D01*
X93842393Y-86066329D01*
X93834188Y-86079259D01*
X93828479Y-86096976D01*
X93824838Y-86123430D01*
X93822833Y-86162568D01*
X93822036Y-86218338D01*
X93821955Y-86254006D01*
X93821955Y-86416445D01*
X93663911Y-86416445D01*
X93663911Y-86169839D01*
X93663769Y-86088420D01*
X93663186Y-86026590D01*
X93661932Y-85981363D01*
X93659773Y-85949752D01*
X93656477Y-85928769D01*
X93651811Y-85915427D01*
X93645543Y-85906739D01*
X93643267Y-85904550D01*
X93611720Y-85888386D01*
X93575832Y-85887203D01*
X93544715Y-85900464D01*
X93534729Y-85910957D01*
X93529231Y-85921871D01*
X93524978Y-85938783D01*
X93521820Y-85964367D01*
X93519608Y-86001299D01*
X93518194Y-86052254D01*
X93517428Y-86119906D01*
X93517162Y-86206931D01*
X93517155Y-86226606D01*
X93517213Y-86315089D01*
X93517533Y-86383773D01*
X93518333Y-86435436D01*
X93519833Y-86472855D01*
X93522251Y-86498810D01*
X93525806Y-86516078D01*
X93530718Y-86527438D01*
X93537205Y-86535668D01*
X93541862Y-86540183D01*
X93550111Y-86546979D01*
X93560331Y-86552288D01*
X93575200Y-86556294D01*
X93597398Y-86559179D01*
X93629607Y-86561126D01*
X93674504Y-86562319D01*
X93734772Y-86562939D01*
X93813089Y-86563171D01*
X93879006Y-86563200D01*
X93971372Y-86563129D01*
X94043883Y-86562792D01*
X94099263Y-86562002D01*
X94140235Y-86560574D01*
X94169522Y-86558321D01*
X94189847Y-86555057D01*
X94203934Y-86550596D01*
X94214505Y-86544752D01*
X94221189Y-86539803D01*
X94250933Y-86516406D01*
X94250933Y-86226226D01*
X94250740Y-86129657D01*
G36*
X94246552Y-87660114D02*
G01*
X94232727Y-87636548D01*
X94210119Y-87605735D01*
X94177662Y-87566078D01*
X94134292Y-87515980D01*
X94078942Y-87453843D01*
X94010549Y-87378072D01*
X93931916Y-87291334D01*
X93768122Y-87110711D01*
X93987971Y-87105067D01*
X94063649Y-87103029D01*
X94120006Y-87101063D01*
X94160294Y-87098734D01*
X94187765Y-87095606D01*
X94205671Y-87091245D01*
X94217263Y-87085216D01*
X94225792Y-87077084D01*
X94229377Y-87072772D01*
X94248330Y-87038241D01*
X94245559Y-87005383D01*
X94229367Y-86979318D01*
X94207801Y-86952667D01*
X93892849Y-86949352D01*
X93800221Y-86948435D01*
X93727456Y-86947968D01*
X93671839Y-86948113D01*
X93630658Y-86949032D01*
X93601197Y-86950887D01*
X93580745Y-86953839D01*
X93566587Y-86958050D01*
X93556009Y-86963682D01*
X93547526Y-86969927D01*
X93531793Y-86983439D01*
X93521364Y-86996883D01*
X93517361Y-87012124D01*
X93520906Y-87031026D01*
X93533121Y-87055455D01*
X93555129Y-87087273D01*
X93588051Y-87128348D01*
X93633009Y-87180542D01*
X93691125Y-87245722D01*
X93757901Y-87319556D01*
X93998542Y-87584845D01*
X93779411Y-87590489D01*
X93703872Y-87592531D01*
X93647646Y-87594502D01*
X93607476Y-87596839D01*
X93580104Y-87599981D01*
X93562272Y-87604364D01*
X93550721Y-87610424D01*
X93542193Y-87618600D01*
X93538718Y-87622784D01*
X93519628Y-87659765D01*
X93522507Y-87694708D01*
X93546900Y-87725136D01*
X93556714Y-87732097D01*
X93568174Y-87737523D01*
X93584032Y-87741603D01*
X93607037Y-87744529D01*
X93639938Y-87746492D01*
X93685484Y-87747683D01*
X93746427Y-87748292D01*
X93825514Y-87748511D01*
X93884044Y-87748534D01*
X93975593Y-87748460D01*
X94047313Y-87748113D01*
X94101955Y-87747301D01*
X94142268Y-87745833D01*
X94171002Y-87743519D01*
X94190907Y-87740167D01*
X94204732Y-87735588D01*
X94215228Y-87729589D01*
X94221189Y-87725136D01*
X94235309Y-87713850D01*
X94245971Y-87703301D01*
X94252108Y-87691893D01*
X94252657Y-87678030D01*
X94246552Y-87660114D01*
G37*
X94246552Y-87660114D02*
X94232727Y-87636548D01*
X94210119Y-87605735D01*
X94177662Y-87566078D01*
X94134292Y-87515980D01*
X94078942Y-87453843D01*
X94010549Y-87378072D01*
X93931916Y-87291334D01*
X93768122Y-87110711D01*
X93987971Y-87105067D01*
X94063649Y-87103029D01*
X94120006Y-87101063D01*
X94160294Y-87098734D01*
X94187765Y-87095606D01*
X94205671Y-87091245D01*
X94217263Y-87085216D01*
X94225792Y-87077084D01*
X94229377Y-87072772D01*
X94248330Y-87038241D01*
X94245559Y-87005383D01*
X94229367Y-86979318D01*
X94207801Y-86952667D01*
X93892849Y-86949352D01*
X93800221Y-86948435D01*
X93727456Y-86947968D01*
X93671839Y-86948113D01*
X93630658Y-86949032D01*
X93601197Y-86950887D01*
X93580745Y-86953839D01*
X93566587Y-86958050D01*
X93556009Y-86963682D01*
X93547526Y-86969927D01*
X93531793Y-86983439D01*
X93521364Y-86996883D01*
X93517361Y-87012124D01*
X93520906Y-87031026D01*
X93533121Y-87055455D01*
X93555129Y-87087273D01*
X93588051Y-87128348D01*
X93633009Y-87180542D01*
X93691125Y-87245722D01*
X93757901Y-87319556D01*
X93998542Y-87584845D01*
X93779411Y-87590489D01*
X93703872Y-87592531D01*
X93647646Y-87594502D01*
X93607476Y-87596839D01*
X93580104Y-87599981D01*
X93562272Y-87604364D01*
X93550721Y-87610424D01*
X93542193Y-87618600D01*
X93538718Y-87622784D01*
X93519628Y-87659765D01*
X93522507Y-87694708D01*
X93546900Y-87725136D01*
X93556714Y-87732097D01*
X93568174Y-87737523D01*
X93584032Y-87741603D01*
X93607037Y-87744529D01*
X93639938Y-87746492D01*
X93685484Y-87747683D01*
X93746427Y-87748292D01*
X93825514Y-87748511D01*
X93884044Y-87748534D01*
X93975593Y-87748460D01*
X94047313Y-87748113D01*
X94101955Y-87747301D01*
X94142268Y-87745833D01*
X94171002Y-87743519D01*
X94190907Y-87740167D01*
X94204732Y-87735588D01*
X94215228Y-87729589D01*
X94221189Y-87725136D01*
X94235309Y-87713850D01*
X94245971Y-87703301D01*
X94252108Y-87691893D01*
X94252657Y-87678030D01*
X94246552Y-87660114D01*
G36*
X94245401Y-88310081D02*
G01*
X94233905Y-88241565D01*
X94216033Y-88188943D01*
X94192501Y-88154708D01*
X94179076Y-88145379D01*
X94147852Y-88135893D01*
X94119605Y-88142277D01*
X94092818Y-88162430D01*
X94080287Y-88193745D01*
X94081304Y-88239183D01*
X94088094Y-88274326D01*
X94101029Y-88352419D01*
X94102258Y-88432226D01*
X94091759Y-88521555D01*
X94087310Y-88546229D01*
X94063892Y-88629291D01*
X94029055Y-88694273D01*
X93983396Y-88740461D01*
X93927506Y-88767145D01*
X93898612Y-88772663D01*
X93839988Y-88769051D01*
X93788121Y-88745729D01*
X93744022Y-88704824D01*
X93708701Y-88648459D01*
X93683171Y-88578760D01*
X93668441Y-88497852D01*
X93665522Y-88407860D01*
X93675425Y-88310910D01*
X93676359Y-88305436D01*
X93683541Y-88266875D01*
X93690479Y-88245494D01*
X93700773Y-88236227D01*
X93718024Y-88234006D01*
X93727159Y-88233956D01*
X93765511Y-88233956D01*
X93765511Y-88302431D01*
X93769653Y-88362900D01*
X93782853Y-88404165D01*
X93806270Y-88428175D01*
X93841064Y-88436877D01*
X93845606Y-88436983D01*
X93875346Y-88431892D01*
X93896581Y-88414433D01*
X93910634Y-88381939D01*
X93918827Y-88331743D01*
X93921839Y-88283123D01*
X93923567Y-88212456D01*
X93920930Y-88161198D01*
X93911200Y-88126239D01*
X93891647Y-88104470D01*
X93859544Y-88092780D01*
X93812162Y-88088060D01*
X93749929Y-88087200D01*
X93680465Y-88088609D01*
X93633214Y-88092848D01*
X93607988Y-88099936D01*
X93606012Y-88101311D01*
X93574492Y-88140228D01*
X93549530Y-88197286D01*
X93531660Y-88268869D01*
X93521414Y-88351358D01*
X93519327Y-88441139D01*
X93525932Y-88534592D01*
X93534044Y-88589556D01*
X93558446Y-88675766D01*
X93598338Y-88755892D01*
X93650113Y-88822977D01*
X93660461Y-88833173D01*
X93703965Y-88866302D01*
X93757882Y-88896194D01*
X93814408Y-88919357D01*
X93865741Y-88932298D01*
X93885456Y-88933858D01*
X93926581Y-88927218D01*
X93977748Y-88909568D01*
X94031606Y-88884297D01*
X94080805Y-88854789D01*
X94113666Y-88828719D01*
X94162548Y-88767765D01*
X94201455Y-88688969D01*
X94229506Y-88595157D01*
X94245821Y-88489150D01*
X94249808Y-88392000D01*
X94245401Y-88310081D01*
G37*
X94245401Y-88310081D02*
X94233905Y-88241565D01*
X94216033Y-88188943D01*
X94192501Y-88154708D01*
X94179076Y-88145379D01*
X94147852Y-88135893D01*
X94119605Y-88142277D01*
X94092818Y-88162430D01*
X94080287Y-88193745D01*
X94081304Y-88239183D01*
X94088094Y-88274326D01*
X94101029Y-88352419D01*
X94102258Y-88432226D01*
X94091759Y-88521555D01*
X94087310Y-88546229D01*
X94063892Y-88629291D01*
X94029055Y-88694273D01*
X93983396Y-88740461D01*
X93927506Y-88767145D01*
X93898612Y-88772663D01*
X93839988Y-88769051D01*
X93788121Y-88745729D01*
X93744022Y-88704824D01*
X93708701Y-88648459D01*
X93683171Y-88578760D01*
X93668441Y-88497852D01*
X93665522Y-88407860D01*
X93675425Y-88310910D01*
X93676359Y-88305436D01*
X93683541Y-88266875D01*
X93690479Y-88245494D01*
X93700773Y-88236227D01*
X93718024Y-88234006D01*
X93727159Y-88233956D01*
X93765511Y-88233956D01*
X93765511Y-88302431D01*
X93769653Y-88362900D01*
X93782853Y-88404165D01*
X93806270Y-88428175D01*
X93841064Y-88436877D01*
X93845606Y-88436983D01*
X93875346Y-88431892D01*
X93896581Y-88414433D01*
X93910634Y-88381939D01*
X93918827Y-88331743D01*
X93921839Y-88283123D01*
X93923567Y-88212456D01*
X93920930Y-88161198D01*
X93911200Y-88126239D01*
X93891647Y-88104470D01*
X93859544Y-88092780D01*
X93812162Y-88088060D01*
X93749929Y-88087200D01*
X93680465Y-88088609D01*
X93633214Y-88092848D01*
X93607988Y-88099936D01*
X93606012Y-88101311D01*
X93574492Y-88140228D01*
X93549530Y-88197286D01*
X93531660Y-88268869D01*
X93521414Y-88351358D01*
X93519327Y-88441139D01*
X93525932Y-88534592D01*
X93534044Y-88589556D01*
X93558446Y-88675766D01*
X93598338Y-88755892D01*
X93650113Y-88822977D01*
X93660461Y-88833173D01*
X93703965Y-88866302D01*
X93757882Y-88896194D01*
X93814408Y-88919357D01*
X93865741Y-88932298D01*
X93885456Y-88933858D01*
X93926581Y-88927218D01*
X93977748Y-88909568D01*
X94031606Y-88884297D01*
X94080805Y-88854789D01*
X94113666Y-88828719D01*
X94162548Y-88767765D01*
X94201455Y-88688969D01*
X94229506Y-88595157D01*
X94245821Y-88489150D01*
X94249808Y-88392000D01*
X94245401Y-88310081D01*
G36*
X94228355Y-89283822D02*
G01*
X94220782Y-89277242D01*
X94211013Y-89272079D01*
X94196429Y-89268164D01*
X94174415Y-89265324D01*
X94142352Y-89263387D01*
X94097625Y-89262183D01*
X94037615Y-89261539D01*
X93959706Y-89261284D01*
X93884044Y-89261245D01*
X93790198Y-89261314D01*
X93716311Y-89261638D01*
X93659768Y-89262386D01*
X93617951Y-89263732D01*
X93588243Y-89265846D01*
X93568027Y-89268900D01*
X93554686Y-89273066D01*
X93545602Y-89278516D01*
X93539733Y-89283822D01*
X93520053Y-89316826D01*
X93521819Y-89351991D01*
X93543283Y-89383455D01*
X93551663Y-89390684D01*
X93561386Y-89396334D01*
X93575139Y-89400599D01*
X93595611Y-89403673D01*
X93625488Y-89405752D01*
X93667459Y-89407030D01*
X93724211Y-89407701D01*
X93798433Y-89407959D01*
X93882463Y-89408000D01*
X94195515Y-89408000D01*
X94223224Y-89380291D01*
X94246537Y-89346137D01*
X94247377Y-89313006D01*
X94228355Y-89283822D01*
G37*
X94228355Y-89283822D02*
X94220782Y-89277242D01*
X94211013Y-89272079D01*
X94196429Y-89268164D01*
X94174415Y-89265324D01*
X94142352Y-89263387D01*
X94097625Y-89262183D01*
X94037615Y-89261539D01*
X93959706Y-89261284D01*
X93884044Y-89261245D01*
X93790198Y-89261314D01*
X93716311Y-89261638D01*
X93659768Y-89262386D01*
X93617951Y-89263732D01*
X93588243Y-89265846D01*
X93568027Y-89268900D01*
X93554686Y-89273066D01*
X93545602Y-89278516D01*
X93539733Y-89283822D01*
X93520053Y-89316826D01*
X93521819Y-89351991D01*
X93543283Y-89383455D01*
X93551663Y-89390684D01*
X93561386Y-89396334D01*
X93575139Y-89400599D01*
X93595611Y-89403673D01*
X93625488Y-89405752D01*
X93667459Y-89407030D01*
X93724211Y-89407701D01*
X93798433Y-89407959D01*
X93882463Y-89408000D01*
X94195515Y-89408000D01*
X94223224Y-89380291D01*
X94246537Y-89346137D01*
X94247377Y-89313006D01*
X94228355Y-89283822D01*
G36*
X94249649Y-90051703D02*
G01*
X94244419Y-89976888D01*
X94236250Y-89907306D01*
X94225450Y-89847002D01*
X94212327Y-89800020D01*
X94197187Y-89770406D01*
X94192731Y-89765860D01*
X94158150Y-89750054D01*
X94122649Y-89754847D01*
X94092275Y-89779364D01*
X94091404Y-89780534D01*
X94082046Y-89794954D01*
X94077124Y-89810008D01*
X94076527Y-89831005D01*
X94080139Y-89863257D01*
X94087846Y-89912073D01*
X94088495Y-89916000D01*
X94097431Y-89988739D01*
X94101839Y-90067217D01*
X94101881Y-90145927D01*
X94097721Y-90219361D01*
X94089521Y-90282011D01*
X94077443Y-90328370D01*
X94076229Y-90331416D01*
X94057385Y-90365048D01*
X94038315Y-90376864D01*
X94019561Y-90367614D01*
X94001663Y-90338047D01*
X93985163Y-90288911D01*
X93970604Y-90220957D01*
X93963594Y-90175645D01*
X93950111Y-90081456D01*
X93937786Y-90006544D01*
X93925551Y-89947717D01*
X93912339Y-89901785D01*
X93897083Y-89865555D01*
X93878715Y-89835838D01*
X93856169Y-89809442D01*
X93834029Y-89788230D01*
X93803181Y-89763065D01*
X93776655Y-89750681D01*
X93743974Y-89746808D01*
X93732005Y-89746667D01*
X93692288Y-89749576D01*
X93662741Y-89761202D01*
X93636514Y-89781323D01*
X93596424Y-89822216D01*
X93565851Y-89867817D01*
X93543797Y-89921513D01*
X93529265Y-89986692D01*
X93521259Y-90066744D01*
X93518782Y-90165057D01*
X93518823Y-90181289D01*
X93520182Y-90246849D01*
X93523270Y-90311866D01*
X93527644Y-90369252D01*
X93532860Y-90411922D01*
X93533459Y-90415372D01*
X93543509Y-90457796D01*
X93556204Y-90493780D01*
X93567810Y-90514150D01*
X93598428Y-90533107D01*
X93634082Y-90534427D01*
X93665856Y-90518085D01*
X93669449Y-90514429D01*
X93680124Y-90499315D01*
X93684724Y-90480415D01*
X93683941Y-90451162D01*
X93679873Y-90415651D01*
X93676238Y-90375970D01*
X93673172Y-90320345D01*
X93670947Y-90255406D01*
X93669836Y-90187785D01*
X93669763Y-90170000D01*
X93670036Y-90102128D01*
X93671354Y-90052454D01*
X93674173Y-90016610D01*
X93678950Y-89990224D01*
X93686143Y-89968926D01*
X93692133Y-89956126D01*
X93708767Y-89928000D01*
X93723832Y-89910068D01*
X93728103Y-89907447D01*
X93745737Y-89912976D01*
X93762808Y-89939260D01*
X93778542Y-89984478D01*
X93792162Y-90046808D01*
X93795196Y-90065171D01*
X93810262Y-90161090D01*
X93822854Y-90237641D01*
X93833889Y-90297780D01*
X93844280Y-90344460D01*
X93854944Y-90380637D01*
X93866795Y-90409265D01*
X93880749Y-90433298D01*
X93897719Y-90455692D01*
X93918622Y-90479402D01*
X93925951Y-90487380D01*
X93953301Y-90515353D01*
X93974971Y-90530160D01*
X93999768Y-90535952D01*
X94031017Y-90536889D01*
X94092295Y-90526575D01*
X94144360Y-90495752D01*
X94187042Y-90444595D01*
X94220175Y-90373283D01*
X94235036Y-90322400D01*
X94244634Y-90267100D01*
X94250064Y-90200853D01*
X94251633Y-90127706D01*
X94249649Y-90051703D01*
G37*
X94249649Y-90051703D02*
X94244419Y-89976888D01*
X94236250Y-89907306D01*
X94225450Y-89847002D01*
X94212327Y-89800020D01*
X94197187Y-89770406D01*
X94192731Y-89765860D01*
X94158150Y-89750054D01*
X94122649Y-89754847D01*
X94092275Y-89779364D01*
X94091404Y-89780534D01*
X94082046Y-89794954D01*
X94077124Y-89810008D01*
X94076527Y-89831005D01*
X94080139Y-89863257D01*
X94087846Y-89912073D01*
X94088495Y-89916000D01*
X94097431Y-89988739D01*
X94101839Y-90067217D01*
X94101881Y-90145927D01*
X94097721Y-90219361D01*
X94089521Y-90282011D01*
X94077443Y-90328370D01*
X94076229Y-90331416D01*
X94057385Y-90365048D01*
X94038315Y-90376864D01*
X94019561Y-90367614D01*
X94001663Y-90338047D01*
X93985163Y-90288911D01*
X93970604Y-90220957D01*
X93963594Y-90175645D01*
X93950111Y-90081456D01*
X93937786Y-90006544D01*
X93925551Y-89947717D01*
X93912339Y-89901785D01*
X93897083Y-89865555D01*
X93878715Y-89835838D01*
X93856169Y-89809442D01*
X93834029Y-89788230D01*
X93803181Y-89763065D01*
X93776655Y-89750681D01*
X93743974Y-89746808D01*
X93732005Y-89746667D01*
X93692288Y-89749576D01*
X93662741Y-89761202D01*
X93636514Y-89781323D01*
X93596424Y-89822216D01*
X93565851Y-89867817D01*
X93543797Y-89921513D01*
X93529265Y-89986692D01*
X93521259Y-90066744D01*
X93518782Y-90165057D01*
X93518823Y-90181289D01*
X93520182Y-90246849D01*
X93523270Y-90311866D01*
X93527644Y-90369252D01*
X93532860Y-90411922D01*
X93533459Y-90415372D01*
X93543509Y-90457796D01*
X93556204Y-90493780D01*
X93567810Y-90514150D01*
X93598428Y-90533107D01*
X93634082Y-90534427D01*
X93665856Y-90518085D01*
X93669449Y-90514429D01*
X93680124Y-90499315D01*
X93684724Y-90480415D01*
X93683941Y-90451162D01*
X93679873Y-90415651D01*
X93676238Y-90375970D01*
X93673172Y-90320345D01*
X93670947Y-90255406D01*
X93669836Y-90187785D01*
X93669763Y-90170000D01*
X93670036Y-90102128D01*
X93671354Y-90052454D01*
X93674173Y-90016610D01*
X93678950Y-89990224D01*
X93686143Y-89968926D01*
X93692133Y-89956126D01*
X93708767Y-89928000D01*
X93723832Y-89910068D01*
X93728103Y-89907447D01*
X93745737Y-89912976D01*
X93762808Y-89939260D01*
X93778542Y-89984478D01*
X93792162Y-90046808D01*
X93795196Y-90065171D01*
X93810262Y-90161090D01*
X93822854Y-90237641D01*
X93833889Y-90297780D01*
X93844280Y-90344460D01*
X93854944Y-90380637D01*
X93866795Y-90409265D01*
X93880749Y-90433298D01*
X93897719Y-90455692D01*
X93918622Y-90479402D01*
X93925951Y-90487380D01*
X93953301Y-90515353D01*
X93974971Y-90530160D01*
X93999768Y-90535952D01*
X94031017Y-90536889D01*
X94092295Y-90526575D01*
X94144360Y-90495752D01*
X94187042Y-90444595D01*
X94220175Y-90373283D01*
X94235036Y-90322400D01*
X94244634Y-90267100D01*
X94250064Y-90200853D01*
X94251633Y-90127706D01*
X94249649Y-90051703D01*
G36*
X94250854Y-91072794D02*
G01*
X94250482Y-91003386D01*
X94249615Y-90950997D01*
X94248054Y-90912847D01*
X94245597Y-90886159D01*
X94242043Y-90868153D01*
X94237190Y-90856049D01*
X94230839Y-90847069D01*
X94227916Y-90843818D01*
X94196858Y-90824043D01*
X94161172Y-90820482D01*
X94129490Y-90833491D01*
X94123087Y-90839506D01*
X94116879Y-90849235D01*
X94112090Y-90864901D01*
X94108486Y-90889408D01*
X94105836Y-90925661D01*
X94103905Y-90976565D01*
X94102461Y-91045026D01*
X94101582Y-91107617D01*
X94098533Y-91355334D01*
X94033622Y-91358719D01*
X93968711Y-91362105D01*
X93968711Y-91193958D01*
X93968081Y-91120959D01*
X93965447Y-91067517D01*
X93959691Y-91030628D01*
X93949696Y-91007288D01*
X93934344Y-90994494D01*
X93912518Y-90989242D01*
X93892262Y-90988445D01*
X93867408Y-90990923D01*
X93849094Y-91000277D01*
X93836363Y-91019383D01*
X93828259Y-91051118D01*
X93823824Y-91098359D01*
X93822101Y-91163983D01*
X93821955Y-91199801D01*
X93821955Y-91360978D01*
X93663911Y-91360978D01*
X93663911Y-91112622D01*
X93663798Y-91031213D01*
X93663288Y-90969342D01*
X93662130Y-90923968D01*
X93660070Y-90892054D01*
X93656854Y-90870559D01*
X93652228Y-90856443D01*
X93645941Y-90846668D01*
X93641333Y-90841689D01*
X93614440Y-90824610D01*
X93590533Y-90819111D01*
X93561333Y-90826963D01*
X93539733Y-90841689D01*
X93532934Y-90849546D01*
X93527654Y-90859688D01*
X93523702Y-90874844D01*
X93520887Y-90897741D01*
X93519018Y-90931109D01*
X93517902Y-90977675D01*
X93517349Y-91040167D01*
X93517167Y-91121314D01*
X93517155Y-91163422D01*
X93517235Y-91253598D01*
X93517602Y-91323924D01*
X93518448Y-91377129D01*
X93519964Y-91415940D01*
X93522341Y-91443087D01*
X93525771Y-91461298D01*
X93530446Y-91473300D01*
X93536556Y-91481822D01*
X93539733Y-91485156D01*
X93547330Y-91491755D01*
X93557130Y-91496927D01*
X93571761Y-91500846D01*
X93593848Y-91503684D01*
X93626018Y-91505615D01*
X93670897Y-91506812D01*
X93731111Y-91507448D01*
X93809287Y-91507697D01*
X93882077Y-91507734D01*
X93975293Y-91507700D01*
X94048569Y-91507465D01*
X94104542Y-91506830D01*
X94145849Y-91505594D01*
X94175128Y-91503556D01*
X94195016Y-91500517D01*
X94208150Y-91496277D01*
X94217168Y-91490635D01*
X94224707Y-91483391D01*
X94226388Y-91481606D01*
X94233828Y-91472945D01*
X94239591Y-91462882D01*
X94243888Y-91448625D01*
X94246936Y-91427383D01*
X94248949Y-91396364D01*
X94250140Y-91352777D01*
X94250725Y-91293831D01*
X94250917Y-91216734D01*
X94250933Y-91162001D01*
X94250854Y-91072794D01*
G37*
X94250854Y-91072794D02*
X94250482Y-91003386D01*
X94249615Y-90950997D01*
X94248054Y-90912847D01*
X94245597Y-90886159D01*
X94242043Y-90868153D01*
X94237190Y-90856049D01*
X94230839Y-90847069D01*
X94227916Y-90843818D01*
X94196858Y-90824043D01*
X94161172Y-90820482D01*
X94129490Y-90833491D01*
X94123087Y-90839506D01*
X94116879Y-90849235D01*
X94112090Y-90864901D01*
X94108486Y-90889408D01*
X94105836Y-90925661D01*
X94103905Y-90976565D01*
X94102461Y-91045026D01*
X94101582Y-91107617D01*
X94098533Y-91355334D01*
X94033622Y-91358719D01*
X93968711Y-91362105D01*
X93968711Y-91193958D01*
X93968081Y-91120959D01*
X93965447Y-91067517D01*
X93959691Y-91030628D01*
X93949696Y-91007288D01*
X93934344Y-90994494D01*
X93912518Y-90989242D01*
X93892262Y-90988445D01*
X93867408Y-90990923D01*
X93849094Y-91000277D01*
X93836363Y-91019383D01*
X93828259Y-91051118D01*
X93823824Y-91098359D01*
X93822101Y-91163983D01*
X93821955Y-91199801D01*
X93821955Y-91360978D01*
X93663911Y-91360978D01*
X93663911Y-91112622D01*
X93663798Y-91031213D01*
X93663288Y-90969342D01*
X93662130Y-90923968D01*
X93660070Y-90892054D01*
X93656854Y-90870559D01*
X93652228Y-90856443D01*
X93645941Y-90846668D01*
X93641333Y-90841689D01*
X93614440Y-90824610D01*
X93590533Y-90819111D01*
X93561333Y-90826963D01*
X93539733Y-90841689D01*
X93532934Y-90849546D01*
X93527654Y-90859688D01*
X93523702Y-90874844D01*
X93520887Y-90897741D01*
X93519018Y-90931109D01*
X93517902Y-90977675D01*
X93517349Y-91040167D01*
X93517167Y-91121314D01*
X93517155Y-91163422D01*
X93517235Y-91253598D01*
X93517602Y-91323924D01*
X93518448Y-91377129D01*
X93519964Y-91415940D01*
X93522341Y-91443087D01*
X93525771Y-91461298D01*
X93530446Y-91473300D01*
X93536556Y-91481822D01*
X93539733Y-91485156D01*
X93547330Y-91491755D01*
X93557130Y-91496927D01*
X93571761Y-91500846D01*
X93593848Y-91503684D01*
X93626018Y-91505615D01*
X93670897Y-91506812D01*
X93731111Y-91507448D01*
X93809287Y-91507697D01*
X93882077Y-91507734D01*
X93975293Y-91507700D01*
X94048569Y-91507465D01*
X94104542Y-91506830D01*
X94145849Y-91505594D01*
X94175128Y-91503556D01*
X94195016Y-91500517D01*
X94208150Y-91496277D01*
X94217168Y-91490635D01*
X94224707Y-91483391D01*
X94226388Y-91481606D01*
X94233828Y-91472945D01*
X94239591Y-91462882D01*
X94243888Y-91448625D01*
X94246936Y-91427383D01*
X94248949Y-91396364D01*
X94250140Y-91352777D01*
X94250725Y-91293831D01*
X94250917Y-91216734D01*
X94250933Y-91162001D01*
X94250854Y-91072794D01*
G36*
X94250934Y-92481371D02*
G01*
X94250533Y-92441889D01*
X94247741Y-92326200D01*
X94239450Y-92229311D01*
X94224768Y-92147919D01*
X94202807Y-92078723D01*
X94172678Y-92018420D01*
X94133490Y-91963708D01*
X94116468Y-91944167D01*
X94076637Y-91911750D01*
X94022587Y-91882520D01*
X93962677Y-91859991D01*
X93905261Y-91847679D01*
X93884044Y-91846400D01*
X93825231Y-91854417D01*
X93760987Y-91875899D01*
X93700179Y-91906999D01*
X93651670Y-91943866D01*
X93645818Y-91949854D01*
X93604679Y-92000579D01*
X93572565Y-92056125D01*
X93548635Y-92119696D01*
X93532047Y-92194494D01*
X93521959Y-92283722D01*
X93517531Y-92390582D01*
X93517155Y-92439528D01*
X93517455Y-92501762D01*
X93518708Y-92545528D01*
X93521446Y-92574931D01*
X93526199Y-92594079D01*
X93533499Y-92607077D01*
X93539733Y-92614045D01*
X93547306Y-92620626D01*
X93557076Y-92625788D01*
X93571660Y-92629703D01*
X93593674Y-92632543D01*
X93625736Y-92634480D01*
X93670464Y-92635684D01*
X93730474Y-92636328D01*
X93808383Y-92636583D01*
X93884044Y-92636622D01*
X93984959Y-92636870D01*
X94065573Y-92636817D01*
X94104178Y-92635857D01*
X94104178Y-92489867D01*
X93663911Y-92489867D01*
X93663996Y-92396734D01*
X93665604Y-92340693D01*
X93669744Y-92281999D01*
X93675536Y-92233028D01*
X93675774Y-92231538D01*
X93694910Y-92152392D01*
X93724713Y-92091002D01*
X93767122Y-92044305D01*
X93813039Y-92014635D01*
X93863974Y-91996353D01*
X93911800Y-91997771D01*
X93963067Y-92018988D01*
X94016101Y-92060489D01*
X94055400Y-92117998D01*
X94081669Y-92192750D01*
X94090965Y-92242708D01*
X94097493Y-92299416D01*
X94102218Y-92359519D01*
X94104183Y-92410639D01*
X94104192Y-92413667D01*
X94104178Y-92489867D01*
X94104178Y-92635857D01*
X94128149Y-92635260D01*
X94174945Y-92630998D01*
X94208222Y-92622830D01*
X94230241Y-92609556D01*
X94243261Y-92589974D01*
X94249543Y-92562883D01*
X94251347Y-92527082D01*
X94250934Y-92481371D01*
G37*
X94250934Y-92481371D02*
X94250533Y-92441889D01*
X94247741Y-92326200D01*
X94239450Y-92229311D01*
X94224768Y-92147919D01*
X94202807Y-92078723D01*
X94172678Y-92018420D01*
X94133490Y-91963708D01*
X94116468Y-91944167D01*
X94076637Y-91911750D01*
X94022587Y-91882520D01*
X93962677Y-91859991D01*
X93905261Y-91847679D01*
X93884044Y-91846400D01*
X93825231Y-91854417D01*
X93760987Y-91875899D01*
X93700179Y-91906999D01*
X93651670Y-91943866D01*
X93645818Y-91949854D01*
X93604679Y-92000579D01*
X93572565Y-92056125D01*
X93548635Y-92119696D01*
X93532047Y-92194494D01*
X93521959Y-92283722D01*
X93517531Y-92390582D01*
X93517155Y-92439528D01*
X93517455Y-92501762D01*
X93518708Y-92545528D01*
X93521446Y-92574931D01*
X93526199Y-92594079D01*
X93533499Y-92607077D01*
X93539733Y-92614045D01*
X93547306Y-92620626D01*
X93557076Y-92625788D01*
X93571660Y-92629703D01*
X93593674Y-92632543D01*
X93625736Y-92634480D01*
X93670464Y-92635684D01*
X93730474Y-92636328D01*
X93808383Y-92636583D01*
X93884044Y-92636622D01*
X93984959Y-92636870D01*
X94065573Y-92636817D01*
X94104178Y-92635857D01*
X94104178Y-92489867D01*
X93663911Y-92489867D01*
X93663996Y-92396734D01*
X93665604Y-92340693D01*
X93669744Y-92281999D01*
X93675536Y-92233028D01*
X93675774Y-92231538D01*
X93694910Y-92152392D01*
X93724713Y-92091002D01*
X93767122Y-92044305D01*
X93813039Y-92014635D01*
X93863974Y-91996353D01*
X93911800Y-91997771D01*
X93963067Y-92018988D01*
X94016101Y-92060489D01*
X94055400Y-92117998D01*
X94081669Y-92192750D01*
X94090965Y-92242708D01*
X94097493Y-92299416D01*
X94102218Y-92359519D01*
X94104183Y-92410639D01*
X94104192Y-92413667D01*
X94104178Y-92489867D01*
X94104178Y-92635857D01*
X94128149Y-92635260D01*
X94174945Y-92630998D01*
X94208222Y-92622830D01*
X94230241Y-92609556D01*
X94243261Y-92589974D01*
X94249543Y-92562883D01*
X94251347Y-92527082D01*
X94250934Y-92481371D01*
G36*
X99493429Y-88633043D02*
G01*
X99469191Y-88536768D01*
X99426359Y-88450184D01*
X99366581Y-88375373D01*
X99291506Y-88314418D01*
X99202780Y-88269399D01*
X99106470Y-88243136D01*
X99009205Y-88237286D01*
X98915346Y-88252140D01*
X98827489Y-88285840D01*
X98748230Y-88336528D01*
X98680164Y-88402345D01*
X98625888Y-88481434D01*
X98587998Y-88571934D01*
X98575574Y-88623200D01*
X98568053Y-88667698D01*
X98565081Y-88701999D01*
X98566906Y-88734960D01*
X98573775Y-88775434D01*
X98580750Y-88808531D01*
X98612259Y-88901947D01*
X98663383Y-88985619D01*
X98732571Y-89057665D01*
X98818272Y-89116200D01*
X98845511Y-89130148D01*
X98881878Y-89146586D01*
X98912418Y-89156894D01*
X98944550Y-89162460D01*
X98985693Y-89164669D01*
X99031778Y-89164948D01*
X99116135Y-89160861D01*
X99185414Y-89147446D01*
X99246039Y-89122256D01*
X99304433Y-89082846D01*
X99348698Y-89044298D01*
X99414516Y-88972406D01*
X99459947Y-88897313D01*
X99487150Y-88814562D01*
X99497424Y-88736928D01*
X99493429Y-88633043D01*
G37*
X99493429Y-88633043D02*
X99469191Y-88536768D01*
X99426359Y-88450184D01*
X99366581Y-88375373D01*
X99291506Y-88314418D01*
X99202780Y-88269399D01*
X99106470Y-88243136D01*
X99009205Y-88237286D01*
X98915346Y-88252140D01*
X98827489Y-88285840D01*
X98748230Y-88336528D01*
X98680164Y-88402345D01*
X98625888Y-88481434D01*
X98587998Y-88571934D01*
X98575574Y-88623200D01*
X98568053Y-88667698D01*
X98565081Y-88701999D01*
X98566906Y-88734960D01*
X98573775Y-88775434D01*
X98580750Y-88808531D01*
X98612259Y-88901947D01*
X98663383Y-88985619D01*
X98732571Y-89057665D01*
X98818272Y-89116200D01*
X98845511Y-89130148D01*
X98881878Y-89146586D01*
X98912418Y-89156894D01*
X98944550Y-89162460D01*
X98985693Y-89164669D01*
X99031778Y-89164948D01*
X99116135Y-89160861D01*
X99185414Y-89147446D01*
X99246039Y-89122256D01*
X99304433Y-89082846D01*
X99348698Y-89044298D01*
X99414516Y-88972406D01*
X99459947Y-88897313D01*
X99487150Y-88814562D01*
X99497424Y-88736928D01*
X99493429Y-88633043D01*
G36*
X97047755Y-80173493D02*
G01*
X96813338Y-80173474D01*
X96600397Y-80173448D01*
X96407832Y-80173375D01*
X96234541Y-80173218D01*
X96079424Y-80172936D01*
X95941380Y-80172491D01*
X95819308Y-80171844D01*
X95712106Y-80170955D01*
X95618674Y-80169787D01*
X95537910Y-80168299D01*
X95468714Y-80166454D01*
X95409985Y-80164211D01*
X95360621Y-80161531D01*
X95319522Y-80158377D01*
X95285587Y-80154708D01*
X95257714Y-80150487D01*
X95234802Y-80145673D01*
X95215751Y-80140227D01*
X95199460Y-80134112D01*
X95184827Y-80127288D01*
X95170751Y-80119715D01*
X95156132Y-80111355D01*
X95147026Y-80106161D01*
X95086311Y-80071896D01*
X95086311Y-80930045D01*
X95182267Y-80930045D01*
X95225630Y-80930776D01*
X95258795Y-80932728D01*
X95276576Y-80935537D01*
X95278222Y-80936779D01*
X95271338Y-80948201D01*
X95253495Y-80970916D01*
X95234121Y-80993615D01*
X95193386Y-81048200D01*
X95152383Y-81117679D01*
X95114877Y-81194730D01*
X95084636Y-81272035D01*
X95074988Y-81302887D01*
X95060422Y-81371384D01*
X95050461Y-81454236D01*
X95045417Y-81543629D01*
X95045604Y-81631752D01*
X95051334Y-81710793D01*
X95057142Y-81748489D01*
X95095203Y-81886586D01*
X95152927Y-82013887D01*
X95229789Y-82129708D01*
X95325261Y-82233363D01*
X95438821Y-82324167D01*
X95549619Y-82390969D01*
X95666375Y-82445836D01*
X95785724Y-82487837D01*
X95911717Y-82517833D01*
X96048406Y-82536689D01*
X96199842Y-82545268D01*
X96277289Y-82545994D01*
X96334066Y-82543900D01*
X96334066Y-81714783D01*
X96240998Y-81714576D01*
X96153308Y-81711663D01*
X96076228Y-81706000D01*
X96014991Y-81697545D01*
X96002650Y-81694962D01*
X95895367Y-81663160D01*
X95808342Y-81621502D01*
X95741358Y-81569637D01*
X95694195Y-81507219D01*
X95666635Y-81433900D01*
X95658459Y-81349331D01*
X95669449Y-81253165D01*
X95685171Y-81189689D01*
X95703361Y-81140546D01*
X95729209Y-81086417D01*
X95752911Y-81045756D01*
X95799279Y-80975200D01*
X96949470Y-80975200D01*
X96993038Y-81042608D01*
X97033960Y-81121133D01*
X97060611Y-81205319D01*
X97072535Y-81290443D01*
X97069278Y-81371784D01*
X97050385Y-81444620D01*
X97034816Y-81476574D01*
X96991819Y-81534499D01*
X96935047Y-81583456D01*
X96862425Y-81624610D01*
X96771879Y-81659126D01*
X96661334Y-81688167D01*
X96655467Y-81689448D01*
X96593212Y-81699619D01*
X96515406Y-81707261D01*
X96427280Y-81712330D01*
X96334066Y-81714783D01*
X96334066Y-82543900D01*
X96490105Y-82538143D01*
X96685941Y-82516198D01*
X96864668Y-82480214D01*
X97026155Y-82430241D01*
X97170274Y-82366332D01*
X97296894Y-82288538D01*
X97405885Y-82196911D01*
X97497117Y-82091503D01*
X97528068Y-82046338D01*
X97584215Y-81945389D01*
X97623826Y-81842099D01*
X97647986Y-81732011D01*
X97657781Y-81610670D01*
X97656735Y-81518164D01*
X97645769Y-81388510D01*
X97623954Y-81275916D01*
X97590286Y-81177125D01*
X97543764Y-81088879D01*
X97509552Y-81040014D01*
X97487638Y-81010647D01*
X97472667Y-80988957D01*
X97468267Y-80980747D01*
X97479096Y-80979132D01*
X97509749Y-80977841D01*
X97557474Y-80976862D01*
X97619521Y-80976183D01*
X97693138Y-80975790D01*
X97775573Y-80975670D01*
X97864075Y-80975812D01*
X97955893Y-80976203D01*
X98048276Y-80976829D01*
X98138472Y-80977680D01*
X98223729Y-80978740D01*
X98301297Y-80979999D01*
X98368424Y-80981444D01*
X98422359Y-80983062D01*
X98460350Y-80984839D01*
X98467333Y-80985331D01*
X98537749Y-80992908D01*
X98592898Y-81004469D01*
X98640019Y-81022208D01*
X98686353Y-81048318D01*
X98695933Y-81054585D01*
X98732622Y-81079017D01*
X98732622Y-80173689D01*
X97047755Y-80173493D01*
G37*
X97047755Y-80173493D02*
X96813338Y-80173474D01*
X96600397Y-80173448D01*
X96407832Y-80173375D01*
X96234541Y-80173218D01*
X96079424Y-80172936D01*
X95941380Y-80172491D01*
X95819308Y-80171844D01*
X95712106Y-80170955D01*
X95618674Y-80169787D01*
X95537910Y-80168299D01*
X95468714Y-80166454D01*
X95409985Y-80164211D01*
X95360621Y-80161531D01*
X95319522Y-80158377D01*
X95285587Y-80154708D01*
X95257714Y-80150487D01*
X95234802Y-80145673D01*
X95215751Y-80140227D01*
X95199460Y-80134112D01*
X95184827Y-80127288D01*
X95170751Y-80119715D01*
X95156132Y-80111355D01*
X95147026Y-80106161D01*
X95086311Y-80071896D01*
X95086311Y-80930045D01*
X95182267Y-80930045D01*
X95225630Y-80930776D01*
X95258795Y-80932728D01*
X95276576Y-80935537D01*
X95278222Y-80936779D01*
X95271338Y-80948201D01*
X95253495Y-80970916D01*
X95234121Y-80993615D01*
X95193386Y-81048200D01*
X95152383Y-81117679D01*
X95114877Y-81194730D01*
X95084636Y-81272035D01*
X95074988Y-81302887D01*
X95060422Y-81371384D01*
X95050461Y-81454236D01*
X95045417Y-81543629D01*
X95045604Y-81631752D01*
X95051334Y-81710793D01*
X95057142Y-81748489D01*
X95095203Y-81886586D01*
X95152927Y-82013887D01*
X95229789Y-82129708D01*
X95325261Y-82233363D01*
X95438821Y-82324167D01*
X95549619Y-82390969D01*
X95666375Y-82445836D01*
X95785724Y-82487837D01*
X95911717Y-82517833D01*
X96048406Y-82536689D01*
X96199842Y-82545268D01*
X96277289Y-82545994D01*
X96334066Y-82543900D01*
X96334066Y-81714783D01*
X96240998Y-81714576D01*
X96153308Y-81711663D01*
X96076228Y-81706000D01*
X96014991Y-81697545D01*
X96002650Y-81694962D01*
X95895367Y-81663160D01*
X95808342Y-81621502D01*
X95741358Y-81569637D01*
X95694195Y-81507219D01*
X95666635Y-81433900D01*
X95658459Y-81349331D01*
X95669449Y-81253165D01*
X95685171Y-81189689D01*
X95703361Y-81140546D01*
X95729209Y-81086417D01*
X95752911Y-81045756D01*
X95799279Y-80975200D01*
X96949470Y-80975200D01*
X96993038Y-81042608D01*
X97033960Y-81121133D01*
X97060611Y-81205319D01*
X97072535Y-81290443D01*
X97069278Y-81371784D01*
X97050385Y-81444620D01*
X97034816Y-81476574D01*
X96991819Y-81534499D01*
X96935047Y-81583456D01*
X96862425Y-81624610D01*
X96771879Y-81659126D01*
X96661334Y-81688167D01*
X96655467Y-81689448D01*
X96593212Y-81699619D01*
X96515406Y-81707261D01*
X96427280Y-81712330D01*
X96334066Y-81714783D01*
X96334066Y-82543900D01*
X96490105Y-82538143D01*
X96685941Y-82516198D01*
X96864668Y-82480214D01*
X97026155Y-82430241D01*
X97170274Y-82366332D01*
X97296894Y-82288538D01*
X97405885Y-82196911D01*
X97497117Y-82091503D01*
X97528068Y-82046338D01*
X97584215Y-81945389D01*
X97623826Y-81842099D01*
X97647986Y-81732011D01*
X97657781Y-81610670D01*
X97656735Y-81518164D01*
X97645769Y-81388510D01*
X97623954Y-81275916D01*
X97590286Y-81177125D01*
X97543764Y-81088879D01*
X97509552Y-81040014D01*
X97487638Y-81010647D01*
X97472667Y-80988957D01*
X97468267Y-80980747D01*
X97479096Y-80979132D01*
X97509749Y-80977841D01*
X97557474Y-80976862D01*
X97619521Y-80976183D01*
X97693138Y-80975790D01*
X97775573Y-80975670D01*
X97864075Y-80975812D01*
X97955893Y-80976203D01*
X98048276Y-80976829D01*
X98138472Y-80977680D01*
X98223729Y-80978740D01*
X98301297Y-80979999D01*
X98368424Y-80981444D01*
X98422359Y-80983062D01*
X98460350Y-80984839D01*
X98467333Y-80985331D01*
X98537749Y-80992908D01*
X98592898Y-81004469D01*
X98640019Y-81022208D01*
X98686353Y-81048318D01*
X98695933Y-81054585D01*
X98732622Y-81079017D01*
X98732622Y-80173689D01*
X97047755Y-80173493D01*
G36*
X97653448Y-83686426D02*
G01*
X97633433Y-83534508D01*
X97599798Y-83399244D01*
X97552275Y-83279761D01*
X97490595Y-83175185D01*
X97427035Y-83097576D01*
X97352901Y-83028735D01*
X97273129Y-82974994D01*
X97180909Y-82932090D01*
X97137839Y-82916616D01*
X97098858Y-82903756D01*
X97062711Y-82892554D01*
X97027566Y-82882880D01*
X96991590Y-82874604D01*
X96952950Y-82867597D01*
X96909815Y-82861728D01*
X96860351Y-82856869D01*
X96802727Y-82852890D01*
X96735109Y-82849660D01*
X96655666Y-82847051D01*
X96562564Y-82844933D01*
X96453973Y-82843176D01*
X96328058Y-82841651D01*
X96182988Y-82840228D01*
X96040222Y-82838975D01*
X95884032Y-82837649D01*
X95748761Y-82836444D01*
X95632754Y-82835234D01*
X95534355Y-82833894D01*
X95451907Y-82832300D01*
X95383754Y-82830325D01*
X95328240Y-82827844D01*
X95283708Y-82824731D01*
X95248502Y-82820862D01*
X95220966Y-82816111D01*
X95199444Y-82810352D01*
X95182278Y-82803461D01*
X95167814Y-82795311D01*
X95154394Y-82785777D01*
X95140362Y-82774734D01*
X95134929Y-82770434D01*
X95112090Y-82754614D01*
X95096537Y-82747578D01*
X95096078Y-82747556D01*
X95093879Y-82758433D01*
X95091853Y-82789418D01*
X95090058Y-82838043D01*
X95088549Y-82901837D01*
X95087384Y-82978331D01*
X95086620Y-83065056D01*
X95086314Y-83159543D01*
X95086311Y-83170450D01*
X95086311Y-83593343D01*
X95182378Y-83596605D01*
X95278444Y-83599867D01*
X95227457Y-83661956D01*
X95159943Y-83759286D01*
X95105251Y-83869187D01*
X95075022Y-83955651D01*
X95060334Y-84024722D01*
X95050341Y-84108075D01*
X95045354Y-84197841D01*
X95045687Y-84286155D01*
X95051649Y-84365149D01*
X95057362Y-84401378D01*
X95095224Y-84541397D01*
X95150068Y-84667822D01*
X95221076Y-84779740D01*
X95307432Y-84876238D01*
X95408321Y-84956400D01*
X95522924Y-85019313D01*
X95649016Y-85063688D01*
X95705599Y-85076022D01*
X95767798Y-85083632D01*
X95842637Y-85087261D01*
X95876533Y-85087755D01*
X95879718Y-85087690D01*
X95879718Y-84327752D01*
X95804667Y-84318459D01*
X95740840Y-84290272D01*
X95685202Y-84241803D01*
X95680789Y-84236746D01*
X95645963Y-84188452D01*
X95623380Y-84136743D01*
X95611460Y-84076011D01*
X95608617Y-84000648D01*
X95609022Y-83982541D01*
X95611675Y-83928722D01*
X95617091Y-83888692D01*
X95627255Y-83853676D01*
X95644150Y-83814897D01*
X95649328Y-83804255D01*
X95685156Y-83743604D01*
X95727788Y-83696785D01*
X95743027Y-83684048D01*
X95799538Y-83639378D01*
X95995414Y-83639378D01*
X96074061Y-83639914D01*
X96132012Y-83641604D01*
X96171125Y-83644572D01*
X96193259Y-83648943D01*
X96199726Y-83653028D01*
X96202889Y-83668953D01*
X96205512Y-83702736D01*
X96207345Y-83749660D01*
X96208143Y-83805007D01*
X96208158Y-83813894D01*
X96202904Y-83934670D01*
X96186737Y-84037340D01*
X96159039Y-84123894D01*
X96119192Y-84196319D01*
X96072242Y-84251249D01*
X96014355Y-84295796D01*
X95951307Y-84320520D01*
X95879718Y-84327752D01*
X95879718Y-85087690D01*
X95970288Y-85085822D01*
X96049188Y-85077478D01*
X96120410Y-85061232D01*
X96191136Y-85035595D01*
X96243507Y-85011599D01*
X96338804Y-84952980D01*
X96426830Y-84874883D01*
X96505983Y-84779685D01*
X96574660Y-84669762D01*
X96631259Y-84547490D01*
X96674179Y-84415245D01*
X96689118Y-84350578D01*
X96711223Y-84214396D01*
X96725806Y-84065951D01*
X96732187Y-83914495D01*
X96730555Y-83787936D01*
X96723776Y-83626050D01*
X96782755Y-83633470D01*
X96881908Y-83652762D01*
X96962628Y-83683896D01*
X97025534Y-83727731D01*
X97071244Y-83785129D01*
X97100378Y-83856952D01*
X97113553Y-83944059D01*
X97111389Y-84047314D01*
X97107388Y-84085289D01*
X97082220Y-84226480D01*
X97041186Y-84363293D01*
X97003185Y-84457822D01*
X96983810Y-84502982D01*
X96968240Y-84541415D01*
X96958595Y-84567766D01*
X96956548Y-84575454D01*
X96965626Y-84585198D01*
X96994595Y-84601917D01*
X97043783Y-84625768D01*
X97113516Y-84656907D01*
X97204121Y-84695493D01*
X97219911Y-84702090D01*
X97292228Y-84732147D01*
X97357575Y-84759126D01*
X97413094Y-84781864D01*
X97455928Y-84799194D01*
X97483219Y-84809952D01*
X97492058Y-84813059D01*
X97496813Y-84803060D01*
X97502090Y-84776783D01*
X97505769Y-84748511D01*
X97510526Y-84718354D01*
X97519972Y-84670567D01*
X97533180Y-84609388D01*
X97549224Y-84539054D01*
X97567180Y-84463806D01*
X97574203Y-84435245D01*
X97599791Y-84330184D01*
X97619853Y-84242520D01*
X97635031Y-84167932D01*
X97645965Y-84102097D01*
X97653296Y-84040693D01*
X97657665Y-83979398D01*
X97659713Y-83913890D01*
X97660111Y-83855872D01*
X97653448Y-83686426D01*
G37*
X97653448Y-83686426D02*
X97633433Y-83534508D01*
X97599798Y-83399244D01*
X97552275Y-83279761D01*
X97490595Y-83175185D01*
X97427035Y-83097576D01*
X97352901Y-83028735D01*
X97273129Y-82974994D01*
X97180909Y-82932090D01*
X97137839Y-82916616D01*
X97098858Y-82903756D01*
X97062711Y-82892554D01*
X97027566Y-82882880D01*
X96991590Y-82874604D01*
X96952950Y-82867597D01*
X96909815Y-82861728D01*
X96860351Y-82856869D01*
X96802727Y-82852890D01*
X96735109Y-82849660D01*
X96655666Y-82847051D01*
X96562564Y-82844933D01*
X96453973Y-82843176D01*
X96328058Y-82841651D01*
X96182988Y-82840228D01*
X96040222Y-82838975D01*
X95884032Y-82837649D01*
X95748761Y-82836444D01*
X95632754Y-82835234D01*
X95534355Y-82833894D01*
X95451907Y-82832300D01*
X95383754Y-82830325D01*
X95328240Y-82827844D01*
X95283708Y-82824731D01*
X95248502Y-82820862D01*
X95220966Y-82816111D01*
X95199444Y-82810352D01*
X95182278Y-82803461D01*
X95167814Y-82795311D01*
X95154394Y-82785777D01*
X95140362Y-82774734D01*
X95134929Y-82770434D01*
X95112090Y-82754614D01*
X95096537Y-82747578D01*
X95096078Y-82747556D01*
X95093879Y-82758433D01*
X95091853Y-82789418D01*
X95090058Y-82838043D01*
X95088549Y-82901837D01*
X95087384Y-82978331D01*
X95086620Y-83065056D01*
X95086314Y-83159543D01*
X95086311Y-83170450D01*
X95086311Y-83593343D01*
X95182378Y-83596605D01*
X95278444Y-83599867D01*
X95227457Y-83661956D01*
X95159943Y-83759286D01*
X95105251Y-83869187D01*
X95075022Y-83955651D01*
X95060334Y-84024722D01*
X95050341Y-84108075D01*
X95045354Y-84197841D01*
X95045687Y-84286155D01*
X95051649Y-84365149D01*
X95057362Y-84401378D01*
X95095224Y-84541397D01*
X95150068Y-84667822D01*
X95221076Y-84779740D01*
X95307432Y-84876238D01*
X95408321Y-84956400D01*
X95522924Y-85019313D01*
X95649016Y-85063688D01*
X95705599Y-85076022D01*
X95767798Y-85083632D01*
X95842637Y-85087261D01*
X95876533Y-85087755D01*
X95879718Y-85087690D01*
X95879718Y-84327752D01*
X95804667Y-84318459D01*
X95740840Y-84290272D01*
X95685202Y-84241803D01*
X95680789Y-84236746D01*
X95645963Y-84188452D01*
X95623380Y-84136743D01*
X95611460Y-84076011D01*
X95608617Y-84000648D01*
X95609022Y-83982541D01*
X95611675Y-83928722D01*
X95617091Y-83888692D01*
X95627255Y-83853676D01*
X95644150Y-83814897D01*
X95649328Y-83804255D01*
X95685156Y-83743604D01*
X95727788Y-83696785D01*
X95743027Y-83684048D01*
X95799538Y-83639378D01*
X95995414Y-83639378D01*
X96074061Y-83639914D01*
X96132012Y-83641604D01*
X96171125Y-83644572D01*
X96193259Y-83648943D01*
X96199726Y-83653028D01*
X96202889Y-83668953D01*
X96205512Y-83702736D01*
X96207345Y-83749660D01*
X96208143Y-83805007D01*
X96208158Y-83813894D01*
X96202904Y-83934670D01*
X96186737Y-84037340D01*
X96159039Y-84123894D01*
X96119192Y-84196319D01*
X96072242Y-84251249D01*
X96014355Y-84295796D01*
X95951307Y-84320520D01*
X95879718Y-84327752D01*
X95879718Y-85087690D01*
X95970288Y-85085822D01*
X96049188Y-85077478D01*
X96120410Y-85061232D01*
X96191136Y-85035595D01*
X96243507Y-85011599D01*
X96338804Y-84952980D01*
X96426830Y-84874883D01*
X96505983Y-84779685D01*
X96574660Y-84669762D01*
X96631259Y-84547490D01*
X96674179Y-84415245D01*
X96689118Y-84350578D01*
X96711223Y-84214396D01*
X96725806Y-84065951D01*
X96732187Y-83914495D01*
X96730555Y-83787936D01*
X96723776Y-83626050D01*
X96782755Y-83633470D01*
X96881908Y-83652762D01*
X96962628Y-83683896D01*
X97025534Y-83727731D01*
X97071244Y-83785129D01*
X97100378Y-83856952D01*
X97113553Y-83944059D01*
X97111389Y-84047314D01*
X97107388Y-84085289D01*
X97082220Y-84226480D01*
X97041186Y-84363293D01*
X97003185Y-84457822D01*
X96983810Y-84502982D01*
X96968240Y-84541415D01*
X96958595Y-84567766D01*
X96956548Y-84575454D01*
X96965626Y-84585198D01*
X96994595Y-84601917D01*
X97043783Y-84625768D01*
X97113516Y-84656907D01*
X97204121Y-84695493D01*
X97219911Y-84702090D01*
X97292228Y-84732147D01*
X97357575Y-84759126D01*
X97413094Y-84781864D01*
X97455928Y-84799194D01*
X97483219Y-84809952D01*
X97492058Y-84813059D01*
X97496813Y-84803060D01*
X97502090Y-84776783D01*
X97505769Y-84748511D01*
X97510526Y-84718354D01*
X97519972Y-84670567D01*
X97533180Y-84609388D01*
X97549224Y-84539054D01*
X97567180Y-84463806D01*
X97574203Y-84435245D01*
X97599791Y-84330184D01*
X97619853Y-84242520D01*
X97635031Y-84167932D01*
X97645965Y-84102097D01*
X97653296Y-84040693D01*
X97657665Y-83979398D01*
X97659713Y-83913890D01*
X97660111Y-83855872D01*
X97653448Y-83686426D01*
G36*
X98570929Y-86031571D02*
G01*
X98549755Y-85871430D01*
X98509615Y-85707490D01*
X98450111Y-85537687D01*
X98370846Y-85359957D01*
X98365301Y-85348690D01*
X98337275Y-85290995D01*
X98313198Y-85239448D01*
X98294751Y-85197809D01*
X98283614Y-85169838D01*
X98281067Y-85160267D01*
X98276059Y-85141050D01*
X98271853Y-85136439D01*
X98261420Y-85141542D01*
X98235132Y-85157582D01*
X98195743Y-85182712D01*
X98146009Y-85215086D01*
X98088685Y-85252857D01*
X98026524Y-85294178D01*
X97962282Y-85337202D01*
X97898715Y-85380083D01*
X97838575Y-85420974D01*
X97784620Y-85458029D01*
X97739603Y-85489400D01*
X97706279Y-85513241D01*
X97687403Y-85527706D01*
X97685213Y-85529691D01*
X97689862Y-85539809D01*
X97707038Y-85562150D01*
X97733560Y-85592720D01*
X97748036Y-85608464D01*
X97823318Y-85704953D01*
X97878759Y-85811664D01*
X97913859Y-85927168D01*
X97928120Y-86050038D01*
X97926949Y-86119439D01*
X97909788Y-86240577D01*
X97873906Y-86349795D01*
X97819041Y-86447418D01*
X97744930Y-86533772D01*
X97651312Y-86609185D01*
X97537924Y-86673982D01*
X97451333Y-86711399D01*
X97315634Y-86755252D01*
X97168150Y-86787572D01*
X97012686Y-86808443D01*
X96853044Y-86817949D01*
X96693027Y-86816173D01*
X96536439Y-86803197D01*
X96387082Y-86779106D01*
X96248760Y-86743982D01*
X96125276Y-86697908D01*
X96091022Y-86681627D01*
X95976936Y-86613380D01*
X95880443Y-86532921D01*
X95802330Y-86441430D01*
X95743383Y-86340089D01*
X95704388Y-86230080D01*
X95686132Y-86112585D01*
X95684789Y-86071117D01*
X95695710Y-85949559D01*
X95728526Y-85829122D01*
X95782561Y-85711334D01*
X95857135Y-85597723D01*
X95935461Y-85506315D01*
X95979992Y-85459785D01*
X95682729Y-85278517D01*
X95608567Y-85233420D01*
X95540354Y-85192181D01*
X95480541Y-85156265D01*
X95431580Y-85127134D01*
X95395921Y-85106250D01*
X95376016Y-85095076D01*
X95372921Y-85093625D01*
X95363282Y-85101854D01*
X95346001Y-85127433D01*
X95322717Y-85167127D01*
X95295066Y-85217703D01*
X95264685Y-85275926D01*
X95233210Y-85338563D01*
X95202278Y-85402379D01*
X95173527Y-85464140D01*
X95148592Y-85520612D01*
X95129111Y-85568562D01*
X95120682Y-85592014D01*
X95082867Y-85725779D01*
X95057864Y-85863673D01*
X95044860Y-86011378D01*
X95042532Y-86138167D01*
X95043627Y-86206122D01*
X95045725Y-86271723D01*
X95048566Y-86329153D01*
X95051894Y-86372597D01*
X95053578Y-86386702D01*
X95082413Y-86525716D01*
X95127532Y-86667243D01*
X95186250Y-86804725D01*
X95255880Y-86931606D01*
X95308559Y-87009111D01*
X95416761Y-87136519D01*
X95543329Y-87254822D01*
X95685134Y-87361828D01*
X95839049Y-87455348D01*
X96001947Y-87533190D01*
X96119244Y-87577044D01*
X96302872Y-87627292D01*
X96497419Y-87660791D01*
X96698675Y-87677551D01*
X96902432Y-87677584D01*
X97104479Y-87660899D01*
X97300608Y-87627507D01*
X97486609Y-87577420D01*
X97498197Y-87573603D01*
X97660250Y-87510719D01*
X97808168Y-87433972D01*
X97946135Y-87340758D01*
X98078339Y-87228473D01*
X98123601Y-87184608D01*
X98247543Y-87048466D01*
X98350085Y-86908509D01*
X98432344Y-86762589D01*
X98495436Y-86608558D01*
X98540477Y-86444268D01*
X98557967Y-86348711D01*
X98573534Y-86189977D01*
X98570929Y-86031571D01*
G37*
X98570929Y-86031571D02*
X98549755Y-85871430D01*
X98509615Y-85707490D01*
X98450111Y-85537687D01*
X98370846Y-85359957D01*
X98365301Y-85348690D01*
X98337275Y-85290995D01*
X98313198Y-85239448D01*
X98294751Y-85197809D01*
X98283614Y-85169838D01*
X98281067Y-85160267D01*
X98276059Y-85141050D01*
X98271853Y-85136439D01*
X98261420Y-85141542D01*
X98235132Y-85157582D01*
X98195743Y-85182712D01*
X98146009Y-85215086D01*
X98088685Y-85252857D01*
X98026524Y-85294178D01*
X97962282Y-85337202D01*
X97898715Y-85380083D01*
X97838575Y-85420974D01*
X97784620Y-85458029D01*
X97739603Y-85489400D01*
X97706279Y-85513241D01*
X97687403Y-85527706D01*
X97685213Y-85529691D01*
X97689862Y-85539809D01*
X97707038Y-85562150D01*
X97733560Y-85592720D01*
X97748036Y-85608464D01*
X97823318Y-85704953D01*
X97878759Y-85811664D01*
X97913859Y-85927168D01*
X97928120Y-86050038D01*
X97926949Y-86119439D01*
X97909788Y-86240577D01*
X97873906Y-86349795D01*
X97819041Y-86447418D01*
X97744930Y-86533772D01*
X97651312Y-86609185D01*
X97537924Y-86673982D01*
X97451333Y-86711399D01*
X97315634Y-86755252D01*
X97168150Y-86787572D01*
X97012686Y-86808443D01*
X96853044Y-86817949D01*
X96693027Y-86816173D01*
X96536439Y-86803197D01*
X96387082Y-86779106D01*
X96248760Y-86743982D01*
X96125276Y-86697908D01*
X96091022Y-86681627D01*
X95976936Y-86613380D01*
X95880443Y-86532921D01*
X95802330Y-86441430D01*
X95743383Y-86340089D01*
X95704388Y-86230080D01*
X95686132Y-86112585D01*
X95684789Y-86071117D01*
X95695710Y-85949559D01*
X95728526Y-85829122D01*
X95782561Y-85711334D01*
X95857135Y-85597723D01*
X95935461Y-85506315D01*
X95979992Y-85459785D01*
X95682729Y-85278517D01*
X95608567Y-85233420D01*
X95540354Y-85192181D01*
X95480541Y-85156265D01*
X95431580Y-85127134D01*
X95395921Y-85106250D01*
X95376016Y-85095076D01*
X95372921Y-85093625D01*
X95363282Y-85101854D01*
X95346001Y-85127433D01*
X95322717Y-85167127D01*
X95295066Y-85217703D01*
X95264685Y-85275926D01*
X95233210Y-85338563D01*
X95202278Y-85402379D01*
X95173527Y-85464140D01*
X95148592Y-85520612D01*
X95129111Y-85568562D01*
X95120682Y-85592014D01*
X95082867Y-85725779D01*
X95057864Y-85863673D01*
X95044860Y-86011378D01*
X95042532Y-86138167D01*
X95043627Y-86206122D01*
X95045725Y-86271723D01*
X95048566Y-86329153D01*
X95051894Y-86372597D01*
X95053578Y-86386702D01*
X95082413Y-86525716D01*
X95127532Y-86667243D01*
X95186250Y-86804725D01*
X95255880Y-86931606D01*
X95308559Y-87009111D01*
X95416761Y-87136519D01*
X95543329Y-87254822D01*
X95685134Y-87361828D01*
X95839049Y-87455348D01*
X96001947Y-87533190D01*
X96119244Y-87577044D01*
X96302872Y-87627292D01*
X96497419Y-87660791D01*
X96698675Y-87677551D01*
X96902432Y-87677584D01*
X97104479Y-87660899D01*
X97300608Y-87627507D01*
X97486609Y-87577420D01*
X97498197Y-87573603D01*
X97660250Y-87510719D01*
X97808168Y-87433972D01*
X97946135Y-87340758D01*
X98078339Y-87228473D01*
X98123601Y-87184608D01*
X98247543Y-87048466D01*
X98350085Y-86908509D01*
X98432344Y-86762589D01*
X98495436Y-86608558D01*
X98540477Y-86444268D01*
X98557967Y-86348711D01*
X98573534Y-86189977D01*
X98570929Y-86031571D01*
G36*
X99030946Y-89306400D02*
G01*
X98917007Y-89295535D01*
X98809384Y-89263918D01*
X98710385Y-89213015D01*
X98622316Y-89144293D01*
X98547484Y-89059219D01*
X98489616Y-88962232D01*
X98449995Y-88855964D01*
X98431427Y-88748950D01*
X98432566Y-88643300D01*
X98452070Y-88541125D01*
X98488594Y-88444534D01*
X98540795Y-88355638D01*
X98607327Y-88276546D01*
X98686848Y-88209369D01*
X98778013Y-88156217D01*
X98879477Y-88119199D01*
X98989898Y-88100427D01*
X99039794Y-88098489D01*
X99127733Y-88098489D01*
X99127733Y-88046560D01*
X99124889Y-88010253D01*
X99113089Y-87983355D01*
X99089351Y-87956249D01*
X99050969Y-87917867D01*
X96859398Y-87917867D01*
X96597261Y-87917876D01*
X96356759Y-87917908D01*
X96136952Y-87917972D01*
X95936899Y-87918076D01*
X95755656Y-87918227D01*
X95592284Y-87918434D01*
X95445840Y-87918706D01*
X95315383Y-87919050D01*
X95199971Y-87919474D01*
X95098662Y-87919987D01*
X95010516Y-87920597D01*
X94934590Y-87921312D01*
X94869943Y-87922140D01*
X94815633Y-87923089D01*
X94770720Y-87924167D01*
X94734260Y-87925383D01*
X94705313Y-87926745D01*
X94682937Y-87928261D01*
X94666191Y-87929938D01*
X94654132Y-87931786D01*
X94645820Y-87933813D01*
X94640313Y-87936025D01*
X94638463Y-87937108D01*
X94631451Y-87941271D01*
X94625004Y-87944805D01*
X94619100Y-87948635D01*
X94613714Y-87953682D01*
X94608822Y-87960871D01*
X94604402Y-87971123D01*
X94600428Y-87985364D01*
X94596879Y-88004514D01*
X94593730Y-88029499D01*
X94590958Y-88061240D01*
X94588539Y-88100662D01*
X94586449Y-88148686D01*
X94584665Y-88206237D01*
X94583163Y-88274237D01*
X94581920Y-88353610D01*
X94580911Y-88445279D01*
X94580115Y-88550166D01*
X94579506Y-88669196D01*
X94579061Y-88803290D01*
X94578757Y-88953373D01*
X94578570Y-89120367D01*
X94578476Y-89305196D01*
X94578452Y-89508783D01*
X94578475Y-89732050D01*
X94578520Y-89975922D01*
X94578563Y-90241321D01*
X94578568Y-90279704D01*
X94578611Y-90546682D01*
X94578682Y-90792002D01*
X94578787Y-91016583D01*
X94578934Y-91221345D01*
X94579131Y-91407206D01*
X94579384Y-91575088D01*
X94579700Y-91725908D01*
X94580087Y-91860587D01*
X94580553Y-91980044D01*
X94581103Y-92085199D01*
X94581747Y-92176971D01*
X94582489Y-92256279D01*
X94583339Y-92324043D01*
X94584303Y-92381182D01*
X94585389Y-92428617D01*
X94586603Y-92467266D01*
X94587953Y-92498049D01*
X94589445Y-92521885D01*
X94591089Y-92539694D01*
X94592889Y-92552395D01*
X94594855Y-92560908D01*
X94596523Y-92565266D01*
X94600094Y-92573728D01*
X94602730Y-92581497D01*
X94605366Y-92588602D01*
X94608938Y-92595073D01*
X94614379Y-92600939D01*
X94622625Y-92606229D01*
X94634610Y-92610974D01*
X94651269Y-92615202D01*
X94673537Y-92618943D01*
X94702348Y-92622227D01*
X94738637Y-92625083D01*
X94783339Y-92627540D01*
X94837389Y-92629629D01*
X94901721Y-92631378D01*
X94977270Y-92632817D01*
X95064970Y-92633976D01*
X95165757Y-92634883D01*
X95280566Y-92635569D01*
X95410330Y-92636063D01*
X95555985Y-92636395D01*
X95718465Y-92636593D01*
X95898705Y-92636687D01*
X96097640Y-92636708D01*
X96316204Y-92636685D01*
X96555332Y-92636646D01*
X96815960Y-92636622D01*
X96858111Y-92636622D01*
X97121008Y-92636636D01*
X97362268Y-92636661D01*
X97582835Y-92636671D01*
X97783648Y-92636642D01*
X97965651Y-92636548D01*
X98129784Y-92636362D01*
X98276989Y-92636059D01*
X98408208Y-92635614D01*
X98518133Y-92635034D01*
X98518133Y-92332197D01*
X98460289Y-92292407D01*
X98444521Y-92281236D01*
X98430559Y-92271166D01*
X98417216Y-92262138D01*
X98403307Y-92254097D01*
X98387644Y-92246986D01*
X98369042Y-92240747D01*
X98346314Y-92235325D01*
X98318273Y-92230662D01*
X98283733Y-92226701D01*
X98241508Y-92223385D01*
X98190411Y-92220659D01*
X98129256Y-92218464D01*
X98056856Y-92216745D01*
X97972025Y-92215444D01*
X97873578Y-92214505D01*
X97760326Y-92213870D01*
X97631084Y-92213484D01*
X97484666Y-92213288D01*
X97319884Y-92213227D01*
X97135553Y-92213243D01*
X96930487Y-92213280D01*
X96807867Y-92213289D01*
X96590918Y-92213265D01*
X96395358Y-92213231D01*
X96220001Y-92213243D01*
X96063659Y-92213358D01*
X95925143Y-92213630D01*
X95803266Y-92214118D01*
X95696840Y-92214876D01*
X95604678Y-92215962D01*
X95525591Y-92217431D01*
X95458392Y-92219340D01*
X95401893Y-92221744D01*
X95354907Y-92224701D01*
X95316245Y-92228266D01*
X95284720Y-92232495D01*
X95259145Y-92237446D01*
X95238330Y-92243173D01*
X95221089Y-92249733D01*
X95206235Y-92257183D01*
X95192578Y-92265579D01*
X95178931Y-92274976D01*
X95164107Y-92285432D01*
X95155217Y-92291523D01*
X95097600Y-92330296D01*
X95097600Y-91798732D01*
X95097635Y-91675483D01*
X95097785Y-91572987D01*
X95098122Y-91489420D01*
X95098714Y-91422956D01*
X95099633Y-91371771D01*
X95100949Y-91334041D01*
X95102731Y-91307940D01*
X95105049Y-91291644D01*
X95107974Y-91283328D01*
X95111576Y-91281168D01*
X95115925Y-91283339D01*
X95117355Y-91284535D01*
X95154427Y-91309685D01*
X95207228Y-91335583D01*
X95269230Y-91359192D01*
X95295643Y-91367461D01*
X95313584Y-91372078D01*
X95334645Y-91375979D01*
X95360911Y-91379248D01*
X95394468Y-91381966D01*
X95437401Y-91384215D01*
X95491796Y-91386077D01*
X95559738Y-91387636D01*
X95643312Y-91388972D01*
X95744605Y-91390169D01*
X95865700Y-91391308D01*
X95910400Y-91391685D01*
X96035551Y-91392702D01*
X96139918Y-91393460D01*
X96225293Y-91393903D01*
X96293467Y-91393970D01*
X96346235Y-91393605D01*
X96385386Y-91392748D01*
X96412715Y-91391341D01*
X96430014Y-91389325D01*
X96439074Y-91386643D01*
X96441688Y-91383236D01*
X96439649Y-91379044D01*
X96435333Y-91374571D01*
X96422398Y-91364216D01*
X96393324Y-91342158D01*
X96350241Y-91309957D01*
X96295282Y-91269174D01*
X96230577Y-91221370D01*
X96158258Y-91168105D01*
X96080456Y-91110940D01*
X95999302Y-91051437D01*
X95916928Y-90991155D01*
X95835464Y-90931655D01*
X95757043Y-90874498D01*
X95683796Y-90821245D01*
X95617853Y-90773457D01*
X95561346Y-90732693D01*
X95516407Y-90700516D01*
X95485166Y-90678485D01*
X95478534Y-90673917D01*
X95441631Y-90650996D01*
X95393641Y-90624188D01*
X95344103Y-90598789D01*
X95337423Y-90595568D01*
X95289228Y-90573890D01*
X95251666Y-90561304D01*
X95215840Y-90555574D01*
X95173800Y-90554456D01*
X95097600Y-90555090D01*
X95097600Y-89400651D01*
X95191331Y-89491815D01*
X95241225Y-89538612D01*
X95297705Y-89588899D01*
X95351974Y-89634944D01*
X95377327Y-89655369D01*
X95416872Y-89685807D01*
X95470084Y-89725862D01*
X95535333Y-89774361D01*
X95610989Y-89830135D01*
X95695423Y-89892011D01*
X95787006Y-89958819D01*
X95884108Y-90029387D01*
X95985099Y-90102545D01*
X96088350Y-90177121D01*
X96192232Y-90251944D01*
X96295115Y-90325843D01*
X96395369Y-90397646D01*
X96491364Y-90466184D01*
X96581473Y-90530284D01*
X96664064Y-90588775D01*
X96737508Y-90640486D01*
X96800176Y-90684247D01*
X96850439Y-90718885D01*
X96886666Y-90743230D01*
X96907229Y-90756111D01*
X96911332Y-90757869D01*
X96922658Y-90749910D01*
X96949838Y-90729115D01*
X96991171Y-90696847D01*
X97044956Y-90654470D01*
X97109494Y-90603347D01*
X97183082Y-90544841D01*
X97264022Y-90480314D01*
X97350612Y-90411131D01*
X97441152Y-90338653D01*
X97533940Y-90264246D01*
X97608298Y-90204517D01*
X97608298Y-89193511D01*
X97595341Y-89187602D01*
X97573092Y-89173272D01*
X97571609Y-89172225D01*
X97541456Y-89153438D01*
X97504625Y-89133791D01*
X97496489Y-89129892D01*
X97488060Y-89126356D01*
X97477941Y-89123230D01*
X97464740Y-89120486D01*
X97447062Y-89118092D01*
X97423516Y-89116019D01*
X97392707Y-89114235D01*
X97353243Y-89112712D01*
X97303731Y-89111419D01*
X97242777Y-89110326D01*
X97168989Y-89109403D01*
X97080972Y-89108619D01*
X96977335Y-89107945D01*
X96856684Y-89107350D01*
X96717626Y-89106805D01*
X96558768Y-89106279D01*
X96379911Y-89105745D01*
X96194793Y-89105206D01*
X96030855Y-89104772D01*
X95886697Y-89104509D01*
X95760921Y-89104484D01*
X95652129Y-89104765D01*
X95558923Y-89105419D01*
X95479903Y-89106514D01*
X95413672Y-89108118D01*
X95358830Y-89110297D01*
X95313979Y-89113119D01*
X95277722Y-89116651D01*
X95248659Y-89120961D01*
X95225391Y-89126117D01*
X95206521Y-89132185D01*
X95190649Y-89139233D01*
X95176378Y-89147329D01*
X95162309Y-89156540D01*
X95149842Y-89165040D01*
X95123548Y-89182176D01*
X95105963Y-89192322D01*
X95102743Y-89193511D01*
X95101666Y-89182604D01*
X95100665Y-89151411D01*
X95099765Y-89102223D01*
X95098990Y-89037333D01*
X95098363Y-88959030D01*
X95097909Y-88869607D01*
X95097651Y-88771356D01*
X95097600Y-88702445D01*
X95097820Y-88597452D01*
X95098452Y-88500610D01*
X95099451Y-88414107D01*
X95100773Y-88340132D01*
X95102374Y-88280874D01*
X95104209Y-88238520D01*
X95106235Y-88215260D01*
X95107507Y-88211378D01*
X95122409Y-88219076D01*
X95130440Y-88227074D01*
X95147566Y-88240246D01*
X95177817Y-88257485D01*
X95202378Y-88269407D01*
X95261289Y-88296045D01*
X96438155Y-88299120D01*
X97615022Y-88302195D01*
X97615022Y-88747853D01*
X97614858Y-88845670D01*
X97614389Y-88936064D01*
X97613653Y-89016630D01*
X97612684Y-89084962D01*
X97611520Y-89138656D01*
X97610197Y-89175305D01*
X97608751Y-89192504D01*
X97608298Y-89193511D01*
X97608298Y-90204517D01*
X97627278Y-90189270D01*
X97719463Y-90115090D01*
X97808796Y-90043069D01*
X97893576Y-89974569D01*
X97972102Y-89910955D01*
X98042674Y-89853588D01*
X98103591Y-89803833D01*
X98153153Y-89763052D01*
X98173822Y-89745888D01*
X98274484Y-89659596D01*
X98357741Y-89582997D01*
X98425562Y-89514183D01*
X98479911Y-89451248D01*
X98487278Y-89441867D01*
X98517883Y-89402356D01*
X98518133Y-90534116D01*
X98470156Y-90528827D01*
X98412812Y-90532130D01*
X98344537Y-90553661D01*
X98264788Y-90593635D01*
X98192505Y-90638943D01*
X98169860Y-90655161D01*
X98132304Y-90683214D01*
X98081979Y-90721430D01*
X98021027Y-90768137D01*
X97951589Y-90821661D01*
X97875806Y-90880331D01*
X97795820Y-90942475D01*
X97713772Y-91006421D01*
X97631804Y-91070495D01*
X97552057Y-91133027D01*
X97476673Y-91192343D01*
X97407793Y-91246771D01*
X97347558Y-91294639D01*
X97298111Y-91334275D01*
X97261592Y-91364006D01*
X97240142Y-91382161D01*
X97236844Y-91385220D01*
X97244851Y-91388079D01*
X97275145Y-91390293D01*
X97327444Y-91391857D01*
X97401469Y-91392767D01*
X97496937Y-91393020D01*
X97613566Y-91392613D01*
X97733555Y-91391704D01*
X97865667Y-91390382D01*
X97977406Y-91388857D01*
X98070975Y-91386881D01*
X98148581Y-91384206D01*
X98212426Y-91380582D01*
X98264717Y-91375761D01*
X98307656Y-91369494D01*
X98343449Y-91361532D01*
X98374300Y-91351627D01*
X98402414Y-91339531D01*
X98429995Y-91324993D01*
X98455034Y-91310311D01*
X98518133Y-91272314D01*
X98518133Y-92332197D01*
X98518133Y-92635034D01*
X98524383Y-92635001D01*
X98626456Y-92634195D01*
X98715367Y-92633170D01*
X98792059Y-92631900D01*
X98857473Y-92630360D01*
X98912551Y-92628524D01*
X98958235Y-92626367D01*
X98995466Y-92623863D01*
X99025187Y-92620987D01*
X99048338Y-92617713D01*
X99065861Y-92614015D01*
X99078699Y-92609869D01*
X99087792Y-92605247D01*
X99094082Y-92600126D01*
X99098512Y-92594478D01*
X99102022Y-92588279D01*
X99105555Y-92581504D01*
X99109124Y-92575508D01*
X99111700Y-92570275D01*
X99114028Y-92562099D01*
X99116122Y-92549886D01*
X99117993Y-92532541D01*
X99119653Y-92508969D01*
X99121116Y-92478077D01*
X99122392Y-92438768D01*
X99123496Y-92389950D01*
X99124439Y-92330527D01*
X99125233Y-92259404D01*
X99125891Y-92175488D01*
X99126425Y-92077683D01*
X99126847Y-91964894D01*
X99127171Y-91836029D01*
X99127408Y-91689991D01*
X99127570Y-91525686D01*
X99127670Y-91342020D01*
X99127720Y-91137897D01*
X99127733Y-90926753D01*
X99127733Y-89306400D01*
X99030946Y-89306400D01*
G37*
X99030946Y-89306400D02*
X98917007Y-89295535D01*
X98809384Y-89263918D01*
X98710385Y-89213015D01*
X98622316Y-89144293D01*
X98547484Y-89059219D01*
X98489616Y-88962232D01*
X98449995Y-88855964D01*
X98431427Y-88748950D01*
X98432566Y-88643300D01*
X98452070Y-88541125D01*
X98488594Y-88444534D01*
X98540795Y-88355638D01*
X98607327Y-88276546D01*
X98686848Y-88209369D01*
X98778013Y-88156217D01*
X98879477Y-88119199D01*
X98989898Y-88100427D01*
X99039794Y-88098489D01*
X99127733Y-88098489D01*
X99127733Y-88046560D01*
X99124889Y-88010253D01*
X99113089Y-87983355D01*
X99089351Y-87956249D01*
X99050969Y-87917867D01*
X96859398Y-87917867D01*
X96597261Y-87917876D01*
X96356759Y-87917908D01*
X96136952Y-87917972D01*
X95936899Y-87918076D01*
X95755656Y-87918227D01*
X95592284Y-87918434D01*
X95445840Y-87918706D01*
X95315383Y-87919050D01*
X95199971Y-87919474D01*
X95098662Y-87919987D01*
X95010516Y-87920597D01*
X94934590Y-87921312D01*
X94869943Y-87922140D01*
X94815633Y-87923089D01*
X94770720Y-87924167D01*
X94734260Y-87925383D01*
X94705313Y-87926745D01*
X94682937Y-87928261D01*
X94666191Y-87929938D01*
X94654132Y-87931786D01*
X94645820Y-87933813D01*
X94640313Y-87936025D01*
X94638463Y-87937108D01*
X94631451Y-87941271D01*
X94625004Y-87944805D01*
X94619100Y-87948635D01*
X94613714Y-87953682D01*
X94608822Y-87960871D01*
X94604402Y-87971123D01*
X94600428Y-87985364D01*
X94596879Y-88004514D01*
X94593730Y-88029499D01*
X94590958Y-88061240D01*
X94588539Y-88100662D01*
X94586449Y-88148686D01*
X94584665Y-88206237D01*
X94583163Y-88274237D01*
X94581920Y-88353610D01*
X94580911Y-88445279D01*
X94580115Y-88550166D01*
X94579506Y-88669196D01*
X94579061Y-88803290D01*
X94578757Y-88953373D01*
X94578570Y-89120367D01*
X94578476Y-89305196D01*
X94578452Y-89508783D01*
X94578475Y-89732050D01*
X94578520Y-89975922D01*
X94578563Y-90241321D01*
X94578568Y-90279704D01*
X94578611Y-90546682D01*
X94578682Y-90792002D01*
X94578787Y-91016583D01*
X94578934Y-91221345D01*
X94579131Y-91407206D01*
X94579384Y-91575088D01*
X94579700Y-91725908D01*
X94580087Y-91860587D01*
X94580553Y-91980044D01*
X94581103Y-92085199D01*
X94581747Y-92176971D01*
X94582489Y-92256279D01*
X94583339Y-92324043D01*
X94584303Y-92381182D01*
X94585389Y-92428617D01*
X94586603Y-92467266D01*
X94587953Y-92498049D01*
X94589445Y-92521885D01*
X94591089Y-92539694D01*
X94592889Y-92552395D01*
X94594855Y-92560908D01*
X94596523Y-92565266D01*
X94600094Y-92573728D01*
X94602730Y-92581497D01*
X94605366Y-92588602D01*
X94608938Y-92595073D01*
X94614379Y-92600939D01*
X94622625Y-92606229D01*
X94634610Y-92610974D01*
X94651269Y-92615202D01*
X94673537Y-92618943D01*
X94702348Y-92622227D01*
X94738637Y-92625083D01*
X94783339Y-92627540D01*
X94837389Y-92629629D01*
X94901721Y-92631378D01*
X94977270Y-92632817D01*
X95064970Y-92633976D01*
X95165757Y-92634883D01*
X95280566Y-92635569D01*
X95410330Y-92636063D01*
X95555985Y-92636395D01*
X95718465Y-92636593D01*
X95898705Y-92636687D01*
X96097640Y-92636708D01*
X96316204Y-92636685D01*
X96555332Y-92636646D01*
X96815960Y-92636622D01*
X96858111Y-92636622D01*
X97121008Y-92636636D01*
X97362268Y-92636661D01*
X97582835Y-92636671D01*
X97783648Y-92636642D01*
X97965651Y-92636548D01*
X98129784Y-92636362D01*
X98276989Y-92636059D01*
X98408208Y-92635614D01*
X98518133Y-92635034D01*
X98518133Y-92332197D01*
X98460289Y-92292407D01*
X98444521Y-92281236D01*
X98430559Y-92271166D01*
X98417216Y-92262138D01*
X98403307Y-92254097D01*
X98387644Y-92246986D01*
X98369042Y-92240747D01*
X98346314Y-92235325D01*
X98318273Y-92230662D01*
X98283733Y-92226701D01*
X98241508Y-92223385D01*
X98190411Y-92220659D01*
X98129256Y-92218464D01*
X98056856Y-92216745D01*
X97972025Y-92215444D01*
X97873578Y-92214505D01*
X97760326Y-92213870D01*
X97631084Y-92213484D01*
X97484666Y-92213288D01*
X97319884Y-92213227D01*
X97135553Y-92213243D01*
X96930487Y-92213280D01*
X96807867Y-92213289D01*
X96590918Y-92213265D01*
X96395358Y-92213231D01*
X96220001Y-92213243D01*
X96063659Y-92213358D01*
X95925143Y-92213630D01*
X95803266Y-92214118D01*
X95696840Y-92214876D01*
X95604678Y-92215962D01*
X95525591Y-92217431D01*
X95458392Y-92219340D01*
X95401893Y-92221744D01*
X95354907Y-92224701D01*
X95316245Y-92228266D01*
X95284720Y-92232495D01*
X95259145Y-92237446D01*
X95238330Y-92243173D01*
X95221089Y-92249733D01*
X95206235Y-92257183D01*
X95192578Y-92265579D01*
X95178931Y-92274976D01*
X95164107Y-92285432D01*
X95155217Y-92291523D01*
X95097600Y-92330296D01*
X95097600Y-91798732D01*
X95097635Y-91675483D01*
X95097785Y-91572987D01*
X95098122Y-91489420D01*
X95098714Y-91422956D01*
X95099633Y-91371771D01*
X95100949Y-91334041D01*
X95102731Y-91307940D01*
X95105049Y-91291644D01*
X95107974Y-91283328D01*
X95111576Y-91281168D01*
X95115925Y-91283339D01*
X95117355Y-91284535D01*
X95154427Y-91309685D01*
X95207228Y-91335583D01*
X95269230Y-91359192D01*
X95295643Y-91367461D01*
X95313584Y-91372078D01*
X95334645Y-91375979D01*
X95360911Y-91379248D01*
X95394468Y-91381966D01*
X95437401Y-91384215D01*
X95491796Y-91386077D01*
X95559738Y-91387636D01*
X95643312Y-91388972D01*
X95744605Y-91390169D01*
X95865700Y-91391308D01*
X95910400Y-91391685D01*
X96035551Y-91392702D01*
X96139918Y-91393460D01*
X96225293Y-91393903D01*
X96293467Y-91393970D01*
X96346235Y-91393605D01*
X96385386Y-91392748D01*
X96412715Y-91391341D01*
X96430014Y-91389325D01*
X96439074Y-91386643D01*
X96441688Y-91383236D01*
X96439649Y-91379044D01*
X96435333Y-91374571D01*
X96422398Y-91364216D01*
X96393324Y-91342158D01*
X96350241Y-91309957D01*
X96295282Y-91269174D01*
X96230577Y-91221370D01*
X96158258Y-91168105D01*
X96080456Y-91110940D01*
X95999302Y-91051437D01*
X95916928Y-90991155D01*
X95835464Y-90931655D01*
X95757043Y-90874498D01*
X95683796Y-90821245D01*
X95617853Y-90773457D01*
X95561346Y-90732693D01*
X95516407Y-90700516D01*
X95485166Y-90678485D01*
X95478534Y-90673917D01*
X95441631Y-90650996D01*
X95393641Y-90624188D01*
X95344103Y-90598789D01*
X95337423Y-90595568D01*
X95289228Y-90573890D01*
X95251666Y-90561304D01*
X95215840Y-90555574D01*
X95173800Y-90554456D01*
X95097600Y-90555090D01*
X95097600Y-89400651D01*
X95191331Y-89491815D01*
X95241225Y-89538612D01*
X95297705Y-89588899D01*
X95351974Y-89634944D01*
X95377327Y-89655369D01*
X95416872Y-89685807D01*
X95470084Y-89725862D01*
X95535333Y-89774361D01*
X95610989Y-89830135D01*
X95695423Y-89892011D01*
X95787006Y-89958819D01*
X95884108Y-90029387D01*
X95985099Y-90102545D01*
X96088350Y-90177121D01*
X96192232Y-90251944D01*
X96295115Y-90325843D01*
X96395369Y-90397646D01*
X96491364Y-90466184D01*
X96581473Y-90530284D01*
X96664064Y-90588775D01*
X96737508Y-90640486D01*
X96800176Y-90684247D01*
X96850439Y-90718885D01*
X96886666Y-90743230D01*
X96907229Y-90756111D01*
X96911332Y-90757869D01*
X96922658Y-90749910D01*
X96949838Y-90729115D01*
X96991171Y-90696847D01*
X97044956Y-90654470D01*
X97109494Y-90603347D01*
X97183082Y-90544841D01*
X97264022Y-90480314D01*
X97350612Y-90411131D01*
X97441152Y-90338653D01*
X97533940Y-90264246D01*
X97608298Y-90204517D01*
X97608298Y-89193511D01*
X97595341Y-89187602D01*
X97573092Y-89173272D01*
X97571609Y-89172225D01*
X97541456Y-89153438D01*
X97504625Y-89133791D01*
X97496489Y-89129892D01*
X97488060Y-89126356D01*
X97477941Y-89123230D01*
X97464740Y-89120486D01*
X97447062Y-89118092D01*
X97423516Y-89116019D01*
X97392707Y-89114235D01*
X97353243Y-89112712D01*
X97303731Y-89111419D01*
X97242777Y-89110326D01*
X97168989Y-89109403D01*
X97080972Y-89108619D01*
X96977335Y-89107945D01*
X96856684Y-89107350D01*
X96717626Y-89106805D01*
X96558768Y-89106279D01*
X96379911Y-89105745D01*
X96194793Y-89105206D01*
X96030855Y-89104772D01*
X95886697Y-89104509D01*
X95760921Y-89104484D01*
X95652129Y-89104765D01*
X95558923Y-89105419D01*
X95479903Y-89106514D01*
X95413672Y-89108118D01*
X95358830Y-89110297D01*
X95313979Y-89113119D01*
X95277722Y-89116651D01*
X95248659Y-89120961D01*
X95225391Y-89126117D01*
X95206521Y-89132185D01*
X95190649Y-89139233D01*
X95176378Y-89147329D01*
X95162309Y-89156540D01*
X95149842Y-89165040D01*
X95123548Y-89182176D01*
X95105963Y-89192322D01*
X95102743Y-89193511D01*
X95101666Y-89182604D01*
X95100665Y-89151411D01*
X95099765Y-89102223D01*
X95098990Y-89037333D01*
X95098363Y-88959030D01*
X95097909Y-88869607D01*
X95097651Y-88771356D01*
X95097600Y-88702445D01*
X95097820Y-88597452D01*
X95098452Y-88500610D01*
X95099451Y-88414107D01*
X95100773Y-88340132D01*
X95102374Y-88280874D01*
X95104209Y-88238520D01*
X95106235Y-88215260D01*
X95107507Y-88211378D01*
X95122409Y-88219076D01*
X95130440Y-88227074D01*
X95147566Y-88240246D01*
X95177817Y-88257485D01*
X95202378Y-88269407D01*
X95261289Y-88296045D01*
X96438155Y-88299120D01*
X97615022Y-88302195D01*
X97615022Y-88747853D01*
X97614858Y-88845670D01*
X97614389Y-88936064D01*
X97613653Y-89016630D01*
X97612684Y-89084962D01*
X97611520Y-89138656D01*
X97610197Y-89175305D01*
X97608751Y-89192504D01*
X97608298Y-89193511D01*
X97608298Y-90204517D01*
X97627278Y-90189270D01*
X97719463Y-90115090D01*
X97808796Y-90043069D01*
X97893576Y-89974569D01*
X97972102Y-89910955D01*
X98042674Y-89853588D01*
X98103591Y-89803833D01*
X98153153Y-89763052D01*
X98173822Y-89745888D01*
X98274484Y-89659596D01*
X98357741Y-89582997D01*
X98425562Y-89514183D01*
X98479911Y-89451248D01*
X98487278Y-89441867D01*
X98517883Y-89402356D01*
X98518133Y-90534116D01*
X98470156Y-90528827D01*
X98412812Y-90532130D01*
X98344537Y-90553661D01*
X98264788Y-90593635D01*
X98192505Y-90638943D01*
X98169860Y-90655161D01*
X98132304Y-90683214D01*
X98081979Y-90721430D01*
X98021027Y-90768137D01*
X97951589Y-90821661D01*
X97875806Y-90880331D01*
X97795820Y-90942475D01*
X97713772Y-91006421D01*
X97631804Y-91070495D01*
X97552057Y-91133027D01*
X97476673Y-91192343D01*
X97407793Y-91246771D01*
X97347558Y-91294639D01*
X97298111Y-91334275D01*
X97261592Y-91364006D01*
X97240142Y-91382161D01*
X97236844Y-91385220D01*
X97244851Y-91388079D01*
X97275145Y-91390293D01*
X97327444Y-91391857D01*
X97401469Y-91392767D01*
X97496937Y-91393020D01*
X97613566Y-91392613D01*
X97733555Y-91391704D01*
X97865667Y-91390382D01*
X97977406Y-91388857D01*
X98070975Y-91386881D01*
X98148581Y-91384206D01*
X98212426Y-91380582D01*
X98264717Y-91375761D01*
X98307656Y-91369494D01*
X98343449Y-91361532D01*
X98374300Y-91351627D01*
X98402414Y-91339531D01*
X98429995Y-91324993D01*
X98455034Y-91310311D01*
X98518133Y-91272314D01*
X98518133Y-92332197D01*
X98518133Y-92635034D01*
X98524383Y-92635001D01*
X98626456Y-92634195D01*
X98715367Y-92633170D01*
X98792059Y-92631900D01*
X98857473Y-92630360D01*
X98912551Y-92628524D01*
X98958235Y-92626367D01*
X98995466Y-92623863D01*
X99025187Y-92620987D01*
X99048338Y-92617713D01*
X99065861Y-92614015D01*
X99078699Y-92609869D01*
X99087792Y-92605247D01*
X99094082Y-92600126D01*
X99098512Y-92594478D01*
X99102022Y-92588279D01*
X99105555Y-92581504D01*
X99109124Y-92575508D01*
X99111700Y-92570275D01*
X99114028Y-92562099D01*
X99116122Y-92549886D01*
X99117993Y-92532541D01*
X99119653Y-92508969D01*
X99121116Y-92478077D01*
X99122392Y-92438768D01*
X99123496Y-92389950D01*
X99124439Y-92330527D01*
X99125233Y-92259404D01*
X99125891Y-92175488D01*
X99126425Y-92077683D01*
X99126847Y-91964894D01*
X99127171Y-91836029D01*
X99127408Y-91689991D01*
X99127570Y-91525686D01*
X99127670Y-91342020D01*
X99127720Y-91137897D01*
X99127733Y-90926753D01*
X99127733Y-89306400D01*
X99030946Y-89306400D01*
D11*
G04 #@! TO.C,J4*
X87630000Y-100330000D02*
X86360000Y-100330000D01*
X87630000Y-101600000D02*
X87630000Y-100330000D01*
X85317071Y-129920000D02*
X84920000Y-129920000D01*
X85317071Y-129160000D02*
X84920000Y-129160000D01*
X76260000Y-129920000D02*
X82260000Y-129920000D01*
X76260000Y-129160000D02*
X76260000Y-129920000D01*
X82260000Y-129160000D02*
X76260000Y-129160000D01*
X84920000Y-128270000D02*
X82260000Y-128270000D01*
X85317071Y-127380000D02*
X84920000Y-127380000D01*
X85317071Y-126620000D02*
X84920000Y-126620000D01*
X76260000Y-127380000D02*
X82260000Y-127380000D01*
X76260000Y-126620000D02*
X76260000Y-127380000D01*
X82260000Y-126620000D02*
X76260000Y-126620000D01*
X84920000Y-125730000D02*
X82260000Y-125730000D01*
X85317071Y-124840000D02*
X84920000Y-124840000D01*
X85317071Y-124080000D02*
X84920000Y-124080000D01*
X76260000Y-124840000D02*
X82260000Y-124840000D01*
X76260000Y-124080000D02*
X76260000Y-124840000D01*
X82260000Y-124080000D02*
X76260000Y-124080000D01*
X84920000Y-123190000D02*
X82260000Y-123190000D01*
X85317071Y-122300000D02*
X84920000Y-122300000D01*
X85317071Y-121540000D02*
X84920000Y-121540000D01*
X76260000Y-122300000D02*
X82260000Y-122300000D01*
X76260000Y-121540000D02*
X76260000Y-122300000D01*
X82260000Y-121540000D02*
X76260000Y-121540000D01*
X84920000Y-120650000D02*
X82260000Y-120650000D01*
X85317071Y-119760000D02*
X84920000Y-119760000D01*
X85317071Y-119000000D02*
X84920000Y-119000000D01*
X76260000Y-119760000D02*
X82260000Y-119760000D01*
X76260000Y-119000000D02*
X76260000Y-119760000D01*
X82260000Y-119000000D02*
X76260000Y-119000000D01*
X84920000Y-118110000D02*
X82260000Y-118110000D01*
X85317071Y-117220000D02*
X84920000Y-117220000D01*
X85317071Y-116460000D02*
X84920000Y-116460000D01*
X76260000Y-117220000D02*
X82260000Y-117220000D01*
X76260000Y-116460000D02*
X76260000Y-117220000D01*
X82260000Y-116460000D02*
X76260000Y-116460000D01*
X84920000Y-115570000D02*
X82260000Y-115570000D01*
X85317071Y-114680000D02*
X84920000Y-114680000D01*
X85317071Y-113920000D02*
X84920000Y-113920000D01*
X76260000Y-114680000D02*
X82260000Y-114680000D01*
X76260000Y-113920000D02*
X76260000Y-114680000D01*
X82260000Y-113920000D02*
X76260000Y-113920000D01*
X84920000Y-113030000D02*
X82260000Y-113030000D01*
X85317071Y-112140000D02*
X84920000Y-112140000D01*
X85317071Y-111380000D02*
X84920000Y-111380000D01*
X76260000Y-112140000D02*
X82260000Y-112140000D01*
X76260000Y-111380000D02*
X76260000Y-112140000D01*
X82260000Y-111380000D02*
X76260000Y-111380000D01*
X84920000Y-110490000D02*
X82260000Y-110490000D01*
X85317071Y-109600000D02*
X84920000Y-109600000D01*
X85317071Y-108840000D02*
X84920000Y-108840000D01*
X76260000Y-109600000D02*
X82260000Y-109600000D01*
X76260000Y-108840000D02*
X76260000Y-109600000D01*
X82260000Y-108840000D02*
X76260000Y-108840000D01*
X84920000Y-107950000D02*
X82260000Y-107950000D01*
X85317071Y-107060000D02*
X84920000Y-107060000D01*
X85317071Y-106300000D02*
X84920000Y-106300000D01*
X76260000Y-107060000D02*
X82260000Y-107060000D01*
X76260000Y-106300000D02*
X76260000Y-107060000D01*
X82260000Y-106300000D02*
X76260000Y-106300000D01*
X84920000Y-105410000D02*
X82260000Y-105410000D01*
X85317071Y-104520000D02*
X84920000Y-104520000D01*
X85317071Y-103760000D02*
X84920000Y-103760000D01*
X76260000Y-104520000D02*
X82260000Y-104520000D01*
X76260000Y-103760000D02*
X76260000Y-104520000D01*
X82260000Y-103760000D02*
X76260000Y-103760000D01*
X84920000Y-102870000D02*
X82260000Y-102870000D01*
X85250000Y-101980000D02*
X84920000Y-101980000D01*
X85250000Y-101220000D02*
X84920000Y-101220000D01*
X82260000Y-101880000D02*
X76260000Y-101880000D01*
X82260000Y-101760000D02*
X76260000Y-101760000D01*
X82260000Y-101640000D02*
X76260000Y-101640000D01*
X82260000Y-101520000D02*
X76260000Y-101520000D01*
X82260000Y-101400000D02*
X76260000Y-101400000D01*
X82260000Y-101280000D02*
X76260000Y-101280000D01*
X76260000Y-101980000D02*
X82260000Y-101980000D01*
X76260000Y-101220000D02*
X76260000Y-101980000D01*
X82260000Y-101220000D02*
X76260000Y-101220000D01*
X82260000Y-100270000D02*
X84920000Y-100270000D01*
X82260000Y-130870000D02*
X82260000Y-100270000D01*
X84920000Y-130870000D02*
X82260000Y-130870000D01*
X84920000Y-100270000D02*
X84920000Y-130870000D01*
G04 #@! TO.C,J3*
X172720000Y-100270000D02*
X171610000Y-100270000D01*
X171610000Y-100270000D02*
X171610000Y-101600000D01*
X182810000Y-100270000D02*
X182810000Y-130870000D01*
X182810000Y-130870000D02*
X174180000Y-130870000D01*
X174180000Y-100270000D02*
X174180000Y-130870000D01*
X182810000Y-100270000D02*
X174180000Y-100270000D01*
X182810000Y-128270000D02*
X174180000Y-128270000D01*
X182810000Y-125730000D02*
X174180000Y-125730000D01*
X182810000Y-123190000D02*
X174180000Y-123190000D01*
X182810000Y-120650000D02*
X174180000Y-120650000D01*
X182810000Y-118110000D02*
X174180000Y-118110000D01*
X182810000Y-115570000D02*
X174180000Y-115570000D01*
X182810000Y-113030000D02*
X174180000Y-113030000D01*
X182810000Y-110490000D02*
X174180000Y-110490000D01*
X182810000Y-107950000D02*
X174180000Y-107950000D01*
X182810000Y-105410000D02*
X174180000Y-105410000D01*
X182810000Y-102870000D02*
X174180000Y-102870000D01*
X174180000Y-129900000D02*
X173770000Y-129900000D01*
X174180000Y-129180000D02*
X173770000Y-129180000D01*
X174180000Y-127360000D02*
X173770000Y-127360000D01*
X174180000Y-126640000D02*
X173770000Y-126640000D01*
X174180000Y-124820000D02*
X173770000Y-124820000D01*
X174180000Y-124100000D02*
X173770000Y-124100000D01*
X174180000Y-122280000D02*
X173770000Y-122280000D01*
X174180000Y-121560000D02*
X173770000Y-121560000D01*
X174180000Y-119740000D02*
X173770000Y-119740000D01*
X174180000Y-119020000D02*
X173770000Y-119020000D01*
X174180000Y-117200000D02*
X173770000Y-117200000D01*
X174180000Y-116480000D02*
X173770000Y-116480000D01*
X174180000Y-114660000D02*
X173770000Y-114660000D01*
X174180000Y-113940000D02*
X173770000Y-113940000D01*
X174180000Y-112120000D02*
X173770000Y-112120000D01*
X174180000Y-111400000D02*
X173770000Y-111400000D01*
X174180000Y-109580000D02*
X173770000Y-109580000D01*
X174180000Y-108860000D02*
X173770000Y-108860000D01*
X174180000Y-107040000D02*
X173770000Y-107040000D01*
X174180000Y-106320000D02*
X173770000Y-106320000D01*
X174180000Y-104500000D02*
X173770000Y-104500000D01*
X174180000Y-103780000D02*
X173770000Y-103780000D01*
X174180000Y-101960000D02*
X173830000Y-101960000D01*
X174180000Y-101240000D02*
X173830000Y-101240000D01*
X182810000Y-102751900D02*
X174180000Y-102751900D01*
X182810000Y-102633805D02*
X174180000Y-102633805D01*
X182810000Y-102515710D02*
X174180000Y-102515710D01*
X182810000Y-102397615D02*
X174180000Y-102397615D01*
X182810000Y-102279520D02*
X174180000Y-102279520D01*
X182810000Y-102161425D02*
X174180000Y-102161425D01*
X182810000Y-102043330D02*
X174180000Y-102043330D01*
X182810000Y-101925235D02*
X174180000Y-101925235D01*
X182810000Y-101807140D02*
X174180000Y-101807140D01*
X182810000Y-101689045D02*
X174180000Y-101689045D01*
X182810000Y-101570950D02*
X174180000Y-101570950D01*
X182810000Y-101452855D02*
X174180000Y-101452855D01*
X182810000Y-101334760D02*
X174180000Y-101334760D01*
X182810000Y-101216665D02*
X174180000Y-101216665D01*
X182810000Y-101098570D02*
X174180000Y-101098570D01*
X182810000Y-100980475D02*
X174180000Y-100980475D01*
X182810000Y-100862380D02*
X174180000Y-100862380D01*
X182810000Y-100744285D02*
X174180000Y-100744285D01*
X182810000Y-100626190D02*
X174180000Y-100626190D01*
X182810000Y-100508095D02*
X174180000Y-100508095D01*
X182810000Y-100390000D02*
X174180000Y-100390000D01*
G04 #@! TO.C,R18*
X153440000Y-121920000D02*
X154130000Y-121920000D01*
X164060000Y-121920000D02*
X163370000Y-121920000D01*
X154130000Y-120200000D02*
X163370000Y-120200000D01*
X154130000Y-123640000D02*
X154130000Y-120200000D01*
X163370000Y-123640000D02*
X154130000Y-123640000D01*
X163370000Y-120200000D02*
X163370000Y-123640000D01*
G04 #@! TO.C,R16*
X105640000Y-121920000D02*
X104950000Y-121920000D01*
X95020000Y-121920000D02*
X95710000Y-121920000D01*
X104950000Y-123640000D02*
X95710000Y-123640000D01*
X104950000Y-120200000D02*
X104950000Y-123640000D01*
X95710000Y-120200000D02*
X104950000Y-120200000D01*
X95710000Y-123640000D02*
X95710000Y-120200000D01*
G04 #@! TO.C,R15*
X105640000Y-127000000D02*
X104950000Y-127000000D01*
X95020000Y-127000000D02*
X95710000Y-127000000D01*
X104950000Y-128720000D02*
X95710000Y-128720000D01*
X104950000Y-125280000D02*
X104950000Y-128720000D01*
X95710000Y-125280000D02*
X104950000Y-125280000D01*
X95710000Y-128720000D02*
X95710000Y-125280000D01*
G04 #@! TO.C,R14*
X123420000Y-127000000D02*
X122730000Y-127000000D01*
X112800000Y-127000000D02*
X113490000Y-127000000D01*
X122730000Y-128720000D02*
X113490000Y-128720000D01*
X122730000Y-125280000D02*
X122730000Y-128720000D01*
X113490000Y-125280000D02*
X122730000Y-125280000D01*
X113490000Y-128720000D02*
X113490000Y-125280000D01*
G04 #@! TO.C,R13*
X123420000Y-121920000D02*
X122730000Y-121920000D01*
X112800000Y-121920000D02*
X113490000Y-121920000D01*
X122730000Y-123640000D02*
X113490000Y-123640000D01*
X122730000Y-120200000D02*
X122730000Y-123640000D01*
X113490000Y-120200000D02*
X122730000Y-120200000D01*
X113490000Y-123640000D02*
X113490000Y-120200000D01*
G04 #@! TO.C,R12*
X146280000Y-127000000D02*
X145590000Y-127000000D01*
X135660000Y-127000000D02*
X136350000Y-127000000D01*
X145590000Y-128720000D02*
X136350000Y-128720000D01*
X145590000Y-125280000D02*
X145590000Y-128720000D01*
X136350000Y-125280000D02*
X145590000Y-125280000D01*
X136350000Y-128720000D02*
X136350000Y-125280000D01*
G04 #@! TO.C,R11*
X153440000Y-127000000D02*
X154130000Y-127000000D01*
X164060000Y-127000000D02*
X163370000Y-127000000D01*
X154130000Y-125280000D02*
X163370000Y-125280000D01*
X154130000Y-128720000D02*
X154130000Y-125280000D01*
X163370000Y-128720000D02*
X154130000Y-128720000D01*
X163370000Y-125280000D02*
X163370000Y-128720000D01*
G04 #@! TO.C,R8*
X170180000Y-74700000D02*
X170180000Y-75390000D01*
X170180000Y-85320000D02*
X170180000Y-84630000D01*
X171900000Y-75390000D02*
X171900000Y-84630000D01*
X168460000Y-75390000D02*
X171900000Y-75390000D01*
X168460000Y-84630000D02*
X168460000Y-75390000D01*
X171900000Y-84630000D02*
X168460000Y-84630000D01*
G04 #@! TO.C,R6*
X131040000Y-81280000D02*
X130350000Y-81280000D01*
X120420000Y-81280000D02*
X121110000Y-81280000D01*
X130350000Y-83000000D02*
X121110000Y-83000000D01*
X130350000Y-79560000D02*
X130350000Y-83000000D01*
X121110000Y-79560000D02*
X130350000Y-79560000D01*
X121110000Y-83000000D02*
X121110000Y-79560000D01*
G04 #@! TO.C,R5*
X128040000Y-86360000D02*
X128730000Y-86360000D01*
X138660000Y-86360000D02*
X137970000Y-86360000D01*
X128730000Y-84640000D02*
X137970000Y-84640000D01*
X128730000Y-88080000D02*
X128730000Y-84640000D01*
X137970000Y-88080000D02*
X128730000Y-88080000D01*
X137970000Y-84640000D02*
X137970000Y-88080000D01*
G04 #@! TO.C,R4*
X115800000Y-104140000D02*
X115110000Y-104140000D01*
X105180000Y-104140000D02*
X105870000Y-104140000D01*
X115110000Y-105860000D02*
X105870000Y-105860000D01*
X115110000Y-102420000D02*
X115110000Y-105860000D01*
X105870000Y-102420000D02*
X115110000Y-102420000D01*
X105870000Y-105860000D02*
X105870000Y-102420000D01*
G04 #@! TO.C,R3*
X158980000Y-104140000D02*
X158290000Y-104140000D01*
X148360000Y-104140000D02*
X149050000Y-104140000D01*
X158290000Y-105860000D02*
X149050000Y-105860000D01*
X158290000Y-102420000D02*
X158290000Y-105860000D01*
X149050000Y-102420000D02*
X158290000Y-102420000D01*
X149050000Y-105860000D02*
X149050000Y-102420000D01*
G04 #@! TO.C,R2*
X102640000Y-63500000D02*
X103330000Y-63500000D01*
X113260000Y-63500000D02*
X112570000Y-63500000D01*
X103330000Y-61780000D02*
X112570000Y-61780000D01*
X103330000Y-65220000D02*
X103330000Y-61780000D01*
X112570000Y-65220000D02*
X103330000Y-65220000D01*
X112570000Y-61780000D02*
X112570000Y-65220000D01*
G04 #@! TO.C,R1*
X153900000Y-63500000D02*
X153210000Y-63500000D01*
X143280000Y-63500000D02*
X143970000Y-63500000D01*
X153210000Y-65220000D02*
X143970000Y-65220000D01*
X153210000Y-61780000D02*
X153210000Y-65220000D01*
X143970000Y-61780000D02*
X153210000Y-61780000D01*
X143970000Y-65220000D02*
X143970000Y-61780000D01*
G04 #@! TO.C,Q22*
X155520000Y-46460000D02*
X155520000Y-50060000D01*
X155508478Y-50098478D02*
G75*
G02*
X151070000Y-48260000I-1838478J1838478D01*
G01*
X155508478Y-46421522D02*
G75*
G03*
X151070000Y-48260000I-1838478J-1838478D01*
G01*
G04 #@! TO.C,Q21*
X116150000Y-46460000D02*
X116150000Y-50060000D01*
X116138478Y-50098478D02*
G75*
G02*
X111700000Y-48260000I-1838478J1838478D01*
G01*
X116138478Y-46421522D02*
G75*
G03*
X111700000Y-48260000I-1838478J-1838478D01*
G01*
G04 #@! TO.C,Q8*
X162030000Y-76890000D02*
X165630000Y-76890000D01*
X165668478Y-76901522D02*
G75*
G02*
X163830000Y-81340000I-1838478J-1838478D01*
G01*
X161991522Y-76901522D02*
G75*
G03*
X163830000Y-81340000I1838478J-1838478D01*
G01*
G04 #@! TO.C,Q6*
X125200000Y-71810000D02*
X128800000Y-71810000D01*
X128838478Y-71821522D02*
G75*
G02*
X127000000Y-76260000I-1838478J-1838478D01*
G01*
X125161522Y-71821522D02*
G75*
G03*
X127000000Y-76260000I1838478J-1838478D01*
G01*
G04 #@! TO.C,Q5*
X131550000Y-92130000D02*
X135150000Y-92130000D01*
X135188478Y-92141522D02*
G75*
G02*
X133350000Y-96580000I-1838478J-1838478D01*
G01*
X131511522Y-92141522D02*
G75*
G03*
X133350000Y-96580000I1838478J-1838478D01*
G01*
G04 #@! TO.C,Q4*
X111230000Y-94670000D02*
X114830000Y-94670000D01*
X114868478Y-94681522D02*
G75*
G02*
X113030000Y-99120000I-1838478J-1838478D01*
G01*
X111191522Y-94681522D02*
G75*
G03*
X113030000Y-99120000I1838478J-1838478D01*
G01*
G04 #@! TO.C,Q3*
X154410000Y-94670000D02*
X158010000Y-94670000D01*
X158048478Y-94681522D02*
G75*
G02*
X156210000Y-99120000I-1838478J-1838478D01*
G01*
X154371522Y-94681522D02*
G75*
G03*
X156210000Y-99120000I1838478J-1838478D01*
G01*
G04 #@! TO.C,Q2*
X103610000Y-69270000D02*
X107210000Y-69270000D01*
X107248478Y-69281522D02*
G75*
G02*
X105410000Y-73720000I-1838478J-1838478D01*
G01*
X103571522Y-69281522D02*
G75*
G03*
X105410000Y-73720000I1838478J-1838478D01*
G01*
G04 #@! TO.C,Q1*
X144250000Y-69270000D02*
X147850000Y-69270000D01*
X147888478Y-69281522D02*
G75*
G02*
X146050000Y-73720000I-1838478J-1838478D01*
G01*
X144211522Y-69281522D02*
G75*
G03*
X146050000Y-73720000I1838478J-1838478D01*
G01*
G04 #@! TO.C,J5*
X148650000Y-135950000D02*
X148650000Y-134620000D01*
X147320000Y-135950000D02*
X148650000Y-135950000D01*
X146050000Y-135950000D02*
X146050000Y-133290000D01*
X146050000Y-133290000D02*
X118050000Y-133290000D01*
X146050000Y-135950000D02*
X118050000Y-135950000D01*
X118050000Y-135950000D02*
X118050000Y-133290000D01*
G04 #@! TO.C,J2*
X87630000Y-52070000D02*
X86360000Y-52070000D01*
X87630000Y-53340000D02*
X87630000Y-52070000D01*
X85317071Y-66420000D02*
X84920000Y-66420000D01*
X85317071Y-65660000D02*
X84920000Y-65660000D01*
X76260000Y-66420000D02*
X82260000Y-66420000D01*
X76260000Y-65660000D02*
X76260000Y-66420000D01*
X82260000Y-65660000D02*
X76260000Y-65660000D01*
X84920000Y-64770000D02*
X82260000Y-64770000D01*
X85317071Y-63880000D02*
X84920000Y-63880000D01*
X85317071Y-63120000D02*
X84920000Y-63120000D01*
X76260000Y-63880000D02*
X82260000Y-63880000D01*
X76260000Y-63120000D02*
X76260000Y-63880000D01*
X82260000Y-63120000D02*
X76260000Y-63120000D01*
X84920000Y-62230000D02*
X82260000Y-62230000D01*
X85317071Y-61340000D02*
X84920000Y-61340000D01*
X85317071Y-60580000D02*
X84920000Y-60580000D01*
X76260000Y-61340000D02*
X82260000Y-61340000D01*
X76260000Y-60580000D02*
X76260000Y-61340000D01*
X82260000Y-60580000D02*
X76260000Y-60580000D01*
X84920000Y-59690000D02*
X82260000Y-59690000D01*
X85317071Y-58800000D02*
X84920000Y-58800000D01*
X85317071Y-58040000D02*
X84920000Y-58040000D01*
X76260000Y-58800000D02*
X82260000Y-58800000D01*
X76260000Y-58040000D02*
X76260000Y-58800000D01*
X82260000Y-58040000D02*
X76260000Y-58040000D01*
X84920000Y-57150000D02*
X82260000Y-57150000D01*
X85317071Y-56260000D02*
X84920000Y-56260000D01*
X85317071Y-55500000D02*
X84920000Y-55500000D01*
X76260000Y-56260000D02*
X82260000Y-56260000D01*
X76260000Y-55500000D02*
X76260000Y-56260000D01*
X82260000Y-55500000D02*
X76260000Y-55500000D01*
X84920000Y-54610000D02*
X82260000Y-54610000D01*
X85250000Y-53720000D02*
X84920000Y-53720000D01*
X85250000Y-52960000D02*
X84920000Y-52960000D01*
X82260000Y-53620000D02*
X76260000Y-53620000D01*
X82260000Y-53500000D02*
X76260000Y-53500000D01*
X82260000Y-53380000D02*
X76260000Y-53380000D01*
X82260000Y-53260000D02*
X76260000Y-53260000D01*
X82260000Y-53140000D02*
X76260000Y-53140000D01*
X82260000Y-53020000D02*
X76260000Y-53020000D01*
X76260000Y-53720000D02*
X82260000Y-53720000D01*
X76260000Y-52960000D02*
X76260000Y-53720000D01*
X82260000Y-52960000D02*
X76260000Y-52960000D01*
X82260000Y-52010000D02*
X84920000Y-52010000D01*
X82260000Y-67370000D02*
X82260000Y-52010000D01*
X84920000Y-67370000D02*
X82260000Y-67370000D01*
X84920000Y-52010000D02*
X84920000Y-67370000D01*
G04 #@! TO.C,J1*
X172720000Y-52010000D02*
X171610000Y-52010000D01*
X171610000Y-52010000D02*
X171610000Y-53340000D01*
X182810000Y-52010000D02*
X182810000Y-67370000D01*
X182810000Y-67370000D02*
X174180000Y-67370000D01*
X174180000Y-52010000D02*
X174180000Y-67370000D01*
X182810000Y-52010000D02*
X174180000Y-52010000D01*
X182810000Y-64770000D02*
X174180000Y-64770000D01*
X182810000Y-62230000D02*
X174180000Y-62230000D01*
X182810000Y-59690000D02*
X174180000Y-59690000D01*
X182810000Y-57150000D02*
X174180000Y-57150000D01*
X182810000Y-54610000D02*
X174180000Y-54610000D01*
X174180000Y-66400000D02*
X173770000Y-66400000D01*
X174180000Y-65680000D02*
X173770000Y-65680000D01*
X174180000Y-63860000D02*
X173770000Y-63860000D01*
X174180000Y-63140000D02*
X173770000Y-63140000D01*
X174180000Y-61320000D02*
X173770000Y-61320000D01*
X174180000Y-60600000D02*
X173770000Y-60600000D01*
X174180000Y-58780000D02*
X173770000Y-58780000D01*
X174180000Y-58060000D02*
X173770000Y-58060000D01*
X174180000Y-56240000D02*
X173770000Y-56240000D01*
X174180000Y-55520000D02*
X173770000Y-55520000D01*
X174180000Y-53700000D02*
X173830000Y-53700000D01*
X174180000Y-52980000D02*
X173830000Y-52980000D01*
X182810000Y-54491900D02*
X174180000Y-54491900D01*
X182810000Y-54373805D02*
X174180000Y-54373805D01*
X182810000Y-54255710D02*
X174180000Y-54255710D01*
X182810000Y-54137615D02*
X174180000Y-54137615D01*
X182810000Y-54019520D02*
X174180000Y-54019520D01*
X182810000Y-53901425D02*
X174180000Y-53901425D01*
X182810000Y-53783330D02*
X174180000Y-53783330D01*
X182810000Y-53665235D02*
X174180000Y-53665235D01*
X182810000Y-53547140D02*
X174180000Y-53547140D01*
X182810000Y-53429045D02*
X174180000Y-53429045D01*
X182810000Y-53310950D02*
X174180000Y-53310950D01*
X182810000Y-53192855D02*
X174180000Y-53192855D01*
X182810000Y-53074760D02*
X174180000Y-53074760D01*
X182810000Y-52956665D02*
X174180000Y-52956665D01*
X182810000Y-52838570D02*
X174180000Y-52838570D01*
X182810000Y-52720475D02*
X174180000Y-52720475D01*
X182810000Y-52602380D02*
X174180000Y-52602380D01*
X182810000Y-52484285D02*
X174180000Y-52484285D01*
X182810000Y-52366190D02*
X174180000Y-52366190D01*
X182810000Y-52248095D02*
X174180000Y-52248095D01*
X182810000Y-52130000D02*
X174180000Y-52130000D01*
G04 #@! TO.C,C2*
X128235225Y-123645000D02*
X128235225Y-123145000D01*
X127985225Y-123395000D02*
X128485225Y-123395000D01*
X133391000Y-122204000D02*
X133391000Y-121636000D01*
X133351000Y-122438000D02*
X133351000Y-121402000D01*
X133311000Y-122597000D02*
X133311000Y-121243000D01*
X133271000Y-122725000D02*
X133271000Y-121115000D01*
X133231000Y-122835000D02*
X133231000Y-121005000D01*
X133191000Y-122931000D02*
X133191000Y-120909000D01*
X133151000Y-123018000D02*
X133151000Y-120822000D01*
X133111000Y-123098000D02*
X133111000Y-120742000D01*
X133071000Y-120880000D02*
X133071000Y-120669000D01*
X133071000Y-123171000D02*
X133071000Y-122960000D01*
X133031000Y-120880000D02*
X133031000Y-120601000D01*
X133031000Y-123239000D02*
X133031000Y-122960000D01*
X132991000Y-120880000D02*
X132991000Y-120537000D01*
X132991000Y-123303000D02*
X132991000Y-122960000D01*
X132951000Y-120880000D02*
X132951000Y-120477000D01*
X132951000Y-123363000D02*
X132951000Y-122960000D01*
X132911000Y-120880000D02*
X132911000Y-120420000D01*
X132911000Y-123420000D02*
X132911000Y-122960000D01*
X132871000Y-120880000D02*
X132871000Y-120366000D01*
X132871000Y-123474000D02*
X132871000Y-122960000D01*
X132831000Y-120880000D02*
X132831000Y-120315000D01*
X132831000Y-123525000D02*
X132831000Y-122960000D01*
X132791000Y-120880000D02*
X132791000Y-120267000D01*
X132791000Y-123573000D02*
X132791000Y-122960000D01*
X132751000Y-120880000D02*
X132751000Y-120221000D01*
X132751000Y-123619000D02*
X132751000Y-122960000D01*
X132711000Y-120880000D02*
X132711000Y-120177000D01*
X132711000Y-123663000D02*
X132711000Y-122960000D01*
X132671000Y-120880000D02*
X132671000Y-120135000D01*
X132671000Y-123705000D02*
X132671000Y-122960000D01*
X132631000Y-120880000D02*
X132631000Y-120094000D01*
X132631000Y-123746000D02*
X132631000Y-122960000D01*
X132591000Y-120880000D02*
X132591000Y-120056000D01*
X132591000Y-123784000D02*
X132591000Y-122960000D01*
X132551000Y-120880000D02*
X132551000Y-120019000D01*
X132551000Y-123821000D02*
X132551000Y-122960000D01*
X132511000Y-120880000D02*
X132511000Y-119983000D01*
X132511000Y-123857000D02*
X132511000Y-122960000D01*
X132471000Y-120880000D02*
X132471000Y-119949000D01*
X132471000Y-123891000D02*
X132471000Y-122960000D01*
X132431000Y-120880000D02*
X132431000Y-119916000D01*
X132431000Y-123924000D02*
X132431000Y-122960000D01*
X132391000Y-120880000D02*
X132391000Y-119885000D01*
X132391000Y-123955000D02*
X132391000Y-122960000D01*
X132351000Y-120880000D02*
X132351000Y-119855000D01*
X132351000Y-123985000D02*
X132351000Y-122960000D01*
X132311000Y-120880000D02*
X132311000Y-119825000D01*
X132311000Y-124015000D02*
X132311000Y-122960000D01*
X132271000Y-120880000D02*
X132271000Y-119798000D01*
X132271000Y-124042000D02*
X132271000Y-122960000D01*
X132231000Y-120880000D02*
X132231000Y-119771000D01*
X132231000Y-124069000D02*
X132231000Y-122960000D01*
X132191000Y-120880000D02*
X132191000Y-119745000D01*
X132191000Y-124095000D02*
X132191000Y-122960000D01*
X132151000Y-120880000D02*
X132151000Y-119720000D01*
X132151000Y-124120000D02*
X132151000Y-122960000D01*
X132111000Y-120880000D02*
X132111000Y-119696000D01*
X132111000Y-124144000D02*
X132111000Y-122960000D01*
X132071000Y-120880000D02*
X132071000Y-119673000D01*
X132071000Y-124167000D02*
X132071000Y-122960000D01*
X132031000Y-120880000D02*
X132031000Y-119652000D01*
X132031000Y-124188000D02*
X132031000Y-122960000D01*
X131991000Y-120880000D02*
X131991000Y-119630000D01*
X131991000Y-124210000D02*
X131991000Y-122960000D01*
X131951000Y-120880000D02*
X131951000Y-119610000D01*
X131951000Y-124230000D02*
X131951000Y-122960000D01*
X131911000Y-120880000D02*
X131911000Y-119591000D01*
X131911000Y-124249000D02*
X131911000Y-122960000D01*
X131871000Y-120880000D02*
X131871000Y-119572000D01*
X131871000Y-124268000D02*
X131871000Y-122960000D01*
X131831000Y-120880000D02*
X131831000Y-119555000D01*
X131831000Y-124285000D02*
X131831000Y-122960000D01*
X131791000Y-120880000D02*
X131791000Y-119538000D01*
X131791000Y-124302000D02*
X131791000Y-122960000D01*
X131751000Y-120880000D02*
X131751000Y-119522000D01*
X131751000Y-124318000D02*
X131751000Y-122960000D01*
X131711000Y-120880000D02*
X131711000Y-119506000D01*
X131711000Y-124334000D02*
X131711000Y-122960000D01*
X131671000Y-120880000D02*
X131671000Y-119492000D01*
X131671000Y-124348000D02*
X131671000Y-122960000D01*
X131631000Y-120880000D02*
X131631000Y-119478000D01*
X131631000Y-124362000D02*
X131631000Y-122960000D01*
X131591000Y-120880000D02*
X131591000Y-119465000D01*
X131591000Y-124375000D02*
X131591000Y-122960000D01*
X131551000Y-120880000D02*
X131551000Y-119452000D01*
X131551000Y-124388000D02*
X131551000Y-122960000D01*
X131511000Y-120880000D02*
X131511000Y-119440000D01*
X131511000Y-124400000D02*
X131511000Y-122960000D01*
X131470000Y-120880000D02*
X131470000Y-119429000D01*
X131470000Y-124411000D02*
X131470000Y-122960000D01*
X131430000Y-120880000D02*
X131430000Y-119419000D01*
X131430000Y-124421000D02*
X131430000Y-122960000D01*
X131390000Y-120880000D02*
X131390000Y-119409000D01*
X131390000Y-124431000D02*
X131390000Y-122960000D01*
X131350000Y-120880000D02*
X131350000Y-119400000D01*
X131350000Y-124440000D02*
X131350000Y-122960000D01*
X131310000Y-120880000D02*
X131310000Y-119392000D01*
X131310000Y-124448000D02*
X131310000Y-122960000D01*
X131270000Y-120880000D02*
X131270000Y-119384000D01*
X131270000Y-124456000D02*
X131270000Y-122960000D01*
X131230000Y-120880000D02*
X131230000Y-119377000D01*
X131230000Y-124463000D02*
X131230000Y-122960000D01*
X131190000Y-120880000D02*
X131190000Y-119370000D01*
X131190000Y-124470000D02*
X131190000Y-122960000D01*
X131150000Y-120880000D02*
X131150000Y-119364000D01*
X131150000Y-124476000D02*
X131150000Y-122960000D01*
X131110000Y-120880000D02*
X131110000Y-119359000D01*
X131110000Y-124481000D02*
X131110000Y-122960000D01*
X131070000Y-120880000D02*
X131070000Y-119355000D01*
X131070000Y-124485000D02*
X131070000Y-122960000D01*
X131030000Y-120880000D02*
X131030000Y-119351000D01*
X131030000Y-124489000D02*
X131030000Y-122960000D01*
X130990000Y-124493000D02*
X130990000Y-119347000D01*
X130950000Y-124496000D02*
X130950000Y-119344000D01*
X130910000Y-124498000D02*
X130910000Y-119342000D01*
X130870000Y-124499000D02*
X130870000Y-119341000D01*
X130830000Y-124500000D02*
X130830000Y-119340000D01*
X130790000Y-124500000D02*
X130790000Y-119340000D01*
X133410000Y-121920000D02*
G75*
G03*
X133410000Y-121920000I-2620000J0D01*
G01*
G04 #@! TO.C,C1*
X138660000Y-120800000D02*
X138660000Y-123040000D01*
X145900000Y-120800000D02*
X145900000Y-123040000D01*
X145900000Y-123040000D02*
X138660000Y-123040000D01*
X145900000Y-120800000D02*
X138660000Y-120800000D01*
G04 #@! TO.C,R24*
D10*
X165742857Y-51252380D02*
X166076190Y-50776190D01*
X166314285Y-51252380D02*
X166314285Y-50252380D01*
X165933333Y-50252380D01*
X165838095Y-50300000D01*
X165790476Y-50347619D01*
X165742857Y-50442857D01*
X165742857Y-50585714D01*
X165790476Y-50680952D01*
X165838095Y-50728571D01*
X165933333Y-50776190D01*
X166314285Y-50776190D01*
X165361904Y-50347619D02*
X165314285Y-50300000D01*
X165219047Y-50252380D01*
X164980952Y-50252380D01*
X164885714Y-50300000D01*
X164838095Y-50347619D01*
X164790476Y-50442857D01*
X164790476Y-50538095D01*
X164838095Y-50680952D01*
X165409523Y-51252380D01*
X164790476Y-51252380D01*
X163933333Y-50585714D02*
X163933333Y-51252380D01*
X164171428Y-50204761D02*
X164409523Y-50919047D01*
X163790476Y-50919047D01*
G04 #@! TO.C,R23*
X102242857Y-51082380D02*
X102576190Y-50606190D01*
X102814285Y-51082380D02*
X102814285Y-50082380D01*
X102433333Y-50082380D01*
X102338095Y-50130000D01*
X102290476Y-50177619D01*
X102242857Y-50272857D01*
X102242857Y-50415714D01*
X102290476Y-50510952D01*
X102338095Y-50558571D01*
X102433333Y-50606190D01*
X102814285Y-50606190D01*
X101861904Y-50177619D02*
X101814285Y-50130000D01*
X101719047Y-50082380D01*
X101480952Y-50082380D01*
X101385714Y-50130000D01*
X101338095Y-50177619D01*
X101290476Y-50272857D01*
X101290476Y-50368095D01*
X101338095Y-50510952D01*
X101909523Y-51082380D01*
X101290476Y-51082380D01*
X100957142Y-50082380D02*
X100338095Y-50082380D01*
X100671428Y-50463333D01*
X100528571Y-50463333D01*
X100433333Y-50510952D01*
X100385714Y-50558571D01*
X100338095Y-50653809D01*
X100338095Y-50891904D01*
X100385714Y-50987142D01*
X100433333Y-51034761D01*
X100528571Y-51082380D01*
X100814285Y-51082380D01*
X100909523Y-51034761D01*
X100957142Y-50987142D01*
G04 #@! TO.C,R22*
X142882857Y-51252380D02*
X143216190Y-50776190D01*
X143454285Y-51252380D02*
X143454285Y-50252380D01*
X143073333Y-50252380D01*
X142978095Y-50300000D01*
X142930476Y-50347619D01*
X142882857Y-50442857D01*
X142882857Y-50585714D01*
X142930476Y-50680952D01*
X142978095Y-50728571D01*
X143073333Y-50776190D01*
X143454285Y-50776190D01*
X142501904Y-50347619D02*
X142454285Y-50300000D01*
X142359047Y-50252380D01*
X142120952Y-50252380D01*
X142025714Y-50300000D01*
X141978095Y-50347619D01*
X141930476Y-50442857D01*
X141930476Y-50538095D01*
X141978095Y-50680952D01*
X142549523Y-51252380D01*
X141930476Y-51252380D01*
X141549523Y-50347619D02*
X141501904Y-50300000D01*
X141406666Y-50252380D01*
X141168571Y-50252380D01*
X141073333Y-50300000D01*
X141025714Y-50347619D01*
X140978095Y-50442857D01*
X140978095Y-50538095D01*
X141025714Y-50680952D01*
X141597142Y-51252380D01*
X140978095Y-51252380D01*
G04 #@! TO.C,R21*
X125102857Y-51082380D02*
X125436190Y-50606190D01*
X125674285Y-51082380D02*
X125674285Y-50082380D01*
X125293333Y-50082380D01*
X125198095Y-50130000D01*
X125150476Y-50177619D01*
X125102857Y-50272857D01*
X125102857Y-50415714D01*
X125150476Y-50510952D01*
X125198095Y-50558571D01*
X125293333Y-50606190D01*
X125674285Y-50606190D01*
X124721904Y-50177619D02*
X124674285Y-50130000D01*
X124579047Y-50082380D01*
X124340952Y-50082380D01*
X124245714Y-50130000D01*
X124198095Y-50177619D01*
X124150476Y-50272857D01*
X124150476Y-50368095D01*
X124198095Y-50510952D01*
X124769523Y-51082380D01*
X124150476Y-51082380D01*
X123198095Y-51082380D02*
X123769523Y-51082380D01*
X123483809Y-51082380D02*
X123483809Y-50082380D01*
X123579047Y-50225238D01*
X123674285Y-50320476D01*
X123769523Y-50368095D01*
G04 #@! TO.C,J4*
X91773333Y-113752380D02*
X91773333Y-114466666D01*
X91820952Y-114609523D01*
X91916190Y-114704761D01*
X92059047Y-114752380D01*
X92154285Y-114752380D01*
X90868571Y-114085714D02*
X90868571Y-114752380D01*
X91106666Y-113704761D02*
X91344761Y-114419047D01*
X90725714Y-114419047D01*
G04 #@! TO.C,J3*
X167973333Y-113752380D02*
X167973333Y-114466666D01*
X168020952Y-114609523D01*
X168116190Y-114704761D01*
X168259047Y-114752380D01*
X168354285Y-114752380D01*
X167592380Y-113752380D02*
X166973333Y-113752380D01*
X167306666Y-114133333D01*
X167163809Y-114133333D01*
X167068571Y-114180952D01*
X167020952Y-114228571D01*
X166973333Y-114323809D01*
X166973333Y-114561904D01*
X167020952Y-114657142D01*
X167068571Y-114704761D01*
X167163809Y-114752380D01*
X167449523Y-114752380D01*
X167544761Y-114704761D01*
X167592380Y-114657142D01*
G04 #@! TO.C,R18*
X159392857Y-124912380D02*
X159726190Y-124436190D01*
X159964285Y-124912380D02*
X159964285Y-123912380D01*
X159583333Y-123912380D01*
X159488095Y-123960000D01*
X159440476Y-124007619D01*
X159392857Y-124102857D01*
X159392857Y-124245714D01*
X159440476Y-124340952D01*
X159488095Y-124388571D01*
X159583333Y-124436190D01*
X159964285Y-124436190D01*
X158440476Y-124912380D02*
X159011904Y-124912380D01*
X158726190Y-124912380D02*
X158726190Y-123912380D01*
X158821428Y-124055238D01*
X158916666Y-124150476D01*
X159011904Y-124198095D01*
X157869047Y-124340952D02*
X157964285Y-124293333D01*
X158011904Y-124245714D01*
X158059523Y-124150476D01*
X158059523Y-124102857D01*
X158011904Y-124007619D01*
X157964285Y-123960000D01*
X157869047Y-123912380D01*
X157678571Y-123912380D01*
X157583333Y-123960000D01*
X157535714Y-124007619D01*
X157488095Y-124102857D01*
X157488095Y-124150476D01*
X157535714Y-124245714D01*
X157583333Y-124293333D01*
X157678571Y-124340952D01*
X157869047Y-124340952D01*
X157964285Y-124388571D01*
X158011904Y-124436190D01*
X158059523Y-124531428D01*
X158059523Y-124721904D01*
X158011904Y-124817142D01*
X157964285Y-124864761D01*
X157869047Y-124912380D01*
X157678571Y-124912380D01*
X157583333Y-124864761D01*
X157535714Y-124817142D01*
X157488095Y-124721904D01*
X157488095Y-124531428D01*
X157535714Y-124436190D01*
X157583333Y-124388571D01*
X157678571Y-124340952D01*
G04 #@! TO.C,R16*
X100972857Y-125092380D02*
X101306190Y-124616190D01*
X101544285Y-125092380D02*
X101544285Y-124092380D01*
X101163333Y-124092380D01*
X101068095Y-124140000D01*
X101020476Y-124187619D01*
X100972857Y-124282857D01*
X100972857Y-124425714D01*
X101020476Y-124520952D01*
X101068095Y-124568571D01*
X101163333Y-124616190D01*
X101544285Y-124616190D01*
X100020476Y-125092380D02*
X100591904Y-125092380D01*
X100306190Y-125092380D02*
X100306190Y-124092380D01*
X100401428Y-124235238D01*
X100496666Y-124330476D01*
X100591904Y-124378095D01*
X99163333Y-124092380D02*
X99353809Y-124092380D01*
X99449047Y-124140000D01*
X99496666Y-124187619D01*
X99591904Y-124330476D01*
X99639523Y-124520952D01*
X99639523Y-124901904D01*
X99591904Y-124997142D01*
X99544285Y-125044761D01*
X99449047Y-125092380D01*
X99258571Y-125092380D01*
X99163333Y-125044761D01*
X99115714Y-124997142D01*
X99068095Y-124901904D01*
X99068095Y-124663809D01*
X99115714Y-124568571D01*
X99163333Y-124520952D01*
X99258571Y-124473333D01*
X99449047Y-124473333D01*
X99544285Y-124520952D01*
X99591904Y-124568571D01*
X99639523Y-124663809D01*
G04 #@! TO.C,R15*
X100972857Y-130172380D02*
X101306190Y-129696190D01*
X101544285Y-130172380D02*
X101544285Y-129172380D01*
X101163333Y-129172380D01*
X101068095Y-129220000D01*
X101020476Y-129267619D01*
X100972857Y-129362857D01*
X100972857Y-129505714D01*
X101020476Y-129600952D01*
X101068095Y-129648571D01*
X101163333Y-129696190D01*
X101544285Y-129696190D01*
X100020476Y-130172380D02*
X100591904Y-130172380D01*
X100306190Y-130172380D02*
X100306190Y-129172380D01*
X100401428Y-129315238D01*
X100496666Y-129410476D01*
X100591904Y-129458095D01*
X99115714Y-129172380D02*
X99591904Y-129172380D01*
X99639523Y-129648571D01*
X99591904Y-129600952D01*
X99496666Y-129553333D01*
X99258571Y-129553333D01*
X99163333Y-129600952D01*
X99115714Y-129648571D01*
X99068095Y-129743809D01*
X99068095Y-129981904D01*
X99115714Y-130077142D01*
X99163333Y-130124761D01*
X99258571Y-130172380D01*
X99496666Y-130172380D01*
X99591904Y-130124761D01*
X99639523Y-130077142D01*
G04 #@! TO.C,R14*
X118752857Y-130172380D02*
X119086190Y-129696190D01*
X119324285Y-130172380D02*
X119324285Y-129172380D01*
X118943333Y-129172380D01*
X118848095Y-129220000D01*
X118800476Y-129267619D01*
X118752857Y-129362857D01*
X118752857Y-129505714D01*
X118800476Y-129600952D01*
X118848095Y-129648571D01*
X118943333Y-129696190D01*
X119324285Y-129696190D01*
X117800476Y-130172380D02*
X118371904Y-130172380D01*
X118086190Y-130172380D02*
X118086190Y-129172380D01*
X118181428Y-129315238D01*
X118276666Y-129410476D01*
X118371904Y-129458095D01*
X116943333Y-129505714D02*
X116943333Y-130172380D01*
X117181428Y-129124761D02*
X117419523Y-129839047D01*
X116800476Y-129839047D01*
G04 #@! TO.C,R13*
X118752857Y-125092380D02*
X119086190Y-124616190D01*
X119324285Y-125092380D02*
X119324285Y-124092380D01*
X118943333Y-124092380D01*
X118848095Y-124140000D01*
X118800476Y-124187619D01*
X118752857Y-124282857D01*
X118752857Y-124425714D01*
X118800476Y-124520952D01*
X118848095Y-124568571D01*
X118943333Y-124616190D01*
X119324285Y-124616190D01*
X117800476Y-125092380D02*
X118371904Y-125092380D01*
X118086190Y-125092380D02*
X118086190Y-124092380D01*
X118181428Y-124235238D01*
X118276666Y-124330476D01*
X118371904Y-124378095D01*
X117467142Y-124092380D02*
X116848095Y-124092380D01*
X117181428Y-124473333D01*
X117038571Y-124473333D01*
X116943333Y-124520952D01*
X116895714Y-124568571D01*
X116848095Y-124663809D01*
X116848095Y-124901904D01*
X116895714Y-124997142D01*
X116943333Y-125044761D01*
X117038571Y-125092380D01*
X117324285Y-125092380D01*
X117419523Y-125044761D01*
X117467142Y-124997142D01*
G04 #@! TO.C,R12*
X141612857Y-130172380D02*
X141946190Y-129696190D01*
X142184285Y-130172380D02*
X142184285Y-129172380D01*
X141803333Y-129172380D01*
X141708095Y-129220000D01*
X141660476Y-129267619D01*
X141612857Y-129362857D01*
X141612857Y-129505714D01*
X141660476Y-129600952D01*
X141708095Y-129648571D01*
X141803333Y-129696190D01*
X142184285Y-129696190D01*
X140660476Y-130172380D02*
X141231904Y-130172380D01*
X140946190Y-130172380D02*
X140946190Y-129172380D01*
X141041428Y-129315238D01*
X141136666Y-129410476D01*
X141231904Y-129458095D01*
X140279523Y-129267619D02*
X140231904Y-129220000D01*
X140136666Y-129172380D01*
X139898571Y-129172380D01*
X139803333Y-129220000D01*
X139755714Y-129267619D01*
X139708095Y-129362857D01*
X139708095Y-129458095D01*
X139755714Y-129600952D01*
X140327142Y-130172380D01*
X139708095Y-130172380D01*
G04 #@! TO.C,R11*
X159392857Y-129992380D02*
X159726190Y-129516190D01*
X159964285Y-129992380D02*
X159964285Y-128992380D01*
X159583333Y-128992380D01*
X159488095Y-129040000D01*
X159440476Y-129087619D01*
X159392857Y-129182857D01*
X159392857Y-129325714D01*
X159440476Y-129420952D01*
X159488095Y-129468571D01*
X159583333Y-129516190D01*
X159964285Y-129516190D01*
X158440476Y-129992380D02*
X159011904Y-129992380D01*
X158726190Y-129992380D02*
X158726190Y-128992380D01*
X158821428Y-129135238D01*
X158916666Y-129230476D01*
X159011904Y-129278095D01*
X157488095Y-129992380D02*
X158059523Y-129992380D01*
X157773809Y-129992380D02*
X157773809Y-128992380D01*
X157869047Y-129135238D01*
X157964285Y-129230476D01*
X158059523Y-129278095D01*
G04 #@! TO.C,R8*
X173352380Y-79843333D02*
X172876190Y-79510000D01*
X173352380Y-79271904D02*
X172352380Y-79271904D01*
X172352380Y-79652857D01*
X172400000Y-79748095D01*
X172447619Y-79795714D01*
X172542857Y-79843333D01*
X172685714Y-79843333D01*
X172780952Y-79795714D01*
X172828571Y-79748095D01*
X172876190Y-79652857D01*
X172876190Y-79271904D01*
X172780952Y-80414761D02*
X172733333Y-80319523D01*
X172685714Y-80271904D01*
X172590476Y-80224285D01*
X172542857Y-80224285D01*
X172447619Y-80271904D01*
X172400000Y-80319523D01*
X172352380Y-80414761D01*
X172352380Y-80605238D01*
X172400000Y-80700476D01*
X172447619Y-80748095D01*
X172542857Y-80795714D01*
X172590476Y-80795714D01*
X172685714Y-80748095D01*
X172733333Y-80700476D01*
X172780952Y-80605238D01*
X172780952Y-80414761D01*
X172828571Y-80319523D01*
X172876190Y-80271904D01*
X172971428Y-80224285D01*
X173161904Y-80224285D01*
X173257142Y-80271904D01*
X173304761Y-80319523D01*
X173352380Y-80414761D01*
X173352380Y-80605238D01*
X173304761Y-80700476D01*
X173257142Y-80748095D01*
X173161904Y-80795714D01*
X172971428Y-80795714D01*
X172876190Y-80748095D01*
X172828571Y-80700476D01*
X172780952Y-80605238D01*
G04 #@! TO.C,R6*
X125896666Y-84452380D02*
X126230000Y-83976190D01*
X126468095Y-84452380D02*
X126468095Y-83452380D01*
X126087142Y-83452380D01*
X125991904Y-83500000D01*
X125944285Y-83547619D01*
X125896666Y-83642857D01*
X125896666Y-83785714D01*
X125944285Y-83880952D01*
X125991904Y-83928571D01*
X126087142Y-83976190D01*
X126468095Y-83976190D01*
X125039523Y-83452380D02*
X125230000Y-83452380D01*
X125325238Y-83500000D01*
X125372857Y-83547619D01*
X125468095Y-83690476D01*
X125515714Y-83880952D01*
X125515714Y-84261904D01*
X125468095Y-84357142D01*
X125420476Y-84404761D01*
X125325238Y-84452380D01*
X125134761Y-84452380D01*
X125039523Y-84404761D01*
X124991904Y-84357142D01*
X124944285Y-84261904D01*
X124944285Y-84023809D01*
X124991904Y-83928571D01*
X125039523Y-83880952D01*
X125134761Y-83833333D01*
X125325238Y-83833333D01*
X125420476Y-83880952D01*
X125468095Y-83928571D01*
X125515714Y-84023809D01*
G04 #@! TO.C,R5*
X133516666Y-89352380D02*
X133850000Y-88876190D01*
X134088095Y-89352380D02*
X134088095Y-88352380D01*
X133707142Y-88352380D01*
X133611904Y-88400000D01*
X133564285Y-88447619D01*
X133516666Y-88542857D01*
X133516666Y-88685714D01*
X133564285Y-88780952D01*
X133611904Y-88828571D01*
X133707142Y-88876190D01*
X134088095Y-88876190D01*
X132611904Y-88352380D02*
X133088095Y-88352380D01*
X133135714Y-88828571D01*
X133088095Y-88780952D01*
X132992857Y-88733333D01*
X132754761Y-88733333D01*
X132659523Y-88780952D01*
X132611904Y-88828571D01*
X132564285Y-88923809D01*
X132564285Y-89161904D01*
X132611904Y-89257142D01*
X132659523Y-89304761D01*
X132754761Y-89352380D01*
X132992857Y-89352380D01*
X133088095Y-89304761D01*
X133135714Y-89257142D01*
G04 #@! TO.C,R4*
X110656666Y-107312380D02*
X110990000Y-106836190D01*
X111228095Y-107312380D02*
X111228095Y-106312380D01*
X110847142Y-106312380D01*
X110751904Y-106360000D01*
X110704285Y-106407619D01*
X110656666Y-106502857D01*
X110656666Y-106645714D01*
X110704285Y-106740952D01*
X110751904Y-106788571D01*
X110847142Y-106836190D01*
X111228095Y-106836190D01*
X109799523Y-106645714D02*
X109799523Y-107312380D01*
X110037619Y-106264761D02*
X110275714Y-106979047D01*
X109656666Y-106979047D01*
G04 #@! TO.C,R3*
X153836666Y-107312380D02*
X154170000Y-106836190D01*
X154408095Y-107312380D02*
X154408095Y-106312380D01*
X154027142Y-106312380D01*
X153931904Y-106360000D01*
X153884285Y-106407619D01*
X153836666Y-106502857D01*
X153836666Y-106645714D01*
X153884285Y-106740952D01*
X153931904Y-106788571D01*
X154027142Y-106836190D01*
X154408095Y-106836190D01*
X153503333Y-106312380D02*
X152884285Y-106312380D01*
X153217619Y-106693333D01*
X153074761Y-106693333D01*
X152979523Y-106740952D01*
X152931904Y-106788571D01*
X152884285Y-106883809D01*
X152884285Y-107121904D01*
X152931904Y-107217142D01*
X152979523Y-107264761D01*
X153074761Y-107312380D01*
X153360476Y-107312380D01*
X153455714Y-107264761D01*
X153503333Y-107217142D01*
G04 #@! TO.C,R2*
X108116666Y-66492380D02*
X108450000Y-66016190D01*
X108688095Y-66492380D02*
X108688095Y-65492380D01*
X108307142Y-65492380D01*
X108211904Y-65540000D01*
X108164285Y-65587619D01*
X108116666Y-65682857D01*
X108116666Y-65825714D01*
X108164285Y-65920952D01*
X108211904Y-65968571D01*
X108307142Y-66016190D01*
X108688095Y-66016190D01*
X107735714Y-65587619D02*
X107688095Y-65540000D01*
X107592857Y-65492380D01*
X107354761Y-65492380D01*
X107259523Y-65540000D01*
X107211904Y-65587619D01*
X107164285Y-65682857D01*
X107164285Y-65778095D01*
X107211904Y-65920952D01*
X107783333Y-66492380D01*
X107164285Y-66492380D01*
G04 #@! TO.C,R1*
X148756666Y-66492380D02*
X149090000Y-66016190D01*
X149328095Y-66492380D02*
X149328095Y-65492380D01*
X148947142Y-65492380D01*
X148851904Y-65540000D01*
X148804285Y-65587619D01*
X148756666Y-65682857D01*
X148756666Y-65825714D01*
X148804285Y-65920952D01*
X148851904Y-65968571D01*
X148947142Y-66016190D01*
X149328095Y-66016190D01*
X147804285Y-66492380D02*
X148375714Y-66492380D01*
X148090000Y-66492380D02*
X148090000Y-65492380D01*
X148185238Y-65635238D01*
X148280476Y-65730476D01*
X148375714Y-65778095D01*
G04 #@! TO.C,Q22*
X150657619Y-47688571D02*
X150610000Y-47593333D01*
X150514761Y-47498095D01*
X150371904Y-47355238D01*
X150324285Y-47260000D01*
X150324285Y-47164761D01*
X150562380Y-47212380D02*
X150514761Y-47117142D01*
X150419523Y-47021904D01*
X150229047Y-46974285D01*
X149895714Y-46974285D01*
X149705238Y-47021904D01*
X149610000Y-47117142D01*
X149562380Y-47212380D01*
X149562380Y-47402857D01*
X149610000Y-47498095D01*
X149705238Y-47593333D01*
X149895714Y-47640952D01*
X150229047Y-47640952D01*
X150419523Y-47593333D01*
X150514761Y-47498095D01*
X150562380Y-47402857D01*
X150562380Y-47212380D01*
X149657619Y-48021904D02*
X149610000Y-48069523D01*
X149562380Y-48164761D01*
X149562380Y-48402857D01*
X149610000Y-48498095D01*
X149657619Y-48545714D01*
X149752857Y-48593333D01*
X149848095Y-48593333D01*
X149990952Y-48545714D01*
X150562380Y-47974285D01*
X150562380Y-48593333D01*
X149657619Y-48974285D02*
X149610000Y-49021904D01*
X149562380Y-49117142D01*
X149562380Y-49355238D01*
X149610000Y-49450476D01*
X149657619Y-49498095D01*
X149752857Y-49545714D01*
X149848095Y-49545714D01*
X149990952Y-49498095D01*
X150562380Y-48926666D01*
X150562380Y-49545714D01*
G04 #@! TO.C,Q21*
X111287619Y-47688571D02*
X111240000Y-47593333D01*
X111144761Y-47498095D01*
X111001904Y-47355238D01*
X110954285Y-47260000D01*
X110954285Y-47164761D01*
X111192380Y-47212380D02*
X111144761Y-47117142D01*
X111049523Y-47021904D01*
X110859047Y-46974285D01*
X110525714Y-46974285D01*
X110335238Y-47021904D01*
X110240000Y-47117142D01*
X110192380Y-47212380D01*
X110192380Y-47402857D01*
X110240000Y-47498095D01*
X110335238Y-47593333D01*
X110525714Y-47640952D01*
X110859047Y-47640952D01*
X111049523Y-47593333D01*
X111144761Y-47498095D01*
X111192380Y-47402857D01*
X111192380Y-47212380D01*
X110287619Y-48021904D02*
X110240000Y-48069523D01*
X110192380Y-48164761D01*
X110192380Y-48402857D01*
X110240000Y-48498095D01*
X110287619Y-48545714D01*
X110382857Y-48593333D01*
X110478095Y-48593333D01*
X110620952Y-48545714D01*
X111192380Y-47974285D01*
X111192380Y-48593333D01*
X111192380Y-49545714D02*
X111192380Y-48974285D01*
X111192380Y-49260000D02*
X110192380Y-49260000D01*
X110335238Y-49164761D01*
X110430476Y-49069523D01*
X110478095Y-48974285D01*
G04 #@! TO.C,Q8*
X163925238Y-82847619D02*
X164020476Y-82800000D01*
X164115714Y-82704761D01*
X164258571Y-82561904D01*
X164353809Y-82514285D01*
X164449047Y-82514285D01*
X164401428Y-82752380D02*
X164496666Y-82704761D01*
X164591904Y-82609523D01*
X164639523Y-82419047D01*
X164639523Y-82085714D01*
X164591904Y-81895238D01*
X164496666Y-81800000D01*
X164401428Y-81752380D01*
X164210952Y-81752380D01*
X164115714Y-81800000D01*
X164020476Y-81895238D01*
X163972857Y-82085714D01*
X163972857Y-82419047D01*
X164020476Y-82609523D01*
X164115714Y-82704761D01*
X164210952Y-82752380D01*
X164401428Y-82752380D01*
X163401428Y-82180952D02*
X163496666Y-82133333D01*
X163544285Y-82085714D01*
X163591904Y-81990476D01*
X163591904Y-81942857D01*
X163544285Y-81847619D01*
X163496666Y-81800000D01*
X163401428Y-81752380D01*
X163210952Y-81752380D01*
X163115714Y-81800000D01*
X163068095Y-81847619D01*
X163020476Y-81942857D01*
X163020476Y-81990476D01*
X163068095Y-82085714D01*
X163115714Y-82133333D01*
X163210952Y-82180952D01*
X163401428Y-82180952D01*
X163496666Y-82228571D01*
X163544285Y-82276190D01*
X163591904Y-82371428D01*
X163591904Y-82561904D01*
X163544285Y-82657142D01*
X163496666Y-82704761D01*
X163401428Y-82752380D01*
X163210952Y-82752380D01*
X163115714Y-82704761D01*
X163068095Y-82657142D01*
X163020476Y-82561904D01*
X163020476Y-82371428D01*
X163068095Y-82276190D01*
X163115714Y-82228571D01*
X163210952Y-82180952D01*
G04 #@! TO.C,Q6*
X127095238Y-77767619D02*
X127190476Y-77720000D01*
X127285714Y-77624761D01*
X127428571Y-77481904D01*
X127523809Y-77434285D01*
X127619047Y-77434285D01*
X127571428Y-77672380D02*
X127666666Y-77624761D01*
X127761904Y-77529523D01*
X127809523Y-77339047D01*
X127809523Y-77005714D01*
X127761904Y-76815238D01*
X127666666Y-76720000D01*
X127571428Y-76672380D01*
X127380952Y-76672380D01*
X127285714Y-76720000D01*
X127190476Y-76815238D01*
X127142857Y-77005714D01*
X127142857Y-77339047D01*
X127190476Y-77529523D01*
X127285714Y-77624761D01*
X127380952Y-77672380D01*
X127571428Y-77672380D01*
X126285714Y-76672380D02*
X126476190Y-76672380D01*
X126571428Y-76720000D01*
X126619047Y-76767619D01*
X126714285Y-76910476D01*
X126761904Y-77100952D01*
X126761904Y-77481904D01*
X126714285Y-77577142D01*
X126666666Y-77624761D01*
X126571428Y-77672380D01*
X126380952Y-77672380D01*
X126285714Y-77624761D01*
X126238095Y-77577142D01*
X126190476Y-77481904D01*
X126190476Y-77243809D01*
X126238095Y-77148571D01*
X126285714Y-77100952D01*
X126380952Y-77053333D01*
X126571428Y-77053333D01*
X126666666Y-77100952D01*
X126714285Y-77148571D01*
X126761904Y-77243809D01*
G04 #@! TO.C,Q5*
X133445238Y-98087619D02*
X133540476Y-98040000D01*
X133635714Y-97944761D01*
X133778571Y-97801904D01*
X133873809Y-97754285D01*
X133969047Y-97754285D01*
X133921428Y-97992380D02*
X134016666Y-97944761D01*
X134111904Y-97849523D01*
X134159523Y-97659047D01*
X134159523Y-97325714D01*
X134111904Y-97135238D01*
X134016666Y-97040000D01*
X133921428Y-96992380D01*
X133730952Y-96992380D01*
X133635714Y-97040000D01*
X133540476Y-97135238D01*
X133492857Y-97325714D01*
X133492857Y-97659047D01*
X133540476Y-97849523D01*
X133635714Y-97944761D01*
X133730952Y-97992380D01*
X133921428Y-97992380D01*
X132588095Y-96992380D02*
X133064285Y-96992380D01*
X133111904Y-97468571D01*
X133064285Y-97420952D01*
X132969047Y-97373333D01*
X132730952Y-97373333D01*
X132635714Y-97420952D01*
X132588095Y-97468571D01*
X132540476Y-97563809D01*
X132540476Y-97801904D01*
X132588095Y-97897142D01*
X132635714Y-97944761D01*
X132730952Y-97992380D01*
X132969047Y-97992380D01*
X133064285Y-97944761D01*
X133111904Y-97897142D01*
G04 #@! TO.C,Q4*
X113125238Y-100627619D02*
X113220476Y-100580000D01*
X113315714Y-100484761D01*
X113458571Y-100341904D01*
X113553809Y-100294285D01*
X113649047Y-100294285D01*
X113601428Y-100532380D02*
X113696666Y-100484761D01*
X113791904Y-100389523D01*
X113839523Y-100199047D01*
X113839523Y-99865714D01*
X113791904Y-99675238D01*
X113696666Y-99580000D01*
X113601428Y-99532380D01*
X113410952Y-99532380D01*
X113315714Y-99580000D01*
X113220476Y-99675238D01*
X113172857Y-99865714D01*
X113172857Y-100199047D01*
X113220476Y-100389523D01*
X113315714Y-100484761D01*
X113410952Y-100532380D01*
X113601428Y-100532380D01*
X112315714Y-99865714D02*
X112315714Y-100532380D01*
X112553809Y-99484761D02*
X112791904Y-100199047D01*
X112172857Y-100199047D01*
G04 #@! TO.C,Q3*
X156305238Y-100627619D02*
X156400476Y-100580000D01*
X156495714Y-100484761D01*
X156638571Y-100341904D01*
X156733809Y-100294285D01*
X156829047Y-100294285D01*
X156781428Y-100532380D02*
X156876666Y-100484761D01*
X156971904Y-100389523D01*
X157019523Y-100199047D01*
X157019523Y-99865714D01*
X156971904Y-99675238D01*
X156876666Y-99580000D01*
X156781428Y-99532380D01*
X156590952Y-99532380D01*
X156495714Y-99580000D01*
X156400476Y-99675238D01*
X156352857Y-99865714D01*
X156352857Y-100199047D01*
X156400476Y-100389523D01*
X156495714Y-100484761D01*
X156590952Y-100532380D01*
X156781428Y-100532380D01*
X156019523Y-99532380D02*
X155400476Y-99532380D01*
X155733809Y-99913333D01*
X155590952Y-99913333D01*
X155495714Y-99960952D01*
X155448095Y-100008571D01*
X155400476Y-100103809D01*
X155400476Y-100341904D01*
X155448095Y-100437142D01*
X155495714Y-100484761D01*
X155590952Y-100532380D01*
X155876666Y-100532380D01*
X155971904Y-100484761D01*
X156019523Y-100437142D01*
G04 #@! TO.C,Q2*
X105505238Y-75227619D02*
X105600476Y-75180000D01*
X105695714Y-75084761D01*
X105838571Y-74941904D01*
X105933809Y-74894285D01*
X106029047Y-74894285D01*
X105981428Y-75132380D02*
X106076666Y-75084761D01*
X106171904Y-74989523D01*
X106219523Y-74799047D01*
X106219523Y-74465714D01*
X106171904Y-74275238D01*
X106076666Y-74180000D01*
X105981428Y-74132380D01*
X105790952Y-74132380D01*
X105695714Y-74180000D01*
X105600476Y-74275238D01*
X105552857Y-74465714D01*
X105552857Y-74799047D01*
X105600476Y-74989523D01*
X105695714Y-75084761D01*
X105790952Y-75132380D01*
X105981428Y-75132380D01*
X105171904Y-74227619D02*
X105124285Y-74180000D01*
X105029047Y-74132380D01*
X104790952Y-74132380D01*
X104695714Y-74180000D01*
X104648095Y-74227619D01*
X104600476Y-74322857D01*
X104600476Y-74418095D01*
X104648095Y-74560952D01*
X105219523Y-75132380D01*
X104600476Y-75132380D01*
G04 #@! TO.C,Q1*
X146145238Y-75227619D02*
X146240476Y-75180000D01*
X146335714Y-75084761D01*
X146478571Y-74941904D01*
X146573809Y-74894285D01*
X146669047Y-74894285D01*
X146621428Y-75132380D02*
X146716666Y-75084761D01*
X146811904Y-74989523D01*
X146859523Y-74799047D01*
X146859523Y-74465714D01*
X146811904Y-74275238D01*
X146716666Y-74180000D01*
X146621428Y-74132380D01*
X146430952Y-74132380D01*
X146335714Y-74180000D01*
X146240476Y-74275238D01*
X146192857Y-74465714D01*
X146192857Y-74799047D01*
X146240476Y-74989523D01*
X146335714Y-75084761D01*
X146430952Y-75132380D01*
X146621428Y-75132380D01*
X145240476Y-75132380D02*
X145811904Y-75132380D01*
X145526190Y-75132380D02*
X145526190Y-74132380D01*
X145621428Y-74275238D01*
X145716666Y-74370476D01*
X145811904Y-74418095D01*
G04 #@! TO.C,J5*
X131532380Y-129206666D02*
X132246666Y-129206666D01*
X132389523Y-129159047D01*
X132484761Y-129063809D01*
X132532380Y-128920952D01*
X132532380Y-128825714D01*
X131532380Y-130159047D02*
X131532380Y-129682857D01*
X132008571Y-129635238D01*
X131960952Y-129682857D01*
X131913333Y-129778095D01*
X131913333Y-130016190D01*
X131960952Y-130111428D01*
X132008571Y-130159047D01*
X132103809Y-130206666D01*
X132341904Y-130206666D01*
X132437142Y-130159047D01*
X132484761Y-130111428D01*
X132532380Y-130016190D01*
X132532380Y-129778095D01*
X132484761Y-129682857D01*
X132437142Y-129635238D01*
G04 #@! TO.C,J2*
X91773333Y-60412380D02*
X91773333Y-61126666D01*
X91820952Y-61269523D01*
X91916190Y-61364761D01*
X92059047Y-61412380D01*
X92154285Y-61412380D01*
X91344761Y-60507619D02*
X91297142Y-60460000D01*
X91201904Y-60412380D01*
X90963809Y-60412380D01*
X90868571Y-60460000D01*
X90820952Y-60507619D01*
X90773333Y-60602857D01*
X90773333Y-60698095D01*
X90820952Y-60840952D01*
X91392380Y-61412380D01*
X90773333Y-61412380D01*
G04 #@! TO.C,J1*
X167973333Y-60412380D02*
X167973333Y-61126666D01*
X168020952Y-61269523D01*
X168116190Y-61364761D01*
X168259047Y-61412380D01*
X168354285Y-61412380D01*
X166973333Y-61412380D02*
X167544761Y-61412380D01*
X167259047Y-61412380D02*
X167259047Y-60412380D01*
X167354285Y-60555238D01*
X167449523Y-60650476D01*
X167544761Y-60698095D01*
G04 #@! TO.C,C2*
X130956666Y-118467142D02*
X131004285Y-118514761D01*
X131147142Y-118562380D01*
X131242380Y-118562380D01*
X131385238Y-118514761D01*
X131480476Y-118419523D01*
X131528095Y-118324285D01*
X131575714Y-118133809D01*
X131575714Y-117990952D01*
X131528095Y-117800476D01*
X131480476Y-117705238D01*
X131385238Y-117610000D01*
X131242380Y-117562380D01*
X131147142Y-117562380D01*
X131004285Y-117610000D01*
X130956666Y-117657619D01*
X130575714Y-117657619D02*
X130528095Y-117610000D01*
X130432857Y-117562380D01*
X130194761Y-117562380D01*
X130099523Y-117610000D01*
X130051904Y-117657619D01*
X130004285Y-117752857D01*
X130004285Y-117848095D01*
X130051904Y-117990952D01*
X130623333Y-118562380D01*
X130004285Y-118562380D01*
G04 #@! TO.C,C1*
X142446666Y-120027142D02*
X142494285Y-120074761D01*
X142637142Y-120122380D01*
X142732380Y-120122380D01*
X142875238Y-120074761D01*
X142970476Y-119979523D01*
X143018095Y-119884285D01*
X143065714Y-119693809D01*
X143065714Y-119550952D01*
X143018095Y-119360476D01*
X142970476Y-119265238D01*
X142875238Y-119170000D01*
X142732380Y-119122380D01*
X142637142Y-119122380D01*
X142494285Y-119170000D01*
X142446666Y-119217619D01*
X141494285Y-120122380D02*
X142065714Y-120122380D01*
X141780000Y-120122380D02*
X141780000Y-119122380D01*
X141875238Y-119265238D01*
X141970476Y-119360476D01*
X142065714Y-119408095D01*
G04 #@! TD*
M02*
