G04 #@! TF.GenerationSoftware,KiCad,Pcbnew,5.1.10-5.1.10*
G04 #@! TF.CreationDate,2021-09-24T10:51:31+10:00*
G04 #@! TF.ProjectId,6segment,36736567-6d65-46e7-942e-6b696361645f,rev?*
G04 #@! TF.SameCoordinates,Original*
G04 #@! TF.FileFunction,Soldermask,Top*
G04 #@! TF.FilePolarity,Negative*
%FSLAX46Y46*%
G04 Gerber Fmt 4.6, Leading zero omitted, Abs format (unit mm)*
G04 Created by KiCad (PCBNEW 5.1.10-5.1.10) date 2021-09-24 10:51:31*
%MOMM*%
%LPD*%
G01*
G04 APERTURE LIST*
%ADD10O,1.600000X1.600000*%
%ADD11C,1.600000*%
%ADD12C,2.082800*%
%ADD13C,0.100000*%
%ADD14C,1.800000*%
%ADD15R,1.800000X1.800000*%
%ADD16C,7.000000*%
%ADD17O,1.700000X1.700000*%
%ADD18R,1.700000X1.700000*%
%ADD19R,1.300000X1.300000*%
%ADD20C,1.300000*%
%ADD21R,1.600000X1.600000*%
G04 APERTURE END LIST*
D10*
G04 #@! TO.C,R24*
X160020000Y-48260000D03*
D11*
X170180000Y-48260000D03*
G04 #@! TD*
D10*
G04 #@! TO.C,R23*
X106680000Y-48260000D03*
D11*
X96520000Y-48260000D03*
G04 #@! TD*
D10*
G04 #@! TO.C,R22*
X137160000Y-48260000D03*
D11*
X147320000Y-48260000D03*
G04 #@! TD*
D10*
G04 #@! TO.C,R21*
X129540000Y-48260000D03*
D11*
X119380000Y-48260000D03*
G04 #@! TD*
D12*
G04 #@! TO.C,J6*
X134620000Y-50800000D03*
X132080000Y-50800000D03*
X134620000Y-48260000D03*
X132080000Y-48260000D03*
X134620000Y-45720000D03*
X132080000Y-45720000D03*
G04 #@! TD*
D13*
G04 #@! TO.C,D115*
G36*
X147641768Y-89281939D02*
G01*
X146098867Y-88354870D01*
X147025936Y-86811969D01*
X148568837Y-87739038D01*
X147641768Y-89281939D01*
G37*
D14*
X148642049Y-85869749D03*
D13*
G36*
X143128490Y-96793296D02*
G01*
X141585589Y-95866227D01*
X142512658Y-94323326D01*
X144055559Y-95250395D01*
X143128490Y-96793296D01*
G37*
D14*
X144128770Y-93381106D03*
D13*
G36*
X138615211Y-104304653D02*
G01*
X137072310Y-103377584D01*
X137999379Y-101834683D01*
X139542280Y-102761752D01*
X138615211Y-104304653D01*
G37*
D14*
X139615492Y-100892463D03*
X135102213Y-108403820D03*
D13*
G36*
X134101932Y-111816010D02*
G01*
X132559031Y-110888941D01*
X133486100Y-109346040D01*
X135029001Y-110273109D01*
X134101932Y-111816010D01*
G37*
G04 #@! TD*
G04 #@! TO.C,D112*
G36*
X152713232Y-78358061D02*
G01*
X154256133Y-79285130D01*
X153329064Y-80828031D01*
X151786163Y-79900962D01*
X152713232Y-78358061D01*
G37*
D14*
X151712951Y-81770251D03*
D13*
G36*
X157226510Y-70846704D02*
G01*
X158769411Y-71773773D01*
X157842342Y-73316674D01*
X156299441Y-72389605D01*
X157226510Y-70846704D01*
G37*
D14*
X156226230Y-74258894D03*
D13*
G36*
X161739789Y-63335347D02*
G01*
X163282690Y-64262416D01*
X162355621Y-65805317D01*
X160812720Y-64878248D01*
X161739789Y-63335347D01*
G37*
D14*
X160739508Y-66747537D03*
X165252787Y-59236180D03*
D13*
G36*
X166253068Y-55823990D02*
G01*
X167795969Y-56751059D01*
X166868900Y-58293960D01*
X165325999Y-57366891D01*
X166253068Y-55823990D01*
G37*
G04 #@! TD*
G04 #@! TO.C,D15*
G36*
X106818923Y-89156004D02*
G01*
X105260077Y-88256004D01*
X106160077Y-86697158D01*
X107718923Y-87597158D01*
X106818923Y-89156004D01*
G37*
D14*
X107759500Y-85726876D03*
D13*
G36*
X102437423Y-96744984D02*
G01*
X100878577Y-95844984D01*
X101778577Y-94286138D01*
X103337423Y-95186138D01*
X102437423Y-96744984D01*
G37*
D14*
X103378000Y-93315857D03*
D13*
G36*
X98055923Y-104333965D02*
G01*
X96497077Y-103433965D01*
X97397077Y-101875119D01*
X98955923Y-102775119D01*
X98055923Y-104333965D01*
G37*
D14*
X98996500Y-100904837D03*
X94615000Y-108493818D03*
D13*
G36*
X93674423Y-111922946D02*
G01*
X92115577Y-111022946D01*
X93015577Y-109464100D01*
X94574423Y-110364100D01*
X93674423Y-111922946D01*
G37*
G04 #@! TD*
G04 #@! TO.C,D12*
G36*
X111748077Y-78483996D02*
G01*
X113306923Y-79383996D01*
X112406923Y-80942842D01*
X110848077Y-80042842D01*
X111748077Y-78483996D01*
G37*
D14*
X110807500Y-81913124D03*
D13*
G36*
X116129577Y-70895016D02*
G01*
X117688423Y-71795016D01*
X116788423Y-73353862D01*
X115229577Y-72453862D01*
X116129577Y-70895016D01*
G37*
D14*
X115189000Y-74324143D03*
D13*
G36*
X120511077Y-63306035D02*
G01*
X122069923Y-64206035D01*
X121169923Y-65764881D01*
X119611077Y-64864881D01*
X120511077Y-63306035D01*
G37*
D14*
X119570500Y-66735163D03*
X123952000Y-59146182D03*
D13*
G36*
X124892577Y-55717054D02*
G01*
X126451423Y-56617054D01*
X125551423Y-58175900D01*
X123992577Y-57275900D01*
X124892577Y-55717054D01*
G37*
G04 #@! TD*
D15*
G04 #@! TO.C,D116*
X145415000Y-79375000D03*
D14*
X145415000Y-81915000D03*
D15*
X135255000Y-71755000D03*
D14*
X135255000Y-74295000D03*
D15*
X135255000Y-64262000D03*
D14*
X135255000Y-66802000D03*
X135255000Y-59055000D03*
D15*
X135255000Y-56515000D03*
G04 #@! TD*
G04 #@! TO.C,D16*
X104140000Y-79375000D03*
D14*
X104140000Y-81915000D03*
D15*
X93980000Y-71755000D03*
D14*
X93980000Y-74295000D03*
D15*
X93980000Y-64262000D03*
D14*
X93980000Y-66802000D03*
X93980000Y-59055000D03*
D15*
X93980000Y-56515000D03*
G04 #@! TD*
G04 #@! TO.C,D113*
X156210000Y-88265000D03*
D14*
X156210000Y-85725000D03*
D15*
X166370000Y-95885000D03*
D14*
X166370000Y-93345000D03*
D15*
X166370000Y-103378000D03*
D14*
X166370000Y-100838000D03*
X166370000Y-108585000D03*
D15*
X166370000Y-111125000D03*
G04 #@! TD*
G04 #@! TO.C,D13*
X114300000Y-88265000D03*
D14*
X114300000Y-85725000D03*
D15*
X124460000Y-95885000D03*
D14*
X124460000Y-93345000D03*
D15*
X124460000Y-103378000D03*
D14*
X124460000Y-100838000D03*
X124460000Y-108585000D03*
D15*
X124460000Y-111125000D03*
G04 #@! TD*
G04 #@! TO.C,D117*
X177800000Y-73406000D03*
D14*
X177800000Y-70866000D03*
D15*
X177800000Y-78486000D03*
D14*
X177800000Y-75946000D03*
D15*
X177800000Y-91313000D03*
D14*
X177800000Y-88773000D03*
X177800000Y-93980000D03*
D15*
X177800000Y-96520000D03*
G04 #@! TD*
D16*
G04 #@! TO.C,H4*
X177800000Y-134620000D03*
G04 #@! TD*
G04 #@! TO.C,H3*
X88900000Y-134620000D03*
G04 #@! TD*
G04 #@! TO.C,H2*
X177800000Y-45720000D03*
G04 #@! TD*
G04 #@! TO.C,H1*
X88900000Y-45720000D03*
G04 #@! TD*
D17*
G04 #@! TO.C,J4*
X86360000Y-129540000D03*
X86360000Y-127000000D03*
X86360000Y-124460000D03*
X86360000Y-121920000D03*
X86360000Y-119380000D03*
X86360000Y-116840000D03*
X86360000Y-114300000D03*
X86360000Y-111760000D03*
X86360000Y-109220000D03*
X86360000Y-106680000D03*
X86360000Y-104140000D03*
D18*
X86360000Y-101600000D03*
G04 #@! TD*
D17*
G04 #@! TO.C,J3*
X172720000Y-129540000D03*
X172720000Y-127000000D03*
X172720000Y-124460000D03*
X172720000Y-121920000D03*
X172720000Y-119380000D03*
X172720000Y-116840000D03*
X172720000Y-114300000D03*
X172720000Y-111760000D03*
X172720000Y-109220000D03*
X172720000Y-106680000D03*
X172720000Y-104140000D03*
D18*
X172720000Y-101600000D03*
G04 #@! TD*
D15*
G04 #@! TO.C,D11*
X119380000Y-54610000D03*
D14*
X121920000Y-54610000D03*
D15*
X111760000Y-54610000D03*
D14*
X114300000Y-54610000D03*
D15*
X104267000Y-54610000D03*
D14*
X106807000Y-54610000D03*
X99060000Y-54610000D03*
D15*
X96520000Y-54610000D03*
G04 #@! TD*
G04 #@! TO.C,D14*
X119380000Y-113030000D03*
D14*
X121920000Y-113030000D03*
D15*
X111760000Y-113030000D03*
D14*
X114300000Y-113030000D03*
D15*
X104267000Y-113030000D03*
D14*
X106807000Y-113030000D03*
X99060000Y-113030000D03*
D15*
X96520000Y-113030000D03*
G04 #@! TD*
G04 #@! TO.C,D111*
X160655000Y-54610000D03*
D14*
X163195000Y-54610000D03*
D15*
X153035000Y-54610000D03*
D14*
X155575000Y-54610000D03*
D15*
X145542000Y-54610000D03*
D14*
X148082000Y-54610000D03*
X140335000Y-54610000D03*
D15*
X137795000Y-54610000D03*
G04 #@! TD*
G04 #@! TO.C,D114*
X160020000Y-113030000D03*
D14*
X162560000Y-113030000D03*
D15*
X152400000Y-113030000D03*
D14*
X154940000Y-113030000D03*
D15*
X144907000Y-113030000D03*
D14*
X147447000Y-113030000D03*
X139700000Y-113030000D03*
D15*
X137160000Y-113030000D03*
G04 #@! TD*
D10*
G04 #@! TO.C,R18*
X152400000Y-121920000D03*
D11*
X165100000Y-121920000D03*
G04 #@! TD*
D10*
G04 #@! TO.C,R16*
X106680000Y-121920000D03*
D11*
X93980000Y-121920000D03*
G04 #@! TD*
D10*
G04 #@! TO.C,R15*
X106680000Y-127000000D03*
D11*
X93980000Y-127000000D03*
G04 #@! TD*
D10*
G04 #@! TO.C,R14*
X124460000Y-127000000D03*
D11*
X111760000Y-127000000D03*
G04 #@! TD*
D10*
G04 #@! TO.C,R13*
X124460000Y-121920000D03*
D11*
X111760000Y-121920000D03*
G04 #@! TD*
D10*
G04 #@! TO.C,R12*
X147320000Y-127000000D03*
D11*
X134620000Y-127000000D03*
G04 #@! TD*
D10*
G04 #@! TO.C,R11*
X152400000Y-127000000D03*
D11*
X165100000Y-127000000D03*
G04 #@! TD*
D10*
G04 #@! TO.C,R8*
X170180000Y-73660000D03*
D11*
X170180000Y-86360000D03*
G04 #@! TD*
D10*
G04 #@! TO.C,R6*
X132080000Y-81280000D03*
D11*
X119380000Y-81280000D03*
G04 #@! TD*
D10*
G04 #@! TO.C,R5*
X127000000Y-86360000D03*
D11*
X139700000Y-86360000D03*
G04 #@! TD*
D10*
G04 #@! TO.C,R4*
X116840000Y-104140000D03*
D11*
X104140000Y-104140000D03*
G04 #@! TD*
D10*
G04 #@! TO.C,R3*
X160020000Y-104140000D03*
D11*
X147320000Y-104140000D03*
G04 #@! TD*
D10*
G04 #@! TO.C,R2*
X101600000Y-63500000D03*
D11*
X114300000Y-63500000D03*
G04 #@! TD*
D10*
G04 #@! TO.C,R1*
X154940000Y-63500000D03*
D11*
X142240000Y-63500000D03*
G04 #@! TD*
D19*
G04 #@! TO.C,Q22*
X153670000Y-46990000D03*
D20*
X153670000Y-49530000D03*
X152400000Y-48260000D03*
G04 #@! TD*
D19*
G04 #@! TO.C,Q21*
X114300000Y-46990000D03*
D20*
X114300000Y-49530000D03*
X113030000Y-48260000D03*
G04 #@! TD*
D19*
G04 #@! TO.C,Q8*
X162560000Y-78740000D03*
D20*
X165100000Y-78740000D03*
X163830000Y-80010000D03*
G04 #@! TD*
D19*
G04 #@! TO.C,Q6*
X125730000Y-73660000D03*
D20*
X128270000Y-73660000D03*
X127000000Y-74930000D03*
G04 #@! TD*
D19*
G04 #@! TO.C,Q5*
X132080000Y-93980000D03*
D20*
X134620000Y-93980000D03*
X133350000Y-95250000D03*
G04 #@! TD*
D19*
G04 #@! TO.C,Q4*
X111760000Y-96520000D03*
D20*
X114300000Y-96520000D03*
X113030000Y-97790000D03*
G04 #@! TD*
D19*
G04 #@! TO.C,Q3*
X154940000Y-96520000D03*
D20*
X157480000Y-96520000D03*
X156210000Y-97790000D03*
G04 #@! TD*
D19*
G04 #@! TO.C,Q2*
X104140000Y-71120000D03*
D20*
X106680000Y-71120000D03*
X105410000Y-72390000D03*
G04 #@! TD*
D19*
G04 #@! TO.C,Q1*
X144780000Y-71120000D03*
D20*
X147320000Y-71120000D03*
X146050000Y-72390000D03*
G04 #@! TD*
D17*
G04 #@! TO.C,J5*
X119380000Y-134620000D03*
X121920000Y-134620000D03*
X124460000Y-134620000D03*
X127000000Y-134620000D03*
X129540000Y-134620000D03*
X132080000Y-134620000D03*
X134620000Y-134620000D03*
X137160000Y-134620000D03*
X139700000Y-134620000D03*
X142240000Y-134620000D03*
X144780000Y-134620000D03*
D18*
X147320000Y-134620000D03*
G04 #@! TD*
D17*
G04 #@! TO.C,J2*
X86360000Y-66040000D03*
X86360000Y-63500000D03*
X86360000Y-60960000D03*
X86360000Y-58420000D03*
X86360000Y-55880000D03*
D18*
X86360000Y-53340000D03*
G04 #@! TD*
D17*
G04 #@! TO.C,J1*
X172720000Y-66040000D03*
X172720000Y-63500000D03*
X172720000Y-60960000D03*
X172720000Y-58420000D03*
X172720000Y-55880000D03*
D18*
X172720000Y-53340000D03*
G04 #@! TD*
D11*
G04 #@! TO.C,C2*
X132040000Y-121920000D03*
D21*
X129540000Y-121920000D03*
G04 #@! TD*
D11*
G04 #@! TO.C,C1*
X139780000Y-121920000D03*
X144780000Y-121920000D03*
G04 #@! TD*
M02*
